<?xml version="1.0" encoding="UTF-8" standalone="no"?>
<!DOCTYPE svg PUBLIC "-//W3C//DTD SVG 1.1//EN"
"http://www.w3.org/Graphics/SVG/1.1/DTD/svg11.dtd">
<svg viewBox="0 0 909 1286" version="1.1" xmlns="http://www.w3.org/2000/svg" xmlns:xlink="http://www.w3.org/1999/xlink">
<defs>
<style type="text/css"><![CDATA[
.g0_2{
fill: #C0C0C0;
}
.g1_2{
fill: none;
stroke: #000000;
stroke-width: 0.15277778;
stroke-linecap: butt;
stroke-linejoin: round;
}
.g2_2{
fill: none;
stroke: #000000;
stroke-width: 2.6044793;
stroke-linecap: butt;
stroke-linejoin: round;
}
.g3_2{
fill: #FFFFFF;
}
.g4_2{
}
]]></style>
</defs>
<path fill-rule="evenodd" d="M43.3,112.4H840.5v-91H43.3v91Z" class="g0_2" />
<path fill-rule="evenodd" d="M43.3,132.4H89.8v-20H43.3v20Z" class="g0_2" />
<path fill-rule="evenodd" d="M103.7,132.4h4.7v-20h-4.7v20Z" class="g0_2" />
<path fill-rule="evenodd" d="M122.4,132.4h4.7v-20h-4.7v20Z" class="g0_2" />
<path fill-rule="evenodd" d="M141,132.4h4.7v-20H141v20Z" class="g0_2" />
<path fill-rule="evenodd" d="M159.7,132.4h4.7v-20h-4.7v20Z" class="g0_2" />
<path fill-rule="evenodd" d="M178.3,132.4H183v-20h-4.7v20Z" class="g0_2" />
<path fill-rule="evenodd" d="M197,132.4h4.7v-20H197v20Z" class="g0_2" />
<path fill-rule="evenodd" d="M215.6,132.4h4.7v-20h-4.7v20Z" class="g0_2" />
<path fill-rule="evenodd" d="M234.3,132.4H239v-20h-4.7v20Z" class="g0_2" />
<path fill-rule="evenodd" d="M252.9,132.4h4.7v-20h-4.7v20Z" class="g0_2" />
<path fill-rule="evenodd" d="M271.6,132.4h4.7v-20h-4.7v20Z" class="g0_2" />
<path fill-rule="evenodd" d="M290.2,132.4h4.7v-20h-4.7v20Z" class="g0_2" />
<path fill-rule="evenodd" d="M308.9,132.4h4.7v-20h-4.7v20Z" class="g0_2" />
<path fill-rule="evenodd" d="M327.5,132.4h4.7v-20h-4.7v20Z" class="g0_2" />
<path fill-rule="evenodd" d="M346.2,132.4h4.7v-20h-4.7v20Z" class="g0_2" />
<path fill-rule="evenodd" d="M364.8,132.4h4.7v-20h-4.7v20Z" class="g0_2" />
<path fill-rule="evenodd" d="M383.5,132.4h4.7v-20h-4.7v20Z" class="g0_2" />
<path fill-rule="evenodd" d="M402.1,132.4h4.7v-20h-4.7v20Z" class="g0_2" />
<path fill-rule="evenodd" d="M420.8,132.4h4.7v-20h-4.7v20Z" class="g0_2" />
<path fill-rule="evenodd" d="M439.4,132.4h4.7v-20h-4.7v20Z" class="g0_2" />
<path fill-rule="evenodd" d="M458.1,132.4h4.7v-20h-4.7v20Z" class="g0_2" />
<path fill-rule="evenodd" d="M476.7,132.4h4.8v-20h-4.8v20Z" class="g0_2" />
<path fill-rule="evenodd" d="M495.4,132.4h4.7v-20h-4.7v20Z" class="g0_2" />
<path fill-rule="evenodd" d="M514,132.4h4.8v-20H514v20Z" class="g0_2" />
<path fill-rule="evenodd" d="M532.7,132.4h4.7v-20h-4.7v20Z" class="g0_2" />
<path fill-rule="evenodd" d="M551.4,132.4h4.7v-20h-4.7v20Z" class="g0_2" />
<path fill-rule="evenodd" d="M570,132.4h4.7v-20H570v20Z" class="g0_2" />
<path fill-rule="evenodd" d="M588.7,132.4h4.7v-20h-4.7v20Z" class="g0_2" />
<path fill-rule="evenodd" d="M607.3,132.4H612v-20h-4.7v20Z" class="g0_2" />
<path fill-rule="evenodd" d="M626,132.4h4.7v-20H626v20Z" class="g0_2" />
<path fill-rule="evenodd" d="M644.6,132.4h4.7v-20h-4.7v20Z" class="g0_2" />
<path fill-rule="evenodd" d="M663.3,132.4H668v-20h-4.7v20Z" class="g0_2" />
<path fill-rule="evenodd" d="M681.9,132.4h4.7v-20h-4.7v20Z" class="g0_2" />
<path fill-rule="evenodd" d="M700.6,132.4h23.3v-20H700.6v20Z" class="g0_2" />
<path fill-rule="evenodd" d="M737.9,132.4h4.7v-20h-4.7v20Z" class="g0_2" />
<path fill-rule="evenodd" d="M756.5,132.4h4.7v-20h-4.7v20Z" class="g0_2" />
<path fill-rule="evenodd" d="M775.2,132.4h65.3v-20H775.2v20Z" class="g0_2" />
<path fill-rule="evenodd" d="M43.3,140.2H840.5v-7.8H43.3v7.8Z" class="g0_2" />
<path fill-rule="evenodd" d="M43.3,160.2H89.8V140.1H43.3v20.1Z" class="g0_2" />
<path fill-rule="evenodd" d="M103.7,160.2h4.7V140.1h-4.7v20.1Z" class="g0_2" />
<path fill-rule="evenodd" d="M122.4,160.2h4.7V140.1h-4.7v20.1Z" class="g0_2" />
<path fill-rule="evenodd" d="M141,160.2h4.7V140.1H141v20.1Z" class="g0_2" />
<path fill-rule="evenodd" d="M159.7,160.2h4.7V140.1h-4.7v20.1Z" class="g0_2" />
<path fill-rule="evenodd" d="M178.3,160.2H183V140.1h-4.7v20.1Z" class="g0_2" />
<path fill-rule="evenodd" d="M197,160.2h4.7V140.1H197v20.1Z" class="g0_2" />
<path fill-rule="evenodd" d="M215.6,160.2h4.7V140.1h-4.7v20.1Z" class="g0_2" />
<path fill-rule="evenodd" d="M234.3,160.2H239V140.1h-4.7v20.1Z" class="g0_2" />
<path fill-rule="evenodd" d="M252.9,160.2h4.7V140.1h-4.7v20.1Z" class="g0_2" />
<path fill-rule="evenodd" d="M271.6,160.2h4.7V140.1h-4.7v20.1Z" class="g0_2" />
<path fill-rule="evenodd" d="M290.2,160.2h4.7V140.1h-4.7v20.1Z" class="g0_2" />
<path fill-rule="evenodd" d="M308.9,160.2h4.7V140.1h-4.7v20.1Z" class="g0_2" />
<path fill-rule="evenodd" d="M327.5,160.2h4.7V140.1h-4.7v20.1Z" class="g0_2" />
<path fill-rule="evenodd" d="M346.2,160.2h4.7V140.1h-4.7v20.1Z" class="g0_2" />
<path fill-rule="evenodd" d="M364.8,160.2h4.7V140.1h-4.7v20.1Z" class="g0_2" />
<path fill-rule="evenodd" d="M383.5,160.2h4.7V140.1h-4.7v20.1Z" class="g0_2" />
<path fill-rule="evenodd" d="M402.1,160.2h4.7V140.1h-4.7v20.1Z" class="g0_2" />
<path fill-rule="evenodd" d="M420.8,160.2h4.7V140.1h-4.7v20.1Z" class="g0_2" />
<path fill-rule="evenodd" d="M439.4,160.2h4.7V140.1h-4.7v20.1Z" class="g0_2" />
<path fill-rule="evenodd" d="M458.1,160.2h4.7V140.1h-4.7v20.1Z" class="g0_2" />
<path fill-rule="evenodd" d="M476.7,160.2h4.8V140.1h-4.8v20.1Z" class="g0_2" />
<path fill-rule="evenodd" d="M495.4,160.2h4.7V140.1h-4.7v20.1Z" class="g0_2" />
<path fill-rule="evenodd" d="M514,160.2h4.8V140.1H514v20.1Z" class="g0_2" />
<path fill-rule="evenodd" d="M532.7,160.2h4.7V140.1h-4.7v20.1Z" class="g0_2" />
<path fill-rule="evenodd" d="M551.4,160.2h4.7V140.1h-4.7v20.1Z" class="g0_2" />
<path fill-rule="evenodd" d="M570,160.2h23.4V140.1H570v20.1Z" class="g0_2" />
<path fill-rule="evenodd" d="M607.3,160.2H612V140.1h-4.7v20.1Z" class="g0_2" />
<path fill-rule="evenodd" d="M626,160.2h4.7V140.1H626v20.1Z" class="g0_2" />
<path fill-rule="evenodd" d="M644.6,160.2h4.7V140.1h-4.7v20.1Z" class="g0_2" />
<path fill-rule="evenodd" d="M663.3,160.2H668V140.1h-4.7v20.1Z" class="g0_2" />
<path fill-rule="evenodd" d="M681.9,160.2h4.7V140.1h-4.7v20.1Z" class="g0_2" />
<path fill-rule="evenodd" d="M700.6,160.2h4.7V140.1h-4.7v20.1Z" class="g0_2" />
<path fill-rule="evenodd" d="M719.2,160.2h4.7V140.1h-4.7v20.1Z" class="g0_2" />
<path fill-rule="evenodd" d="M737.9,160.2h4.7V140.1h-4.7v20.1Z" class="g0_2" />
<path fill-rule="evenodd" d="M756.5,160.2h4.7V140.1h-4.7v20.1Z" class="g0_2" />
<path fill-rule="evenodd" d="M775.2,160.2h65.3V140.1H775.2v20.1Z" class="g0_2" />
<path fill-rule="evenodd" d="M43.3,184.6H840.5V160.1H43.3v24.5Z" class="g0_2" />
<path fill-rule="evenodd" d="M43.3,205.6H183V184.5H43.3v21.1Z" class="g0_2" />
<path fill-rule="evenodd" d="M197,205.6h4.7V184.5H197v21.1Z" class="g0_2" />
<path fill-rule="evenodd" d="M215.6,205.6h4.7V184.5h-4.7v21.1Z" class="g0_2" />
<path fill-rule="evenodd" d="M234.3,205.6H239V184.5h-4.7v21.1Z" class="g0_2" />
<path fill-rule="evenodd" d="M252.9,205.6h4.7V184.5h-4.7v21.1Z" class="g0_2" />
<path fill-rule="evenodd" d="M271.6,205.6h4.7V184.5h-4.7v21.1Z" class="g0_2" />
<path fill-rule="evenodd" d="M290.2,205.6h4.7V184.5h-4.7v21.1Z" class="g0_2" />
<path fill-rule="evenodd" d="M308.9,205.6h4.7V184.5h-4.7v21.1Z" class="g0_2" />
<path fill-rule="evenodd" d="M327.5,205.6h4.7V184.5h-4.7v21.1Z" class="g0_2" />
<path fill-rule="evenodd" d="M346.2,205.6h4.7V184.5h-4.7v21.1Z" class="g0_2" />
<path fill-rule="evenodd" d="M364.8,205.6h4.7V184.5h-4.7v21.1Z" class="g0_2" />
<path fill-rule="evenodd" d="M383.5,205.6h4.7V184.5h-4.7v21.1Z" class="g0_2" />
<path fill-rule="evenodd" d="M402.1,205.6h4.7V184.5h-4.7v21.1Z" class="g0_2" />
<path fill-rule="evenodd" d="M420.8,205.6h4.7V184.5h-4.7v21.1Z" class="g0_2" />
<path fill-rule="evenodd" d="M439.4,205.6h4.7V184.5h-4.7v21.1Z" class="g0_2" />
<path fill-rule="evenodd" d="M458.1,205.6h4.7V184.5h-4.7v21.1Z" class="g0_2" />
<path fill-rule="evenodd" d="M476.7,205.6h4.8V184.5h-4.8v21.1Z" class="g0_2" />
<path fill-rule="evenodd" d="M495.4,205.6h4.7V184.5h-4.7v21.1Z" class="g0_2" />
<path fill-rule="evenodd" d="M514,205.6h4.8V184.5H514v21.1Z" class="g0_2" />
<path fill-rule="evenodd" d="M532.7,205.6h4.7V184.5h-4.7v21.1Z" class="g0_2" />
<path fill-rule="evenodd" d="M551.4,205.6h4.7V184.5h-4.7v21.1Z" class="g0_2" />
<path fill-rule="evenodd" d="M570,205.6h4.7V184.5H570v21.1Z" class="g0_2" />
<path fill-rule="evenodd" d="M588.7,205.6h4.7V184.5h-4.7v21.1Z" class="g0_2" />
<path fill-rule="evenodd" d="M607.3,205.6H612V184.5h-4.7v21.1Z" class="g0_2" />
<path fill-rule="evenodd" d="M626,205.6h4.7V184.5H626v21.1Z" class="g0_2" />
<path fill-rule="evenodd" d="M644.6,205.6h4.7V184.5h-4.7v21.1Z" class="g0_2" />
<path fill-rule="evenodd" d="M663.3,205.6H668V184.5h-4.7v21.1Z" class="g0_2" />
<path fill-rule="evenodd" d="M681.9,205.6h4.7V184.5h-4.7v21.1Z" class="g0_2" />
<path fill-rule="evenodd" d="M700.6,205.6h4.7V184.5h-4.7v21.1Z" class="g0_2" />
<path fill-rule="evenodd" d="M719.2,205.6h4.7V184.5h-4.7v21.1Z" class="g0_2" />
<path fill-rule="evenodd" d="M737.9,205.6h4.7V184.5h-4.7v21.1Z" class="g0_2" />
<path fill-rule="evenodd" d="M756.5,205.6h4.7V184.5h-4.7v21.1Z" class="g0_2" />
<path fill-rule="evenodd" d="M775.2,205.6h4.7V184.5h-4.7v21.1Z" class="g0_2" />
<path fill-rule="evenodd" d="M793.8,205.6h46.7V184.5H793.8v21.1Z" class="g0_2" />
<path fill-rule="evenodd" d="M43.3,213.4H840.5v-7.8H43.3v7.8Z" class="g0_2" />
<path fill-rule="evenodd" d="M43.3,233.4H145.7v-20H43.3v20Z" class="g0_2" />
<path fill-rule="evenodd" d="M159.7,233.4h4.7v-20h-4.7v20Z" class="g0_2" />
<path fill-rule="evenodd" d="M178.3,233.4H183v-20h-4.7v20Z" class="g0_2" />
<path fill-rule="evenodd" d="M197,233.4h4.7v-20H197v20Z" class="g0_2" />
<path fill-rule="evenodd" d="M215.6,233.4h4.7v-20h-4.7v20Z" class="g0_2" />
<path fill-rule="evenodd" d="M234.3,233.4H239v-20h-4.7v20Z" class="g0_2" />
<path fill-rule="evenodd" d="M252.9,233.4h4.7v-20h-4.7v20Z" class="g0_2" />
<path fill-rule="evenodd" d="M271.6,233.4h4.7v-20h-4.7v20Z" class="g0_2" />
<path fill-rule="evenodd" d="M290.2,233.4h4.7v-20h-4.7v20Z" class="g0_2" />
<path fill-rule="evenodd" d="M308.9,233.4h4.7v-20h-4.7v20Z" class="g0_2" />
<path fill-rule="evenodd" d="M327.5,233.4h4.7v-20h-4.7v20Z" class="g0_2" />
<path fill-rule="evenodd" d="M346.2,233.4h4.7v-20h-4.7v20Z" class="g0_2" />
<path fill-rule="evenodd" d="M364.8,233.4h4.7v-20h-4.7v20Z" class="g0_2" />
<path fill-rule="evenodd" d="M383.5,233.4h4.7v-20h-4.7v20Z" class="g0_2" />
<path fill-rule="evenodd" d="M402.1,233.4h4.7v-20h-4.7v20Z" class="g0_2" />
<path fill-rule="evenodd" d="M420.8,233.4h4.7v-20h-4.7v20Z" class="g0_2" />
<path fill-rule="evenodd" d="M439.4,233.4h4.7v-20h-4.7v20Z" class="g0_2" />
<path fill-rule="evenodd" d="M458.1,233.4h4.7v-20h-4.7v20Z" class="g0_2" />
<path fill-rule="evenodd" d="M476.7,233.4h4.8v-20h-4.8v20Z" class="g0_2" />
<path fill-rule="evenodd" d="M495.4,233.4h4.7v-20h-4.7v20Z" class="g0_2" />
<path fill-rule="evenodd" d="M514,233.4h4.8v-20H514v20Z" class="g0_2" />
<path fill-rule="evenodd" d="M532.7,233.4h4.7v-20h-4.7v20Z" class="g0_2" />
<path fill-rule="evenodd" d="M551.4,233.4h4.7v-20h-4.7v20Z" class="g0_2" />
<path fill-rule="evenodd" d="M570,233.4h4.7v-20H570v20Z" class="g0_2" />
<path fill-rule="evenodd" d="M588.7,233.4h4.7v-20h-4.7v20Z" class="g0_2" />
<path fill-rule="evenodd" d="M607.3,233.4H612v-20h-4.7v20Z" class="g0_2" />
<path fill-rule="evenodd" d="M626,233.4h4.7v-20H626v20Z" class="g0_2" />
<path fill-rule="evenodd" d="M644.6,233.4h4.7v-20h-4.7v20Z" class="g0_2" />
<path fill-rule="evenodd" d="M663.3,233.4H668v-20h-4.7v20Z" class="g0_2" />
<path fill-rule="evenodd" d="M681.9,233.4h4.7v-20h-4.7v20Z" class="g0_2" />
<path fill-rule="evenodd" d="M700.6,233.4h4.7v-20h-4.7v20Z" class="g0_2" />
<path fill-rule="evenodd" d="M719.2,233.4h4.7v-20h-4.7v20Z" class="g0_2" />
<path fill-rule="evenodd" d="M737.9,233.4h4.7v-20h-4.7v20Z" class="g0_2" />
<path fill-rule="evenodd" d="M756.5,233.4h4.7v-20h-4.7v20Z" class="g0_2" />
<path fill-rule="evenodd" d="M775.2,233.4h4.7v-20h-4.7v20Z" class="g0_2" />
<path fill-rule="evenodd" d="M793.8,233.4h46.7v-20H793.8v20Z" class="g0_2" />
<path fill-rule="evenodd" d="M43.3,241.2H840.5v-7.8H43.3v7.8Z" class="g0_2" />
<path fill-rule="evenodd" d="M43.3,261.1H183v-20H43.3v20Z" class="g0_2" />
<path fill-rule="evenodd" d="M197,261.1h4.7v-20H197v20Z" class="g0_2" />
<path fill-rule="evenodd" d="M215.6,261.1h4.7v-20h-4.7v20Z" class="g0_2" />
<path fill-rule="evenodd" d="M234.3,261.1H239v-20h-4.7v20Z" class="g0_2" />
<path fill-rule="evenodd" d="M252.9,261.1h4.7v-20h-4.7v20Z" class="g0_2" />
<path fill-rule="evenodd" d="M271.6,261.1h4.7v-20h-4.7v20Z" class="g0_2" />
<path fill-rule="evenodd" d="M290.2,261.1h4.7v-20h-4.7v20Z" class="g0_2" />
<path fill-rule="evenodd" d="M308.9,261.1h4.7v-20h-4.7v20Z" class="g0_2" />
<path fill-rule="evenodd" d="M327.5,261.1h4.7v-20h-4.7v20Z" class="g0_2" />
<path fill-rule="evenodd" d="M346.2,261.1h4.7v-20h-4.7v20Z" class="g0_2" />
<path fill-rule="evenodd" d="M364.8,261.1h4.7v-20h-4.7v20Z" class="g0_2" />
<path fill-rule="evenodd" d="M383.5,261.1h4.7v-20h-4.7v20Z" class="g0_2" />
<path fill-rule="evenodd" d="M402.1,261.1h4.7v-20h-4.7v20Z" class="g0_2" />
<path fill-rule="evenodd" d="M420.8,261.1h4.7v-20h-4.7v20Z" class="g0_2" />
<path fill-rule="evenodd" d="M439.4,261.1h4.7v-20h-4.7v20Z" class="g0_2" />
<path fill-rule="evenodd" d="M458.1,261.1h4.7v-20h-4.7v20Z" class="g0_2" />
<path fill-rule="evenodd" d="M476.7,261.1h4.8v-20h-4.8v20Z" class="g0_2" />
<path fill-rule="evenodd" d="M495.4,261.1h4.7v-20h-4.7v20Z" class="g0_2" />
<path fill-rule="evenodd" d="M514,261.1h4.8v-20H514v20Z" class="g0_2" />
<path fill-rule="evenodd" d="M532.7,261.1h4.7v-20h-4.7v20Z" class="g0_2" />
<path fill-rule="evenodd" d="M551.4,261.1h4.7v-20h-4.7v20Z" class="g0_2" />
<path fill-rule="evenodd" d="M570,261.1h4.7v-20H570v20Z" class="g0_2" />
<path fill-rule="evenodd" d="M588.7,261.1h4.7v-20h-4.7v20Z" class="g0_2" />
<path fill-rule="evenodd" d="M607.3,261.1H612v-20h-4.7v20Z" class="g0_2" />
<path fill-rule="evenodd" d="M626,261.1h4.7v-20H626v20Z" class="g0_2" />
<path fill-rule="evenodd" d="M644.6,261.1h4.7v-20h-4.7v20Z" class="g0_2" />
<path fill-rule="evenodd" d="M663.3,261.1H668v-20h-4.7v20Z" class="g0_2" />
<path fill-rule="evenodd" d="M681.9,261.1h4.7v-20h-4.7v20Z" class="g0_2" />
<path fill-rule="evenodd" d="M700.6,261.1h4.7v-20h-4.7v20Z" class="g0_2" />
<path fill-rule="evenodd" d="M719.2,261.1h4.7v-20h-4.7v20Z" class="g0_2" />
<path fill-rule="evenodd" d="M737.9,261.1h4.7v-20h-4.7v20Z" class="g0_2" />
<path fill-rule="evenodd" d="M756.5,261.1h4.7v-20h-4.7v20Z" class="g0_2" />
<path fill-rule="evenodd" d="M775.2,261.1h4.7v-20h-4.7v20Z" class="g0_2" />
<path fill-rule="evenodd" d="M793.8,261.1h46.7v-20H793.8v20Z" class="g0_2" />
<path fill-rule="evenodd" d="M43.3,268.9H840.5v-7.8H43.3v7.8Z" class="g0_2" />
<path fill-rule="evenodd" d="M43.3,288.9H145.7v-20H43.3v20Z" class="g0_2" />
<path fill-rule="evenodd" d="M159.7,288.9h4.7v-20h-4.7v20Z" class="g0_2" />
<path fill-rule="evenodd" d="M178.3,288.9H183v-20h-4.7v20Z" class="g0_2" />
<path fill-rule="evenodd" d="M197,288.9h4.7v-20H197v20Z" class="g0_2" />
<path fill-rule="evenodd" d="M215.6,288.9h4.7v-20h-4.7v20Z" class="g0_2" />
<path fill-rule="evenodd" d="M234.3,288.9H239v-20h-4.7v20Z" class="g0_2" />
<path fill-rule="evenodd" d="M252.9,288.9h4.7v-20h-4.7v20Z" class="g0_2" />
<path fill-rule="evenodd" d="M271.6,288.9h4.7v-20h-4.7v20Z" class="g0_2" />
<path fill-rule="evenodd" d="M290.2,288.9h4.7v-20h-4.7v20Z" class="g0_2" />
<path fill-rule="evenodd" d="M308.9,288.9h4.7v-20h-4.7v20Z" class="g0_2" />
<path fill-rule="evenodd" d="M327.5,288.9h4.7v-20h-4.7v20Z" class="g0_2" />
<path fill-rule="evenodd" d="M346.2,288.9h4.7v-20h-4.7v20Z" class="g0_2" />
<path fill-rule="evenodd" d="M364.8,288.9h4.7v-20h-4.7v20Z" class="g0_2" />
<path fill-rule="evenodd" d="M383.5,288.9h4.7v-20h-4.7v20Z" class="g0_2" />
<path fill-rule="evenodd" d="M402.1,288.9h4.7v-20h-4.7v20Z" class="g0_2" />
<path fill-rule="evenodd" d="M420.8,288.9h4.7v-20h-4.7v20Z" class="g0_2" />
<path fill-rule="evenodd" d="M439.4,288.9h4.7v-20h-4.7v20Z" class="g0_2" />
<path fill-rule="evenodd" d="M458.1,288.9h4.7v-20h-4.7v20Z" class="g0_2" />
<path fill-rule="evenodd" d="M476.7,288.9h4.8v-20h-4.8v20Z" class="g0_2" />
<path fill-rule="evenodd" d="M495.4,288.9h4.7v-20h-4.7v20Z" class="g0_2" />
<path fill-rule="evenodd" d="M514,288.9h4.8v-20H514v20Z" class="g0_2" />
<path fill-rule="evenodd" d="M532.7,288.9h4.7v-20h-4.7v20Z" class="g0_2" />
<path fill-rule="evenodd" d="M551.4,288.9h4.7v-20h-4.7v20Z" class="g0_2" />
<path fill-rule="evenodd" d="M570,288.9h4.7v-20H570v20Z" class="g0_2" />
<path fill-rule="evenodd" d="M588.7,288.9h4.7v-20h-4.7v20Z" class="g0_2" />
<path fill-rule="evenodd" d="M607.3,288.9H612v-20h-4.7v20Z" class="g0_2" />
<path fill-rule="evenodd" d="M626,288.9h4.7v-20H626v20Z" class="g0_2" />
<path fill-rule="evenodd" d="M644.6,288.9h4.7v-20h-4.7v20Z" class="g0_2" />
<path fill-rule="evenodd" d="M663.3,288.9H668v-20h-4.7v20Z" class="g0_2" />
<path fill-rule="evenodd" d="M681.9,288.9h4.7v-20h-4.7v20Z" class="g0_2" />
<path fill-rule="evenodd" d="M700.6,288.9h4.7v-20h-4.7v20Z" class="g0_2" />
<path fill-rule="evenodd" d="M719.2,288.9h4.7v-20h-4.7v20Z" class="g0_2" />
<path fill-rule="evenodd" d="M737.9,288.9h4.7v-20h-4.7v20Z" class="g0_2" />
<path fill-rule="evenodd" d="M756.5,288.9h4.7v-20h-4.7v20Z" class="g0_2" />
<path fill-rule="evenodd" d="M775.2,288.9h4.7v-20h-4.7v20Z" class="g0_2" />
<path fill-rule="evenodd" d="M793.8,288.9h46.7v-20H793.8v20Z" class="g0_2" />
<path fill-rule="evenodd" d="M43.3,296.7H840.5v-7.9H43.3v7.9Z" class="g0_2" />
<path fill-rule="evenodd" d="M43.3,316.7H89.8V296.6H43.3v20.1Z" class="g0_2" />
<path fill-rule="evenodd" d="M234.3,316.7h42V296.6h-42v20.1Z" class="g0_2" />
<path fill-rule="evenodd" d="M290.2,316.7h4.7V296.6h-4.7v20.1Z" class="g0_2" />
<path fill-rule="evenodd" d="M308.9,316.7h4.7V296.6h-4.7v20.1Z" class="g0_2" />
<path fill-rule="evenodd" d="M327.5,316.7h4.7V296.6h-4.7v20.1Z" class="g0_2" />
<path fill-rule="evenodd" d="M346.2,316.7h60.6V296.6H346.2v20.1Z" class="g0_2" />
<path fill-rule="evenodd" d="M420.8,316.7h4.7V296.6h-4.7v20.1Z" class="g0_2" />
<path fill-rule="evenodd" d="M439.4,316.7h4.7V296.6h-4.7v20.1Z" class="g0_2" />
<path fill-rule="evenodd" d="M458.1,316.7h4.7V296.6h-4.7v20.1Z" class="g0_2" />
<path fill-rule="evenodd" d="M476.7,316.7h60.7V296.6H476.7v20.1Z" class="g0_2" />
<path fill-rule="evenodd" d="M551.4,316.7h4.7V296.6h-4.7v20.1Z" class="g0_2" />
<path fill-rule="evenodd" d="M570,316.7h4.7V296.6H570v20.1Z" class="g0_2" />
<path fill-rule="evenodd" d="M588.7,316.7h4.7V296.6h-4.7v20.1Z" class="g0_2" />
<path fill-rule="evenodd" d="M607.3,316.7H612V296.6h-4.7v20.1Z" class="g0_2" />
<path fill-rule="evenodd" d="M719.2,316.7h4.7V296.6h-4.7v20.1Z" class="g0_2" />
<path fill-rule="evenodd" d="M737.9,316.7h4.7V296.6h-4.7v20.1Z" class="g0_2" />
<path fill-rule="evenodd" d="M756.5,316.7h4.7V296.6h-4.7v20.1Z" class="g0_2" />
<path fill-rule="evenodd" d="M775.2,316.7h4.7V296.6h-4.7v20.1Z" class="g0_2" />
<path fill-rule="evenodd" d="M793.8,316.7h46.7V296.6H793.8v20.1Z" class="g0_2" />
<path fill-rule="evenodd" d="M43.3,346.6H840.5v-30H43.3v30Z" class="g0_2" />
<path fill-rule="evenodd" d="M43.3,366.6H145.7V346.5H43.3v20.1Z" class="g0_2" />
<path fill-rule="evenodd" d="M159.7,366.6h4.7V346.5h-4.7v20.1Z" class="g0_2" />
<path fill-rule="evenodd" d="M178.3,366.6H183V346.5h-4.7v20.1Z" class="g0_2" />
<path fill-rule="evenodd" d="M197,366.6h4.7V346.5H197v20.1Z" class="g0_2" />
<path fill-rule="evenodd" d="M215.6,366.6h4.7V346.5h-4.7v20.1Z" class="g0_2" />
<path fill-rule="evenodd" d="M234.3,366.6H239V346.5h-4.7v20.1Z" class="g0_2" />
<path fill-rule="evenodd" d="M252.9,366.6h4.7V346.5h-4.7v20.1Z" class="g0_2" />
<path fill-rule="evenodd" d="M271.6,366.6h4.7V346.5h-4.7v20.1Z" class="g0_2" />
<path fill-rule="evenodd" d="M290.2,366.6h4.7V346.5h-4.7v20.1Z" class="g0_2" />
<path fill-rule="evenodd" d="M308.9,366.6h4.7V346.5h-4.7v20.1Z" class="g0_2" />
<path fill-rule="evenodd" d="M327.5,366.6h513V346.5h-513v20.1Z" class="g0_2" />
<path fill-rule="evenodd" d="M43.3,385.4H840.5V366.5H43.3v18.9Z" class="g0_2" />
<path fill-rule="evenodd" d="M43.3,405.4H668v-20H43.3v20Z" class="g0_2" />
<path fill-rule="evenodd" d="M681.9,405.4h98v-20h-98v20Z" class="g0_2" />
<path fill-rule="evenodd" d="M793.8,405.4h46.7v-20H793.8v20Z" class="g0_2" />
<path fill-rule="evenodd" d="M43.3,413.2H840.5v-7.8H43.3v7.8Z" class="g0_2" />
<path fill-rule="evenodd" d="M43.3,434.2H145.7V413.1H43.3v21.1Z" class="g0_2" />
<path fill-rule="evenodd" d="M159.7,434.2h4.7V413.1h-4.7v21.1Z" class="g0_2" />
<path fill-rule="evenodd" d="M178.3,434.2H183V413.1h-4.7v21.1Z" class="g0_2" />
<path fill-rule="evenodd" d="M197,434.2h4.7V413.1H197v21.1Z" class="g0_2" />
<path fill-rule="evenodd" d="M215.6,434.2h4.7V413.1h-4.7v21.1Z" class="g0_2" />
<path fill-rule="evenodd" d="M234.3,434.2H239V413.1h-4.7v21.1Z" class="g0_2" />
<path fill-rule="evenodd" d="M252.9,434.2h4.7V413.1h-4.7v21.1Z" class="g0_2" />
<path fill-rule="evenodd" d="M271.6,434.2h4.7V413.1h-4.7v21.1Z" class="g0_2" />
<path fill-rule="evenodd" d="M290.2,434.2h4.7V413.1h-4.7v21.1Z" class="g0_2" />
<path fill-rule="evenodd" d="M308.9,434.2h4.7V413.1h-4.7v21.1Z" class="g0_2" />
<path fill-rule="evenodd" d="M327.5,434.2h4.7V413.1h-4.7v21.1Z" class="g0_2" />
<path fill-rule="evenodd" d="M346.2,434.2h4.7V413.1h-4.7v21.1Z" class="g0_2" />
<path fill-rule="evenodd" d="M364.8,434.2h4.7V413.1h-4.7v21.1Z" class="g0_2" />
<path fill-rule="evenodd" d="M383.5,434.2h4.7V413.1h-4.7v21.1Z" class="g0_2" />
<path fill-rule="evenodd" d="M402.1,434.2h4.7V413.1h-4.7v21.1Z" class="g0_2" />
<path fill-rule="evenodd" d="M420.8,434.2h4.7V413.1h-4.7v21.1Z" class="g0_2" />
<path fill-rule="evenodd" d="M439.4,434.2h4.7V413.1h-4.7v21.1Z" class="g0_2" />
<path fill-rule="evenodd" d="M458.1,434.2h4.7V413.1h-4.7v21.1Z" class="g0_2" />
<path fill-rule="evenodd" d="M476.7,434.2h4.8V413.1h-4.8v21.1Z" class="g0_2" />
<path fill-rule="evenodd" d="M495.4,434.2h98V413.1h-98v21.1Z" class="g0_2" />
<path fill-rule="evenodd" d="M607.3,434.2H612V413.1h-4.7v21.1Z" class="g0_2" />
<path fill-rule="evenodd" d="M626,434.2h42V413.1H626v21.1Z" class="g0_2" />
<path fill-rule="evenodd" d="M681.9,434.2h4.7V413.1h-4.7v21.1Z" class="g0_2" />
<path fill-rule="evenodd" d="M700.6,434.2h23.3V413.1H700.6v21.1Z" class="g0_2" />
<path fill-rule="evenodd" d="M737.9,434.2h4.7V413.1h-4.7v21.1Z" class="g0_2" />
<path fill-rule="evenodd" d="M756.5,434.2h4.7V413.1h-4.7v21.1Z" class="g0_2" />
<path fill-rule="evenodd" d="M775.2,434.2h4.7V413.1h-4.7v21.1Z" class="g0_2" />
<path fill-rule="evenodd" d="M793.8,434.2h46.7V413.1H793.8v21.1Z" class="g0_2" />
<path fill-rule="evenodd" d="M43.3,442H840.5v-7.8H43.3V442Z" class="g0_2" />
<path fill-rule="evenodd" d="M43.3,463.1H145.7V442H43.3v21.1Z" class="g0_2" />
<path fill-rule="evenodd" d="M159.7,463.1h4.7V442h-4.7v21.1Z" class="g0_2" />
<path fill-rule="evenodd" d="M178.3,463.1H183V442h-4.7v21.1Z" class="g0_2" />
<path fill-rule="evenodd" d="M197,463.1h4.7V442H197v21.1Z" class="g0_2" />
<path fill-rule="evenodd" d="M215.6,463.1h4.7V442h-4.7v21.1Z" class="g0_2" />
<path fill-rule="evenodd" d="M234.3,463.1H239V442h-4.7v21.1Z" class="g0_2" />
<path fill-rule="evenodd" d="M252.9,463.1h4.7V442h-4.7v21.1Z" class="g0_2" />
<path fill-rule="evenodd" d="M271.6,463.1h4.7V442h-4.7v21.1Z" class="g0_2" />
<path fill-rule="evenodd" d="M290.2,463.1h4.7V442h-4.7v21.1Z" class="g0_2" />
<path fill-rule="evenodd" d="M308.9,463.1h4.7V442h-4.7v21.1Z" class="g0_2" />
<path fill-rule="evenodd" d="M327.5,463.1h4.7V442h-4.7v21.1Z" class="g0_2" />
<path fill-rule="evenodd" d="M346.2,463.1h4.7V442h-4.7v21.1Z" class="g0_2" />
<path fill-rule="evenodd" d="M364.8,463.1h4.7V442h-4.7v21.1Z" class="g0_2" />
<path fill-rule="evenodd" d="M383.5,463.1h4.7V442h-4.7v21.1Z" class="g0_2" />
<path fill-rule="evenodd" d="M402.1,463.1h4.7V442h-4.7v21.1Z" class="g0_2" />
<path fill-rule="evenodd" d="M420.8,463.1h4.7V442h-4.7v21.1Z" class="g0_2" />
<path fill-rule="evenodd" d="M439.4,463.1h4.7V442h-4.7v21.1Z" class="g0_2" />
<path fill-rule="evenodd" d="M458.1,463.1h4.7V442h-4.7v21.1Z" class="g0_2" />
<path fill-rule="evenodd" d="M476.7,463.1h4.8V442h-4.8v21.1Z" class="g0_2" />
<path fill-rule="evenodd" d="M495.4,463.1h4.7V442h-4.7v21.1Z" class="g0_2" />
<path fill-rule="evenodd" d="M514,463.1h4.8V442H514v21.1Z" class="g0_2" />
<path fill-rule="evenodd" d="M532.7,463.1h4.7V442h-4.7v21.1Z" class="g0_2" />
<path fill-rule="evenodd" d="M551.4,463.1h4.7V442h-4.7v21.1Z" class="g0_2" />
<path fill-rule="evenodd" d="M570,463.1h4.7V442H570v21.1Z" class="g0_2" />
<path fill-rule="evenodd" d="M588.7,463.1h4.7V442h-4.7v21.1Z" class="g0_2" />
<path fill-rule="evenodd" d="M607.3,463.1H612V442h-4.7v21.1Z" class="g0_2" />
<path fill-rule="evenodd" d="M626,463.1h4.7V442H626v21.1Z" class="g0_2" />
<path fill-rule="evenodd" d="M644.6,463.1h4.7V442h-4.7v21.1Z" class="g0_2" />
<path fill-rule="evenodd" d="M663.3,463.1H668V442h-4.7v21.1Z" class="g0_2" />
<path fill-rule="evenodd" d="M681.9,463.1h4.7V442h-4.7v21.1Z" class="g0_2" />
<path fill-rule="evenodd" d="M700.6,463.1h4.7V442h-4.7v21.1Z" class="g0_2" />
<path fill-rule="evenodd" d="M719.2,463.1h4.7V442h-4.7v21.1Z" class="g0_2" />
<path fill-rule="evenodd" d="M737.9,463.1h4.7V442h-4.7v21.1Z" class="g0_2" />
<path fill-rule="evenodd" d="M756.5,463.1h4.7V442h-4.7v21.1Z" class="g0_2" />
<path fill-rule="evenodd" d="M775.2,463.1h4.7V442h-4.7v21.1Z" class="g0_2" />
<path fill-rule="evenodd" d="M793.8,463.1h46.7V442H793.8v21.1Z" class="g0_2" />
<path fill-rule="evenodd" d="M43.3,470.8H840.5V463H43.3v7.8Z" class="g0_2" />
<path fill-rule="evenodd" d="M43.3,490.8H294.9v-20H43.3v20Z" class="g0_2" />
<path fill-rule="evenodd" d="M308.9,490.8h4.7v-20h-4.7v20Z" class="g0_2" />
<path fill-rule="evenodd" d="M327.5,490.8h4.7v-20h-4.7v20Z" class="g0_2" />
<path fill-rule="evenodd" d="M346.2,490.8h4.7v-20h-4.7v20Z" class="g0_2" />
<path fill-rule="evenodd" d="M364.8,490.8h4.7v-20h-4.7v20Z" class="g0_2" />
<path fill-rule="evenodd" d="M383.5,490.8h4.7v-20h-4.7v20Z" class="g0_2" />
<path fill-rule="evenodd" d="M402.1,490.8h4.7v-20h-4.7v20Z" class="g0_2" />
<path fill-rule="evenodd" d="M420.8,490.8h4.7v-20h-4.7v20Z" class="g0_2" />
<path fill-rule="evenodd" d="M439.4,490.8h4.7v-20h-4.7v20Z" class="g0_2" />
<path fill-rule="evenodd" d="M458.1,490.8h4.7v-20h-4.7v20Z" class="g0_2" />
<path fill-rule="evenodd" d="M476.7,490.8h4.8v-20h-4.8v20Z" class="g0_2" />
<path fill-rule="evenodd" d="M495.4,490.8h42v-20h-42v20Z" class="g0_2" />
<path fill-rule="evenodd" d="M551.4,490.8h4.7v-20h-4.7v20Z" class="g0_2" />
<path fill-rule="evenodd" d="M570,490.8h4.7v-20H570v20Z" class="g0_2" />
<path fill-rule="evenodd" d="M588.7,490.8h4.7v-20h-4.7v20Z" class="g0_2" />
<path fill-rule="evenodd" d="M607.3,490.8h23.4v-20H607.3v20Z" class="g0_2" />
<path fill-rule="evenodd" d="M644.6,490.8h4.7v-20h-4.7v20Z" class="g0_2" />
<path fill-rule="evenodd" d="M663.3,490.8H668v-20h-4.7v20Z" class="g0_2" />
<path fill-rule="evenodd" d="M681.9,490.8h4.7v-20h-4.7v20Z" class="g0_2" />
<path fill-rule="evenodd" d="M700.6,490.8h4.7v-20h-4.7v20Z" class="g0_2" />
<path fill-rule="evenodd" d="M719.2,490.8h4.7v-20h-4.7v20Z" class="g0_2" />
<path fill-rule="evenodd" d="M737.9,490.8h4.7v-20h-4.7v20Z" class="g0_2" />
<path fill-rule="evenodd" d="M756.5,490.8h4.7v-20h-4.7v20Z" class="g0_2" />
<path fill-rule="evenodd" d="M775.2,490.8h4.7v-20h-4.7v20Z" class="g0_2" />
<path fill-rule="evenodd" d="M793.8,490.8h46.7v-20H793.8v20Z" class="g0_2" />
<path fill-rule="evenodd" d="M43.3,499.7H840.5v-8.9H43.3v8.9Z" class="g0_2" />
<path fill-rule="evenodd" d="M43.3,520.7H164.4V499.6H43.3v21.1Z" class="g0_2" />
<path fill-rule="evenodd" d="M178.3,520.7H183V499.6h-4.7v21.1Z" class="g0_2" />
<path fill-rule="evenodd" d="M197,520.7h42V499.6H197v21.1Z" class="g0_2" />
<path fill-rule="evenodd" d="M252.9,520.7h4.7V499.6h-4.7v21.1Z" class="g0_2" />
<path fill-rule="evenodd" d="M271.6,520.7h23.3V499.6H271.6v21.1Z" class="g0_2" />
<path fill-rule="evenodd" d="M308.9,520.7h4.7V499.6h-4.7v21.1Z" class="g0_2" />
<path fill-rule="evenodd" d="M327.5,520.7h4.7V499.6h-4.7v21.1Z" class="g0_2" />
<path fill-rule="evenodd" d="M346.2,520.7h4.7V499.6h-4.7v21.1Z" class="g0_2" />
<path fill-rule="evenodd" d="M364.8,520.7h98V499.6h-98v21.1Z" class="g0_2" />
<path fill-rule="evenodd" d="M476.7,520.7h4.8V499.6h-4.8v21.1Z" class="g0_2" />
<path fill-rule="evenodd" d="M495.4,520.7h42V499.6h-42v21.1Z" class="g0_2" />
<path fill-rule="evenodd" d="M551.4,520.7h4.7V499.6h-4.7v21.1Z" class="g0_2" />
<path fill-rule="evenodd" d="M570,520.7h23.4V499.6H570v21.1Z" class="g0_2" />
<path fill-rule="evenodd" d="M607.3,520.7H612V499.6h-4.7v21.1Z" class="g0_2" />
<path fill-rule="evenodd" d="M626,520.7h4.7V499.6H626v21.1Z" class="g0_2" />
<path fill-rule="evenodd" d="M644.6,520.7h4.7V499.6h-4.7v21.1Z" class="g0_2" />
<path fill-rule="evenodd" d="M663.3,520.7H840.5V499.6H663.3v21.1Z" class="g0_2" />
<path fill-rule="evenodd" d="M43.3,526.3H840.5v-5.6H43.3v5.6Z" class="g0_2" />
<path fill-rule="evenodd" d="M43.3,547.3H183V526.2H43.3v21.1Z" class="g0_2" />
<path fill-rule="evenodd" d="M197,547.3h4.7V526.2H197v21.1Z" class="g0_2" />
<path fill-rule="evenodd" d="M215.6,547.3h4.7V526.2h-4.7v21.1Z" class="g0_2" />
<path fill-rule="evenodd" d="M234.3,547.3H239V526.2h-4.7v21.1Z" class="g0_2" />
<path fill-rule="evenodd" d="M252.9,547.3h4.7V526.2h-4.7v21.1Z" class="g0_2" />
<path fill-rule="evenodd" d="M271.6,547.3h4.7V526.2h-4.7v21.1Z" class="g0_2" />
<path fill-rule="evenodd" d="M290.2,547.3h4.7V526.2h-4.7v21.1Z" class="g0_2" />
<path fill-rule="evenodd" d="M308.9,547.3h4.7V526.2h-4.7v21.1Z" class="g0_2" />
<path fill-rule="evenodd" d="M327.5,547.3h4.7V526.2h-4.7v21.1Z" class="g0_2" />
<path fill-rule="evenodd" d="M346.2,547.3h4.7V526.2h-4.7v21.1Z" class="g0_2" />
<path fill-rule="evenodd" d="M364.8,547.3h4.7V526.2h-4.7v21.1Z" class="g0_2" />
<path fill-rule="evenodd" d="M383.5,547.3h4.7V526.2h-4.7v21.1Z" class="g0_2" />
<path fill-rule="evenodd" d="M402.1,547.3h4.7V526.2h-4.7v21.1Z" class="g0_2" />
<path fill-rule="evenodd" d="M420.8,547.3h4.7V526.2h-4.7v21.1Z" class="g0_2" />
<path fill-rule="evenodd" d="M439.4,547.3h4.7V526.2h-4.7v21.1Z" class="g0_2" />
<path fill-rule="evenodd" d="M458.1,547.3h4.7V526.2h-4.7v21.1Z" class="g0_2" />
<path fill-rule="evenodd" d="M476.7,547.3h4.8V526.2h-4.8v21.1Z" class="g0_2" />
<path fill-rule="evenodd" d="M495.4,547.3h4.7V526.2h-4.7v21.1Z" class="g0_2" />
<path fill-rule="evenodd" d="M514,547.3h4.8V526.2H514v21.1Z" class="g0_2" />
<path fill-rule="evenodd" d="M532.7,547.3h4.7V526.2h-4.7v21.1Z" class="g0_2" />
<path fill-rule="evenodd" d="M551.4,547.3h4.7V526.2h-4.7v21.1Z" class="g0_2" />
<path fill-rule="evenodd" d="M570,547.3h4.7V526.2H570v21.1Z" class="g0_2" />
<path fill-rule="evenodd" d="M588.7,547.3h4.7V526.2h-4.7v21.1Z" class="g0_2" />
<path fill-rule="evenodd" d="M607.3,547.3H612V526.2h-4.7v21.1Z" class="g0_2" />
<path fill-rule="evenodd" d="M626,547.3h4.7V526.2H626v21.1Z" class="g0_2" />
<path fill-rule="evenodd" d="M644.6,547.3h4.7V526.2h-4.7v21.1Z" class="g0_2" />
<path fill-rule="evenodd" d="M663.3,547.3H668V526.2h-4.7v21.1Z" class="g0_2" />
<path fill-rule="evenodd" d="M681.9,547.3h4.7V526.2h-4.7v21.1Z" class="g0_2" />
<path fill-rule="evenodd" d="M700.6,547.3h4.7V526.2h-4.7v21.1Z" class="g0_2" />
<path fill-rule="evenodd" d="M719.2,547.3h4.7V526.2h-4.7v21.1Z" class="g0_2" />
<path fill-rule="evenodd" d="M737.9,547.3h4.7V526.2h-4.7v21.1Z" class="g0_2" />
<path fill-rule="evenodd" d="M756.5,547.3h4.7V526.2h-4.7v21.1Z" class="g0_2" />
<path fill-rule="evenodd" d="M775.2,547.3h4.7V526.2h-4.7v21.1Z" class="g0_2" />
<path fill-rule="evenodd" d="M793.8,547.3h46.7V526.2H793.8v21.1Z" class="g0_2" />
<path fill-rule="evenodd" d="M43.3,555.1H840.5v-7.8H43.3v7.8Z" class="g0_2" />
<path fill-rule="evenodd" d="M43.3,575.1H145.7v-20H43.3v20Z" class="g0_2" />
<path fill-rule="evenodd" d="M159.7,575.1h4.7v-20h-4.7v20Z" class="g0_2" />
<path fill-rule="evenodd" d="M178.3,575.1H183v-20h-4.7v20Z" class="g0_2" />
<path fill-rule="evenodd" d="M197,575.1h4.7v-20H197v20Z" class="g0_2" />
<path fill-rule="evenodd" d="M215.6,575.1h4.7v-20h-4.7v20Z" class="g0_2" />
<path fill-rule="evenodd" d="M234.3,575.1H239v-20h-4.7v20Z" class="g0_2" />
<path fill-rule="evenodd" d="M252.9,575.1h4.7v-20h-4.7v20Z" class="g0_2" />
<path fill-rule="evenodd" d="M271.6,575.1h4.7v-20h-4.7v20Z" class="g0_2" />
<path fill-rule="evenodd" d="M290.2,575.1h4.7v-20h-4.7v20Z" class="g0_2" />
<path fill-rule="evenodd" d="M308.9,575.1h4.7v-20h-4.7v20Z" class="g0_2" />
<path fill-rule="evenodd" d="M327.5,575.1h4.7v-20h-4.7v20Z" class="g0_2" />
<path fill-rule="evenodd" d="M346.2,575.1h4.7v-20h-4.7v20Z" class="g0_2" />
<path fill-rule="evenodd" d="M364.8,575.1h4.7v-20h-4.7v20Z" class="g0_2" />
<path fill-rule="evenodd" d="M383.5,575.1h4.7v-20h-4.7v20Z" class="g0_2" />
<path fill-rule="evenodd" d="M402.1,575.1h4.7v-20h-4.7v20Z" class="g0_2" />
<path fill-rule="evenodd" d="M420.8,575.1h4.7v-20h-4.7v20Z" class="g0_2" />
<path fill-rule="evenodd" d="M439.4,575.1h4.7v-20h-4.7v20Z" class="g0_2" />
<path fill-rule="evenodd" d="M458.1,575.1h4.7v-20h-4.7v20Z" class="g0_2" />
<path fill-rule="evenodd" d="M476.7,575.1h4.8v-20h-4.8v20Z" class="g0_2" />
<path fill-rule="evenodd" d="M495.4,575.1h4.7v-20h-4.7v20Z" class="g0_2" />
<path fill-rule="evenodd" d="M514,575.1h4.8v-20H514v20Z" class="g0_2" />
<path fill-rule="evenodd" d="M532.7,575.1h4.7v-20h-4.7v20Z" class="g0_2" />
<path fill-rule="evenodd" d="M551.4,575.1h4.7v-20h-4.7v20Z" class="g0_2" />
<path fill-rule="evenodd" d="M570,575.1h4.7v-20H570v20Z" class="g0_2" />
<path fill-rule="evenodd" d="M588.7,575.1h4.7v-20h-4.7v20Z" class="g0_2" />
<path fill-rule="evenodd" d="M607.3,575.1H612v-20h-4.7v20Z" class="g0_2" />
<path fill-rule="evenodd" d="M626,575.1h4.7v-20H626v20Z" class="g0_2" />
<path fill-rule="evenodd" d="M644.6,575.1h4.7v-20h-4.7v20Z" class="g0_2" />
<path fill-rule="evenodd" d="M663.3,575.1H668v-20h-4.7v20Z" class="g0_2" />
<path fill-rule="evenodd" d="M681.9,575.1h4.7v-20h-4.7v20Z" class="g0_2" />
<path fill-rule="evenodd" d="M700.6,575.1h4.7v-20h-4.7v20Z" class="g0_2" />
<path fill-rule="evenodd" d="M719.2,575.1h4.7v-20h-4.7v20Z" class="g0_2" />
<path fill-rule="evenodd" d="M737.9,575.1h4.7v-20h-4.7v20Z" class="g0_2" />
<path fill-rule="evenodd" d="M756.5,575.1h4.7v-20h-4.7v20Z" class="g0_2" />
<path fill-rule="evenodd" d="M775.2,575.1h4.7v-20h-4.7v20Z" class="g0_2" />
<path fill-rule="evenodd" d="M793.8,575.1h46.7v-20H793.8v20Z" class="g0_2" />
<path fill-rule="evenodd" d="M43.3,584H840.5v-9H43.3v9Z" class="g0_2" />
<path fill-rule="evenodd" d="M43.3,603.9H183v-20H43.3v20Z" class="g0_2" />
<path fill-rule="evenodd" d="M197,603.9h4.7v-20H197v20Z" class="g0_2" />
<path fill-rule="evenodd" d="M215.6,603.9h4.7v-20h-4.7v20Z" class="g0_2" />
<path fill-rule="evenodd" d="M234.3,603.9H239v-20h-4.7v20Z" class="g0_2" />
<path fill-rule="evenodd" d="M252.9,603.9h4.7v-20h-4.7v20Z" class="g0_2" />
<path fill-rule="evenodd" d="M271.6,603.9h4.7v-20h-4.7v20Z" class="g0_2" />
<path fill-rule="evenodd" d="M290.2,603.9h4.7v-20h-4.7v20Z" class="g0_2" />
<path fill-rule="evenodd" d="M308.9,603.9h4.7v-20h-4.7v20Z" class="g0_2" />
<path fill-rule="evenodd" d="M327.5,603.9h4.7v-20h-4.7v20Z" class="g0_2" />
<path fill-rule="evenodd" d="M346.2,603.9h4.7v-20h-4.7v20Z" class="g0_2" />
<path fill-rule="evenodd" d="M364.8,603.9h4.7v-20h-4.7v20Z" class="g0_2" />
<path fill-rule="evenodd" d="M383.5,603.9h4.7v-20h-4.7v20Z" class="g0_2" />
<path fill-rule="evenodd" d="M402.1,603.9h4.7v-20h-4.7v20Z" class="g0_2" />
<path fill-rule="evenodd" d="M420.8,603.9h4.7v-20h-4.7v20Z" class="g0_2" />
<path fill-rule="evenodd" d="M439.4,603.9h4.7v-20h-4.7v20Z" class="g0_2" />
<path fill-rule="evenodd" d="M458.1,603.9h4.7v-20h-4.7v20Z" class="g0_2" />
<path fill-rule="evenodd" d="M476.7,603.9h4.8v-20h-4.8v20Z" class="g0_2" />
<path fill-rule="evenodd" d="M495.4,603.9h4.7v-20h-4.7v20Z" class="g0_2" />
<path fill-rule="evenodd" d="M514,603.9h4.8v-20H514v20Z" class="g0_2" />
<path fill-rule="evenodd" d="M532.7,603.9h4.7v-20h-4.7v20Z" class="g0_2" />
<path fill-rule="evenodd" d="M551.4,603.9h4.7v-20h-4.7v20Z" class="g0_2" />
<path fill-rule="evenodd" d="M570,603.9h4.7v-20H570v20Z" class="g0_2" />
<path fill-rule="evenodd" d="M588.7,603.9h4.7v-20h-4.7v20Z" class="g0_2" />
<path fill-rule="evenodd" d="M607.3,603.9H612v-20h-4.7v20Z" class="g0_2" />
<path fill-rule="evenodd" d="M626,603.9h4.7v-20H626v20Z" class="g0_2" />
<path fill-rule="evenodd" d="M644.6,603.9h4.7v-20h-4.7v20Z" class="g0_2" />
<path fill-rule="evenodd" d="M663.3,603.9H668v-20h-4.7v20Z" class="g0_2" />
<path fill-rule="evenodd" d="M681.9,603.9h4.7v-20h-4.7v20Z" class="g0_2" />
<path fill-rule="evenodd" d="M700.6,603.9h4.7v-20h-4.7v20Z" class="g0_2" />
<path fill-rule="evenodd" d="M719.2,603.9h4.7v-20h-4.7v20Z" class="g0_2" />
<path fill-rule="evenodd" d="M737.9,603.9h4.7v-20h-4.7v20Z" class="g0_2" />
<path fill-rule="evenodd" d="M756.5,603.9h4.7v-20h-4.7v20Z" class="g0_2" />
<path fill-rule="evenodd" d="M775.2,603.9h4.7v-20h-4.7v20Z" class="g0_2" />
<path fill-rule="evenodd" d="M793.8,603.9h46.7v-20H793.8v20Z" class="g0_2" />
<path fill-rule="evenodd" d="M43.3,611.7H840.5v-7.8H43.3v7.8Z" class="g0_2" />
<path fill-rule="evenodd" d="M43.3,631.7H145.7V611.6H43.3v20.1Z" class="g0_2" />
<path fill-rule="evenodd" d="M159.7,631.7h4.7V611.6h-4.7v20.1Z" class="g0_2" />
<path fill-rule="evenodd" d="M178.3,631.7H183V611.6h-4.7v20.1Z" class="g0_2" />
<path fill-rule="evenodd" d="M197,631.7h4.7V611.6H197v20.1Z" class="g0_2" />
<path fill-rule="evenodd" d="M215.6,631.7h4.7V611.6h-4.7v20.1Z" class="g0_2" />
<path fill-rule="evenodd" d="M234.3,631.7H239V611.6h-4.7v20.1Z" class="g0_2" />
<path fill-rule="evenodd" d="M252.9,631.7h4.7V611.6h-4.7v20.1Z" class="g0_2" />
<path fill-rule="evenodd" d="M271.6,631.7h4.7V611.6h-4.7v20.1Z" class="g0_2" />
<path fill-rule="evenodd" d="M290.2,631.7h4.7V611.6h-4.7v20.1Z" class="g0_2" />
<path fill-rule="evenodd" d="M308.9,631.7h4.7V611.6h-4.7v20.1Z" class="g0_2" />
<path fill-rule="evenodd" d="M327.5,631.7h4.7V611.6h-4.7v20.1Z" class="g0_2" />
<path fill-rule="evenodd" d="M346.2,631.7h4.7V611.6h-4.7v20.1Z" class="g0_2" />
<path fill-rule="evenodd" d="M364.8,631.7h4.7V611.6h-4.7v20.1Z" class="g0_2" />
<path fill-rule="evenodd" d="M383.5,631.7h4.7V611.6h-4.7v20.1Z" class="g0_2" />
<path fill-rule="evenodd" d="M402.1,631.7h4.7V611.6h-4.7v20.1Z" class="g0_2" />
<path fill-rule="evenodd" d="M420.8,631.7h4.7V611.6h-4.7v20.1Z" class="g0_2" />
<path fill-rule="evenodd" d="M439.4,631.7h4.7V611.6h-4.7v20.1Z" class="g0_2" />
<path fill-rule="evenodd" d="M458.1,631.7h4.7V611.6h-4.7v20.1Z" class="g0_2" />
<path fill-rule="evenodd" d="M476.7,631.7h4.8V611.6h-4.8v20.1Z" class="g0_2" />
<path fill-rule="evenodd" d="M495.4,631.7h4.7V611.6h-4.7v20.1Z" class="g0_2" />
<path fill-rule="evenodd" d="M514,631.7h4.8V611.6H514v20.1Z" class="g0_2" />
<path fill-rule="evenodd" d="M532.7,631.7h4.7V611.6h-4.7v20.1Z" class="g0_2" />
<path fill-rule="evenodd" d="M551.4,631.7h4.7V611.6h-4.7v20.1Z" class="g0_2" />
<path fill-rule="evenodd" d="M570,631.7h4.7V611.6H570v20.1Z" class="g0_2" />
<path fill-rule="evenodd" d="M588.7,631.7h4.7V611.6h-4.7v20.1Z" class="g0_2" />
<path fill-rule="evenodd" d="M607.3,631.7H612V611.6h-4.7v20.1Z" class="g0_2" />
<path fill-rule="evenodd" d="M626,631.7h4.7V611.6H626v20.1Z" class="g0_2" />
<path fill-rule="evenodd" d="M644.6,631.7h4.7V611.6h-4.7v20.1Z" class="g0_2" />
<path fill-rule="evenodd" d="M663.3,631.7H668V611.6h-4.7v20.1Z" class="g0_2" />
<path fill-rule="evenodd" d="M681.9,631.7h4.7V611.6h-4.7v20.1Z" class="g0_2" />
<path fill-rule="evenodd" d="M700.6,631.7h4.7V611.6h-4.7v20.1Z" class="g0_2" />
<path fill-rule="evenodd" d="M719.2,631.7h4.7V611.6h-4.7v20.1Z" class="g0_2" />
<path fill-rule="evenodd" d="M737.9,631.7h4.7V611.6h-4.7v20.1Z" class="g0_2" />
<path fill-rule="evenodd" d="M756.5,631.7h4.7V611.6h-4.7v20.1Z" class="g0_2" />
<path fill-rule="evenodd" d="M775.2,631.7h4.7V611.6h-4.7v20.1Z" class="g0_2" />
<path fill-rule="evenodd" d="M793.8,631.7h46.7V611.6H793.8v20.1Z" class="g0_2" />
<path fill-rule="evenodd" d="M43.3,639.4H840.5v-7.8H43.3v7.8Z" class="g0_2" />
<path fill-rule="evenodd" d="M43.3,659.4h83.8v-20H43.3v20Z" class="g0_2" />
<path fill-rule="evenodd" d="M141,659.4h4.7v-20H141v20Z" class="g0_2" />
<path fill-rule="evenodd" d="M159.7,659.4h4.7v-20h-4.7v20Z" class="g0_2" />
<path fill-rule="evenodd" d="M178.3,659.4H183v-20h-4.7v20Z" class="g0_2" />
<path fill-rule="evenodd" d="M197,659.4h42v-20H197v20Z" class="g0_2" />
<path fill-rule="evenodd" d="M252.9,659.4h4.7v-20h-4.7v20Z" class="g0_2" />
<path fill-rule="evenodd" d="M271.6,659.4h4.7v-20h-4.7v20Z" class="g0_2" />
<path fill-rule="evenodd" d="M290.2,659.4h4.7v-20h-4.7v20Z" class="g0_2" />
<path fill-rule="evenodd" d="M308.9,659.4h60.6v-20H308.9v20Z" class="g0_2" />
<path fill-rule="evenodd" d="M383.5,659.4h4.7v-20h-4.7v20Z" class="g0_2" />
<path fill-rule="evenodd" d="M402.1,659.4h4.7v-20h-4.7v20Z" class="g0_2" />
<path fill-rule="evenodd" d="M420.8,659.4h4.7v-20h-4.7v20Z" class="g0_2" />
<path fill-rule="evenodd" d="M439.4,659.4h60.7v-20H439.4v20Z" class="g0_2" />
<path fill-rule="evenodd" d="M514,659.4h4.8v-20H514v20Z" class="g0_2" />
<path fill-rule="evenodd" d="M532.7,659.4h4.7v-20h-4.7v20Z" class="g0_2" />
<path fill-rule="evenodd" d="M551.4,659.4h4.7v-20h-4.7v20Z" class="g0_2" />
<path fill-rule="evenodd" d="M570,659.4h42v-20H570v20Z" class="g0_2" />
<path fill-rule="evenodd" d="M626,659.4h4.7v-20H626v20Z" class="g0_2" />
<path fill-rule="evenodd" d="M644.6,659.4h4.7v-20h-4.7v20Z" class="g0_2" />
<path fill-rule="evenodd" d="M663.3,659.4H668v-20h-4.7v20Z" class="g0_2" />
<path fill-rule="evenodd" d="M681.9,659.4h4.7v-20h-4.7v20Z" class="g0_2" />
<path fill-rule="evenodd" d="M700.6,659.4h4.7v-20h-4.7v20Z" class="g0_2" />
<path fill-rule="evenodd" d="M719.2,659.4h4.7v-20h-4.7v20Z" class="g0_2" />
<path fill-rule="evenodd" d="M737.9,659.4h4.7v-20h-4.7v20Z" class="g0_2" />
<path fill-rule="evenodd" d="M756.5,659.4h4.7v-20h-4.7v20Z" class="g0_2" />
<path fill-rule="evenodd" d="M775.2,659.4h4.7v-20h-4.7v20Z" class="g0_2" />
<path fill-rule="evenodd" d="M793.8,659.4h46.7v-20H793.8v20Z" class="g0_2" />
<path fill-rule="evenodd" d="M43.3,667.2H840.5v-7.8H43.3v7.8Z" class="g0_2" />
<path fill-rule="evenodd" d="M43.3,687.2H164.4v-20H43.3v20Z" class="g0_2" />
<path fill-rule="evenodd" d="M178.3,687.2H183v-20h-4.7v20Z" class="g0_2" />
<path fill-rule="evenodd" d="M197,687.2h4.7v-20H197v20Z" class="g0_2" />
<path fill-rule="evenodd" d="M215.6,687.2h4.7v-20h-4.7v20Z" class="g0_2" />
<path fill-rule="evenodd" d="M234.3,687.2H239v-20h-4.7v20Z" class="g0_2" />
<path fill-rule="evenodd" d="M252.9,687.2h4.7v-20h-4.7v20Z" class="g0_2" />
<path fill-rule="evenodd" d="M271.6,687.2h4.7v-20h-4.7v20Z" class="g0_2" />
<path fill-rule="evenodd" d="M290.2,687.2h4.7v-20h-4.7v20Z" class="g0_2" />
<path fill-rule="evenodd" d="M308.9,687.2h4.7v-20h-4.7v20Z" class="g0_2" />
<path fill-rule="evenodd" d="M327.5,687.2h4.7v-20h-4.7v20Z" class="g0_2" />
<path fill-rule="evenodd" d="M346.2,687.2h4.7v-20h-4.7v20Z" class="g0_2" />
<path fill-rule="evenodd" d="M364.8,687.2h4.7v-20h-4.7v20Z" class="g0_2" />
<path fill-rule="evenodd" d="M383.5,687.2h4.7v-20h-4.7v20Z" class="g0_2" />
<path fill-rule="evenodd" d="M402.1,687.2h4.7v-20h-4.7v20Z" class="g0_2" />
<path fill-rule="evenodd" d="M420.8,687.2h4.7v-20h-4.7v20Z" class="g0_2" />
<path fill-rule="evenodd" d="M439.4,687.2h4.7v-20h-4.7v20Z" class="g0_2" />
<path fill-rule="evenodd" d="M458.1,687.2h4.7v-20h-4.7v20Z" class="g0_2" />
<path fill-rule="evenodd" d="M476.7,687.2h4.8v-20h-4.8v20Z" class="g0_2" />
<path fill-rule="evenodd" d="M495.4,687.2h4.7v-20h-4.7v20Z" class="g0_2" />
<path fill-rule="evenodd" d="M514,687.2h4.8v-20H514v20Z" class="g0_2" />
<path fill-rule="evenodd" d="M532.7,687.2h4.7v-20h-4.7v20Z" class="g0_2" />
<path fill-rule="evenodd" d="M551.4,687.2h4.7v-20h-4.7v20Z" class="g0_2" />
<path fill-rule="evenodd" d="M570,687.2h4.7v-20H570v20Z" class="g0_2" />
<path fill-rule="evenodd" d="M588.7,687.2h4.7v-20h-4.7v20Z" class="g0_2" />
<path fill-rule="evenodd" d="M607.3,687.2h23.4v-20H607.3v20Z" class="g0_2" />
<path fill-rule="evenodd" d="M793.8,687.2h46.7v-20H793.8v20Z" class="g0_2" />
<path fill-rule="evenodd" d="M43.3,694.9H630.7v-7.8H43.3v7.8Z" class="g0_2" />
<path fill-rule="evenodd" d="M793.8,694.9h46.7v-7.8H793.8v7.8Z" class="g0_2" />
<path fill-rule="evenodd" d="M43.3,714.9H89.8v-20H43.3v20Z" class="g0_2" />
<path fill-rule="evenodd" d="M103.7,714.9h4.7v-20h-4.7v20Z" class="g0_2" />
<path fill-rule="evenodd" d="M122.4,714.9h4.7v-20h-4.7v20Z" class="g0_2" />
<path fill-rule="evenodd" d="M141,714.9h4.7v-20H141v20Z" class="g0_2" />
<path fill-rule="evenodd" d="M159.7,714.9h4.7v-20h-4.7v20Z" class="g0_2" />
<path fill-rule="evenodd" d="M178.3,714.9H183v-20h-4.7v20Z" class="g0_2" />
<path fill-rule="evenodd" d="M197,714.9h4.7v-20H197v20Z" class="g0_2" />
<path fill-rule="evenodd" d="M215.6,714.9h4.7v-20h-4.7v20Z" class="g0_2" />
<path fill-rule="evenodd" d="M234.3,714.9H239v-20h-4.7v20Z" class="g0_2" />
<path fill-rule="evenodd" d="M252.9,714.9h4.7v-20h-4.7v20Z" class="g0_2" />
<path fill-rule="evenodd" d="M271.6,714.9h4.7v-20h-4.7v20Z" class="g0_2" />
<path fill-rule="evenodd" d="M290.2,714.9h4.7v-20h-4.7v20Z" class="g0_2" />
<path fill-rule="evenodd" d="M308.9,714.9h4.7v-20h-4.7v20Z" class="g0_2" />
<path fill-rule="evenodd" d="M327.5,714.9h4.7v-20h-4.7v20Z" class="g0_2" />
<path fill-rule="evenodd" d="M346.2,714.9h4.7v-20h-4.7v20Z" class="g0_2" />
<path fill-rule="evenodd" d="M364.8,714.9h4.7v-20h-4.7v20Z" class="g0_2" />
<path fill-rule="evenodd" d="M383.5,714.9h4.7v-20h-4.7v20Z" class="g0_2" />
<path fill-rule="evenodd" d="M402.1,714.9h4.7v-20h-4.7v20Z" class="g0_2" />
<path fill-rule="evenodd" d="M420.8,714.9h4.7v-20h-4.7v20Z" class="g0_2" />
<path fill-rule="evenodd" d="M439.4,714.9h4.7v-20h-4.7v20Z" class="g0_2" />
<path fill-rule="evenodd" d="M458.1,714.9h4.7v-20h-4.7v20Z" class="g0_2" />
<path fill-rule="evenodd" d="M476.7,714.9h4.8v-20h-4.8v20Z" class="g0_2" />
<path fill-rule="evenodd" d="M495.4,714.9h4.7v-20h-4.7v20Z" class="g0_2" />
<path fill-rule="evenodd" d="M514,714.9h4.8v-20H514v20Z" class="g0_2" />
<path fill-rule="evenodd" d="M532.7,714.9h4.7v-20h-4.7v20Z" class="g0_2" />
<path fill-rule="evenodd" d="M551.4,714.9h4.7v-20h-4.7v20Z" class="g0_2" />
<path fill-rule="evenodd" d="M570,714.9h4.7v-20H570v20Z" class="g0_2" />
<path fill-rule="evenodd" d="M588.7,714.9h4.7v-20h-4.7v20Z" class="g0_2" />
<path fill-rule="evenodd" d="M607.3,714.9h23.4v-20H607.3v20Z" class="g0_2" />
<path fill-rule="evenodd" d="M793.8,714.9h46.7v-20H793.8v20Z" class="g0_2" />
<path fill-rule="evenodd" d="M43.3,722.7H630.7v-7.8H43.3v7.8Z" class="g0_2" />
<path fill-rule="evenodd" d="M793.8,722.7h46.7v-7.8H793.8v7.8Z" class="g0_2" />
<path fill-rule="evenodd" d="M43.3,742.7H164.4v-20H43.3v20Z" class="g0_2" />
<path fill-rule="evenodd" d="M178.3,742.7H183v-20h-4.7v20Z" class="g0_2" />
<path fill-rule="evenodd" d="M197,742.7h4.7v-20H197v20Z" class="g0_2" />
<path fill-rule="evenodd" d="M215.6,742.7h4.7v-20h-4.7v20Z" class="g0_2" />
<path fill-rule="evenodd" d="M234.3,742.7H239v-20h-4.7v20Z" class="g0_2" />
<path fill-rule="evenodd" d="M252.9,742.7h4.7v-20h-4.7v20Z" class="g0_2" />
<path fill-rule="evenodd" d="M271.6,742.7h4.7v-20h-4.7v20Z" class="g0_2" />
<path fill-rule="evenodd" d="M290.2,742.7h4.7v-20h-4.7v20Z" class="g0_2" />
<path fill-rule="evenodd" d="M308.9,742.7h4.7v-20h-4.7v20Z" class="g0_2" />
<path fill-rule="evenodd" d="M327.5,742.7h4.7v-20h-4.7v20Z" class="g0_2" />
<path fill-rule="evenodd" d="M346.2,742.7h4.7v-20h-4.7v20Z" class="g0_2" />
<path fill-rule="evenodd" d="M364.8,742.7h4.7v-20h-4.7v20Z" class="g0_2" />
<path fill-rule="evenodd" d="M383.5,742.7h4.7v-20h-4.7v20Z" class="g0_2" />
<path fill-rule="evenodd" d="M402.1,742.7h4.7v-20h-4.7v20Z" class="g0_2" />
<path fill-rule="evenodd" d="M420.8,742.7h4.7v-20h-4.7v20Z" class="g0_2" />
<path fill-rule="evenodd" d="M439.4,742.7h4.7v-20h-4.7v20Z" class="g0_2" />
<path fill-rule="evenodd" d="M458.1,742.7h4.7v-20h-4.7v20Z" class="g0_2" />
<path fill-rule="evenodd" d="M476.7,742.7h4.8v-20h-4.8v20Z" class="g0_2" />
<path fill-rule="evenodd" d="M495.4,742.7h4.7v-20h-4.7v20Z" class="g0_2" />
<path fill-rule="evenodd" d="M514,742.7h4.8v-20H514v20Z" class="g0_2" />
<path fill-rule="evenodd" d="M532.7,742.7h4.7v-20h-4.7v20Z" class="g0_2" />
<path fill-rule="evenodd" d="M551.4,742.7h4.7v-20h-4.7v20Z" class="g0_2" />
<path fill-rule="evenodd" d="M570,742.7h4.7v-20H570v20Z" class="g0_2" />
<path fill-rule="evenodd" d="M588.7,742.7h4.7v-20h-4.7v20Z" class="g0_2" />
<path fill-rule="evenodd" d="M607.3,742.7h23.4v-20H607.3v20Z" class="g0_2" />
<path fill-rule="evenodd" d="M793.8,742.7h46.7v-20H793.8v20Z" class="g0_2" />
<path fill-rule="evenodd" d="M43.3,747.1H630.7v-4.4H43.3v4.4Z" class="g0_2" />
<path fill-rule="evenodd" d="M793.8,747.1h46.7v-4.4H793.8v4.4Z" class="g0_2" />
<path fill-rule="evenodd" d="M43.3,767.1H89.8v-20H43.3v20Z" class="g0_2" />
<path fill-rule="evenodd" d="M103.7,767.1h4.7v-20h-4.7v20Z" class="g0_2" />
<path fill-rule="evenodd" d="M122.4,767.1h4.7v-20h-4.7v20Z" class="g0_2" />
<path fill-rule="evenodd" d="M141,767.1h4.7v-20H141v20Z" class="g0_2" />
<path fill-rule="evenodd" d="M159.7,767.1h4.7v-20h-4.7v20Z" class="g0_2" />
<path fill-rule="evenodd" d="M178.3,767.1H183v-20h-4.7v20Z" class="g0_2" />
<path fill-rule="evenodd" d="M197,767.1h4.7v-20H197v20Z" class="g0_2" />
<path fill-rule="evenodd" d="M215.6,767.1h4.7v-20h-4.7v20Z" class="g0_2" />
<path fill-rule="evenodd" d="M234.3,767.1H239v-20h-4.7v20Z" class="g0_2" />
<path fill-rule="evenodd" d="M252.9,767.1h4.7v-20h-4.7v20Z" class="g0_2" />
<path fill-rule="evenodd" d="M271.6,767.1h4.7v-20h-4.7v20Z" class="g0_2" />
<path fill-rule="evenodd" d="M290.2,767.1h4.7v-20h-4.7v20Z" class="g0_2" />
<path fill-rule="evenodd" d="M308.9,767.1h4.7v-20h-4.7v20Z" class="g0_2" />
<path fill-rule="evenodd" d="M327.5,767.1h4.7v-20h-4.7v20Z" class="g0_2" />
<path fill-rule="evenodd" d="M346.2,767.1h4.7v-20h-4.7v20Z" class="g0_2" />
<path fill-rule="evenodd" d="M364.8,767.1h4.7v-20h-4.7v20Z" class="g0_2" />
<path fill-rule="evenodd" d="M383.5,767.1h4.7v-20h-4.7v20Z" class="g0_2" />
<path fill-rule="evenodd" d="M402.1,767.1h4.7v-20h-4.7v20Z" class="g0_2" />
<path fill-rule="evenodd" d="M420.8,767.1h4.7v-20h-4.7v20Z" class="g0_2" />
<path fill-rule="evenodd" d="M439.4,767.1h4.7v-20h-4.7v20Z" class="g0_2" />
<path fill-rule="evenodd" d="M458.1,767.1h4.7v-20h-4.7v20Z" class="g0_2" />
<path fill-rule="evenodd" d="M476.7,767.1h4.8v-20h-4.8v20Z" class="g0_2" />
<path fill-rule="evenodd" d="M495.4,767.1h4.7v-20h-4.7v20Z" class="g0_2" />
<path fill-rule="evenodd" d="M514,767.1h4.8v-20H514v20Z" class="g0_2" />
<path fill-rule="evenodd" d="M532.7,767.1h4.7v-20h-4.7v20Z" class="g0_2" />
<path fill-rule="evenodd" d="M551.4,767.1h4.7v-20h-4.7v20Z" class="g0_2" />
<path fill-rule="evenodd" d="M570,767.1h4.7v-20H570v20Z" class="g0_2" />
<path fill-rule="evenodd" d="M588.7,767.1h4.7v-20h-4.7v20Z" class="g0_2" />
<path fill-rule="evenodd" d="M607.3,767.1h23.4v-20H607.3v20Z" class="g0_2" />
<path fill-rule="evenodd" d="M793.8,767.1h46.7v-20H793.8v20Z" class="g0_2" />
<path fill-rule="evenodd" d="M43.3,774.9H630.7v-7.8H43.3v7.8Z" class="g0_2" />
<path fill-rule="evenodd" d="M793.8,774.9h46.7v-7.8H793.8v7.8Z" class="g0_2" />
<path fill-rule="evenodd" d="M43.3,794.9h83.8V774.8H43.3v20.1Z" class="g0_2" />
<path fill-rule="evenodd" d="M141,794.9h4.7V774.8H141v20.1Z" class="g0_2" />
<path fill-rule="evenodd" d="M159.7,794.9h4.7V774.8h-4.7v20.1Z" class="g0_2" />
<path fill-rule="evenodd" d="M178.3,794.9H183V774.8h-4.7v20.1Z" class="g0_2" />
<path fill-rule="evenodd" d="M197,794.9h4.7V774.8H197v20.1Z" class="g0_2" />
<path fill-rule="evenodd" d="M215.6,794.9h4.7V774.8h-4.7v20.1Z" class="g0_2" />
<path fill-rule="evenodd" d="M234.3,794.9H239V774.8h-4.7v20.1Z" class="g0_2" />
<path fill-rule="evenodd" d="M252.9,794.9h4.7V774.8h-4.7v20.1Z" class="g0_2" />
<path fill-rule="evenodd" d="M271.6,794.9h4.7V774.8h-4.7v20.1Z" class="g0_2" />
<path fill-rule="evenodd" d="M290.2,794.9h4.7V774.8h-4.7v20.1Z" class="g0_2" />
<path fill-rule="evenodd" d="M308.9,794.9h4.7V774.8h-4.7v20.1Z" class="g0_2" />
<path fill-rule="evenodd" d="M327.5,794.9h4.7V774.8h-4.7v20.1Z" class="g0_2" />
<path fill-rule="evenodd" d="M346.2,794.9H481.5V774.8H346.2v20.1Z" class="g0_2" />
<path fill-rule="evenodd" d="M607.3,794.9h23.4V774.8H607.3v20.1Z" class="g0_2" />
<path fill-rule="evenodd" d="M793.8,794.9h46.7V774.8H793.8v20.1Z" class="g0_2" />
<path fill-rule="evenodd" d="M43.3,843.7H481.5V794.8H43.3v48.9Z" class="g0_2" />
<path fill-rule="evenodd" d="M607.3,843.7h23.4V794.8H607.3v48.9Z" class="g0_2" />
<path fill-rule="evenodd" d="M793.8,843.7h46.7V794.8H793.8v48.9Z" class="g0_2" />
<path fill-rule="evenodd" d="M43.3,894.8H840.5V843.7H43.3v51.1Z" class="g0_2" />
<path fill-rule="evenodd" d="M43.3,914.8H593.4v-20H43.3v20Z" class="g0_2" />
<path fill-rule="evenodd" d="M607.3,914.8H612v-20h-4.7v20Z" class="g0_2" />
<path fill-rule="evenodd" d="M626,914.8h42v-20H626v20Z" class="g0_2" />
<path fill-rule="evenodd" d="M681.9,914.8h4.7v-20h-4.7v20Z" class="g0_2" />
<path fill-rule="evenodd" d="M700.6,914.8h23.3v-20H700.6v20Z" class="g0_2" />
<path fill-rule="evenodd" d="M737.9,914.8h4.7v-20h-4.7v20Z" class="g0_2" />
<path fill-rule="evenodd" d="M756.5,914.8h4.7v-20h-4.7v20Z" class="g0_2" />
<path fill-rule="evenodd" d="M775.2,914.8h4.7v-20h-4.7v20Z" class="g0_2" />
<path fill-rule="evenodd" d="M793.8,914.8h46.7v-20H793.8v20Z" class="g0_2" />
<path fill-rule="evenodd" d="M43.3,921.4H840.5v-6.6H43.3v6.6Z" class="g0_2" />
<path fill-rule="evenodd" d="M43.3,941.4H145.7v-20H43.3v20Z" class="g0_2" />
<path fill-rule="evenodd" d="M159.7,941.4h4.7v-20h-4.7v20Z" class="g0_2" />
<path fill-rule="evenodd" d="M178.3,941.4H183v-20h-4.7v20Z" class="g0_2" />
<path fill-rule="evenodd" d="M197,941.4h4.7v-20H197v20Z" class="g0_2" />
<path fill-rule="evenodd" d="M215.6,941.4h4.7v-20h-4.7v20Z" class="g0_2" />
<path fill-rule="evenodd" d="M234.3,941.4H239v-20h-4.7v20Z" class="g0_2" />
<path fill-rule="evenodd" d="M252.9,941.4h4.7v-20h-4.7v20Z" class="g0_2" />
<path fill-rule="evenodd" d="M271.6,941.4h4.7v-20h-4.7v20Z" class="g0_2" />
<path fill-rule="evenodd" d="M290.2,941.4h4.7v-20h-4.7v20Z" class="g0_2" />
<path fill-rule="evenodd" d="M308.9,941.4h4.7v-20h-4.7v20Z" class="g0_2" />
<path fill-rule="evenodd" d="M327.5,941.4h4.7v-20h-4.7v20Z" class="g0_2" />
<path fill-rule="evenodd" d="M346.2,941.4h4.7v-20h-4.7v20Z" class="g0_2" />
<path fill-rule="evenodd" d="M364.8,941.4h4.7v-20h-4.7v20Z" class="g0_2" />
<path fill-rule="evenodd" d="M383.5,941.4h4.7v-20h-4.7v20Z" class="g0_2" />
<path fill-rule="evenodd" d="M402.1,941.4h4.7v-20h-4.7v20Z" class="g0_2" />
<path fill-rule="evenodd" d="M420.8,941.4h4.7v-20h-4.7v20Z" class="g0_2" />
<path fill-rule="evenodd" d="M439.4,941.4h4.7v-20h-4.7v20Z" class="g0_2" />
<path fill-rule="evenodd" d="M458.1,941.4h4.7v-20h-4.7v20Z" class="g0_2" />
<path fill-rule="evenodd" d="M476.7,941.4h4.8v-20h-4.8v20Z" class="g0_2" />
<path fill-rule="evenodd" d="M495.4,941.4h4.7v-20h-4.7v20Z" class="g0_2" />
<path fill-rule="evenodd" d="M514,941.4h4.8v-20H514v20Z" class="g0_2" />
<path fill-rule="evenodd" d="M532.7,941.4h4.7v-20h-4.7v20Z" class="g0_2" />
<path fill-rule="evenodd" d="M551.4,941.4h4.7v-20h-4.7v20Z" class="g0_2" />
<path fill-rule="evenodd" d="M570,941.4h4.7v-20H570v20Z" class="g0_2" />
<path fill-rule="evenodd" d="M588.7,941.4h4.7v-20h-4.7v20Z" class="g0_2" />
<path fill-rule="evenodd" d="M607.3,941.4H612v-20h-4.7v20Z" class="g0_2" />
<path fill-rule="evenodd" d="M626,941.4h4.7v-20H626v20Z" class="g0_2" />
<path fill-rule="evenodd" d="M644.6,941.4h4.7v-20h-4.7v20Z" class="g0_2" />
<path fill-rule="evenodd" d="M663.3,941.4H668v-20h-4.7v20Z" class="g0_2" />
<path fill-rule="evenodd" d="M681.9,941.4h4.7v-20h-4.7v20Z" class="g0_2" />
<path fill-rule="evenodd" d="M700.6,941.4h4.7v-20h-4.7v20Z" class="g0_2" />
<path fill-rule="evenodd" d="M719.2,941.4h4.7v-20h-4.7v20Z" class="g0_2" />
<path fill-rule="evenodd" d="M737.9,941.4h4.7v-20h-4.7v20Z" class="g0_2" />
<path fill-rule="evenodd" d="M756.5,941.4h4.7v-20h-4.7v20Z" class="g0_2" />
<path fill-rule="evenodd" d="M775.2,941.4h4.7v-20h-4.7v20Z" class="g0_2" />
<path fill-rule="evenodd" d="M793.8,941.4h46.7v-20H793.8v20Z" class="g0_2" />
<path fill-rule="evenodd" d="M43.3,949.2H840.5v-7.8H43.3v7.8Z" class="g0_2" />
<path fill-rule="evenodd" d="M43.3,970.3H145.7V949.2H43.3v21.1Z" class="g0_2" />
<path fill-rule="evenodd" d="M159.7,970.3h4.7V949.2h-4.7v21.1Z" class="g0_2" />
<path fill-rule="evenodd" d="M178.3,970.3H183V949.2h-4.7v21.1Z" class="g0_2" />
<path fill-rule="evenodd" d="M197,970.3h4.7V949.2H197v21.1Z" class="g0_2" />
<path fill-rule="evenodd" d="M215.6,970.3h4.7V949.2h-4.7v21.1Z" class="g0_2" />
<path fill-rule="evenodd" d="M234.3,970.3H239V949.2h-4.7v21.1Z" class="g0_2" />
<path fill-rule="evenodd" d="M252.9,970.3h4.7V949.2h-4.7v21.1Z" class="g0_2" />
<path fill-rule="evenodd" d="M271.6,970.3h4.7V949.2h-4.7v21.1Z" class="g0_2" />
<path fill-rule="evenodd" d="M290.2,970.3h4.7V949.2h-4.7v21.1Z" class="g0_2" />
<path fill-rule="evenodd" d="M308.9,970.3h4.7V949.2h-4.7v21.1Z" class="g0_2" />
<path fill-rule="evenodd" d="M327.5,970.3h4.7V949.2h-4.7v21.1Z" class="g0_2" />
<path fill-rule="evenodd" d="M346.2,970.3h4.7V949.2h-4.7v21.1Z" class="g0_2" />
<path fill-rule="evenodd" d="M364.8,970.3h4.7V949.2h-4.7v21.1Z" class="g0_2" />
<path fill-rule="evenodd" d="M383.5,970.3h4.7V949.2h-4.7v21.1Z" class="g0_2" />
<path fill-rule="evenodd" d="M402.1,970.3h4.7V949.2h-4.7v21.1Z" class="g0_2" />
<path fill-rule="evenodd" d="M420.8,970.3h4.7V949.2h-4.7v21.1Z" class="g0_2" />
<path fill-rule="evenodd" d="M439.4,970.3h4.7V949.2h-4.7v21.1Z" class="g0_2" />
<path fill-rule="evenodd" d="M458.1,970.3h4.7V949.2h-4.7v21.1Z" class="g0_2" />
<path fill-rule="evenodd" d="M476.7,970.3h4.8V949.2h-4.8v21.1Z" class="g0_2" />
<path fill-rule="evenodd" d="M495.4,970.3h4.7V949.2h-4.7v21.1Z" class="g0_2" />
<path fill-rule="evenodd" d="M514,970.3h4.8V949.2H514v21.1Z" class="g0_2" />
<path fill-rule="evenodd" d="M532.7,970.3h4.7V949.2h-4.7v21.1Z" class="g0_2" />
<path fill-rule="evenodd" d="M551.4,970.3h4.7V949.2h-4.7v21.1Z" class="g0_2" />
<path fill-rule="evenodd" d="M570,970.3h4.7V949.2H570v21.1Z" class="g0_2" />
<path fill-rule="evenodd" d="M588.7,970.3h4.7V949.2h-4.7v21.1Z" class="g0_2" />
<path fill-rule="evenodd" d="M607.3,970.3H612V949.2h-4.7v21.1Z" class="g0_2" />
<path fill-rule="evenodd" d="M626,970.3h4.7V949.2H626v21.1Z" class="g0_2" />
<path fill-rule="evenodd" d="M644.6,970.3h4.7V949.2h-4.7v21.1Z" class="g0_2" />
<path fill-rule="evenodd" d="M663.3,970.3H668V949.2h-4.7v21.1Z" class="g0_2" />
<path fill-rule="evenodd" d="M681.9,970.3h4.7V949.2h-4.7v21.1Z" class="g0_2" />
<path fill-rule="evenodd" d="M700.6,970.3h4.7V949.2h-4.7v21.1Z" class="g0_2" />
<path fill-rule="evenodd" d="M719.2,970.3h4.7V949.2h-4.7v21.1Z" class="g0_2" />
<path fill-rule="evenodd" d="M737.9,970.3h4.7V949.2h-4.7v21.1Z" class="g0_2" />
<path fill-rule="evenodd" d="M756.5,970.3h4.7V949.2h-4.7v21.1Z" class="g0_2" />
<path fill-rule="evenodd" d="M775.2,970.3h4.7V949.2h-4.7v21.1Z" class="g0_2" />
<path fill-rule="evenodd" d="M793.8,970.3h46.7V949.2H793.8v21.1Z" class="g0_2" />
<path fill-rule="evenodd" d="M43.3,976.9H840.5v-6.7H43.3v6.7Z" class="g0_2" />
<path fill-rule="evenodd" d="M43.3,1091.4h233V976.9H43.3v114.5Z" class="g0_2" />
<path fill-rule="evenodd" d="M439.4,1091.4h93.3V976.9H439.4v114.5Z" class="g0_2" />
<path fill-rule="evenodd" d="M793.8,1091.4h46.7V976.9H793.8v114.5Z" class="g0_2" />
<path fill-rule="evenodd" d="M43.3,1148h65.1v-56.7H43.3V1148Z" class="g0_2" />
<path fill-rule="evenodd" d="M234.3,1148h42v-56.7h-42V1148Z" class="g0_2" />
<path fill-rule="evenodd" d="M439.4,1148h93.3v-56.7H439.4V1148Z" class="g0_2" />
<path fill-rule="evenodd" d="M793.8,1148h46.7v-56.7H793.8V1148Z" class="g0_2" />
<path fill-rule="evenodd" d="M43.3,1259.9H840.5V1148H43.3v111.9Z" class="g0_2" />
<path d="M89.8,112.5h14.1m4.6,0h14m4.6,0h14.1m4.6,0h14m4.6,0h14.1m4.6,0h14m4.6,0h14.1m4.6,0h14m4.6,0h14.1m4.6,0h14m4.6,0h14.1m4.6,0h14.1m4.5,0h14.1m4.6,0h14.1m4.5,0H365m4.6,0h14.1m4.5,0h14.1m4.6,0H421m4.5,0h14.1m4.6,0h14.1m4.5,0h14.1m4.6,0h14.1m4.5,0h14.1m4.6,0h14.1m4.5,0h14.1m4.6,0h14.1m4.6,0h14m4.6,0h14.1m4.6,0h14m4.6,0h14.1m4.6,0h14m4.6,0h14.1m4.6,0h14m23.3,0h14m4.6,0h14.1m4.6,0h14m-685.5,20h14.1m4.6,0h14m4.6,0h14.1m4.6,0h14m4.6,0h14.1m4.6,0h14m4.6,0h14.1m4.6,0h14m4.6,0h14.1m4.6,0h14m4.6,0h14.1m4.6,0h14.1m4.5,0h14.1m4.6,0h14.1m4.5,0H365m4.6,0h14.1m4.5,0h14.1m4.6,0H421m4.5,0h14.1m4.6,0h14.1m4.5,0h14.1m4.6,0h14.1m4.5,0h14.1m4.6,0h14.1m4.5,0h14.1m4.6,0h14.1m4.6,0h14m4.6,0h14.1m4.6,0h14m4.6,0h14.1m4.6,0h14m4.6,0h14.1m4.6,0h14m23.3,0h14m4.6,0h14.1m4.6,0h14M89.8,140.3h14.1m4.6,0h14m4.6,0h14.1m4.6,0h14m4.6,0h14.1m4.6,0h14m4.6,0h14.1m4.6,0h14m4.6,0h14.1m4.6,0h14m4.6,0h14.1m4.6,0h14.1m4.5,0h14.1m4.6,0h14.1m4.5,0H365m4.6,0h14.1m4.5,0h14.1m4.6,0H421m4.5,0h14.1m4.6,0h14.1m4.5,0h14.1m4.6,0h14.1m4.5,0h14.1m4.6,0h14.1m4.5,0h14.1m4.6,0h14.1m23.2,0h14.1m4.6,0h14m4.6,0h14.1m4.6,0h14m4.6,0h14.1m4.6,0h14m4.6,0h14.1m4.6,0h14m4.6,0h14.1m4.6,0h14m-685.5,20h14.1m4.6,0h14m4.6,0h14.1m4.6,0h14m4.6,0h14.1m4.6,0h14m4.6,0h14.1m4.6,0h14m4.6,0h14.1m4.6,0h14m4.6,0h14.1m4.6,0h14.1m4.5,0h14.1m4.6,0h14.1m4.5,0H365m4.6,0h14.1m4.5,0h14.1m4.6,0H421m4.5,0h14.1m4.6,0h14.1m4.5,0h14.1m4.6,0h14.1m4.5,0h14.1m4.6,0h14.1m4.5,0h14.1m4.6,0h14.1m23.2,0h14.1m4.6,0h14m4.6,0h14.1m4.6,0h14m4.6,0h14.1m4.6,0h14m4.6,0h14.1m4.6,0h14m4.6,0h14.1m4.6,0h14M183.1,184.7h14m4.6,0h14.1m4.6,0h14m4.6,0h14.1m4.6,0h14m4.6,0h14.1m4.6,0h14.1m4.5,0h14.1m4.6,0h14.1m4.5,0H365m4.6,0h14.1m4.5,0h14.1m4.6,0H421m4.5,0h14.1m4.6,0h14.1m4.5,0h14.1m4.6,0h14.1m4.5,0h14.1m4.6,0h14.1m4.5,0h14.1m4.6,0h14.1m4.6,0h14m4.6,0h14.1m4.6,0h14m4.6,0h14.1m4.6,0h14m4.6,0h14.1m4.6,0h14m4.6,0h14.1m4.6,0h14m4.6,0h14.1m4.6,0h14m4.6,0H794m-610.9,21h14m4.6,0h14.1m4.6,0h14m4.6,0h14.1m4.6,0h14m4.6,0h14.1m4.6,0h14.1m4.5,0h14.1m4.6,0h14.1m4.5,0H365m4.6,0h14.1m4.5,0h14.1m4.6,0H421m4.5,0h14.1m4.6,0h14.1m4.5,0h14.1m4.6,0h14.1m4.5,0h14.1m4.6,0h14.1m4.5,0h14.1m4.6,0h14.1m4.6,0h14m4.6,0h14.1m4.6,0h14m4.6,0h14.1m4.6,0h14m4.6,0h14.1m4.6,0h14m4.6,0h14.1m4.6,0h14m4.6,0h14.1m4.6,0h14m4.6,0H794m-648.2,7.8h14m4.6,0h14.1m4.6,0h14m4.6,0h14.1m4.6,0h14m4.6,0h14.1m4.6,0h14m4.6,0h14.1m4.6,0h14.1m4.5,0h14.1m4.6,0h14.1m4.5,0H365m4.6,0h14.1m4.5,0h14.1m4.6,0H421m4.5,0h14.1m4.6,0h14.1m4.5,0h14.1m4.6,0h14.1m4.5,0h14.1m4.6,0h14.1m4.5,0h14.1m4.6,0h14.1m4.6,0h14m4.6,0h14.1m4.6,0h14m4.6,0h14.1m4.6,0h14m4.6,0h14.1m4.6,0h14m4.6,0h14.1m4.6,0h14m4.6,0h14.1m4.6,0h14m4.6,0H794m-648.2,20h14m4.6,0h14.1m4.6,0h14m4.6,0h14.1m4.6,0h14m4.6,0h14.1m4.6,0h14m4.6,0h14.1m4.6,0h14.1m4.5,0h14.1m4.6,0h14.1m4.5,0H365m4.6,0h14.1m4.5,0h14.1m4.6,0H421m4.5,0h14.1m4.6,0h14.1m4.5,0h14.1m4.6,0h14.1m4.5,0h14.1m4.6,0h14.1m4.5,0h14.1m4.6,0h14.1m4.6,0h14m4.6,0h14.1m4.6,0h14m4.6,0h14.1m4.6,0h14m4.6,0h14.1m4.6,0h14m4.6,0h14.1m4.6,0h14m4.6,0h14.1m4.6,0h14m4.6,0H794m-610.9,7.8h14m4.6,0h14.1m4.6,0h14m4.6,0h14.1m4.6,0h14m4.6,0h14.1m4.6,0h14.1m4.5,0h14.1m4.6,0h14.1m4.5,0H365m4.6,0h14.1m4.5,0h14.1m4.6,0H421m4.5,0h14.1m4.6,0h14.1m4.5,0h14.1m4.6,0h14.1m4.5,0h14.1m4.6,0h14.1m4.5,0h14.1m4.6,0h14.1m4.6,0h14m4.6,0h14.1m4.6,0h14m4.6,0h14.1m4.6,0h14m4.6,0h14.1m4.6,0h14m4.6,0h14.1m4.6,0h14m4.6,0h14.1m4.6,0h14m4.6,0H794M183.1,261.2h14m4.6,0h14.1m4.6,0h14m4.6,0h14.1m4.6,0h14m4.6,0h14.1m4.6,0h14.1m4.5,0h14.1m4.6,0h14.1m4.5,0H365m4.6,0h14.1m4.5,0h14.1m4.6,0H421m4.5,0h14.1m4.6,0h14.1m4.5,0h14.1m4.6,0h14.1m4.5,0h14.1m4.6,0h14.1m4.5,0h14.1m4.6,0h14.1m4.6,0h14m4.6,0h14.1m4.6,0h14m4.6,0h14.1m4.6,0h14m4.6,0h14.1m4.6,0h14m4.6,0h14.1m4.6,0h14m4.6,0h14.1m4.6,0h14m4.6,0H794M145.8,269h14m4.6,0h14.1m4.6,0h14m4.6,0h14.1m4.6,0h14m4.6,0h14.1m4.6,0h14m4.6,0h14.1m4.6,0h14.1m4.5,0h14.1m4.6,0h14.1m4.5,0H365m4.6,0h14.1m4.5,0h14.1m4.6,0H421m4.5,0h14.1m4.6,0h14.1m4.5,0h14.1m4.6,0h14.1m4.5,0h14.1m4.6,0h14.1m4.5,0h14.1m4.6,0h14.1m4.6,0h14m4.6,0h14.1m4.6,0h14m4.6,0h14.1m4.6,0h14m4.6,0h14.1m4.6,0h14m4.6,0h14.1m4.6,0h14m4.6,0h14.1m4.6,0h14m4.6,0H794M145.8,289h14m4.6,0h14.1m4.6,0h14m4.6,0h14.1m4.6,0h14m4.6,0h14.1m4.6,0h14m4.6,0h14.1m4.6,0h14.1m4.5,0h14.1m4.6,0h14.1m4.5,0H365m4.6,0h14.1m4.5,0h14.1m4.6,0H421m4.5,0h14.1m4.6,0h14.1m4.5,0h14.1m4.6,0h14.1m4.5,0h14.1m4.6,0h14.1m4.5,0h14.1m4.6,0h14.1m4.6,0h14m4.6,0h14.1m4.6,0h14m4.6,0h14.1m4.6,0h14m4.6,0h14.1m4.6,0h14m4.6,0h14.1m4.6,0h14m4.6,0h14.1m4.6,0h14m4.6,0H794M89.8,296.7H234.4m41.9,0h14.1m4.6,0h14.1m4.5,0h14.1m4.6,0h14.1m60.5,0H421m4.5,0h14.1m4.6,0h14.1m4.5,0h14.1m60.5,0h14.1m4.6,0h14.1m4.6,0h14m4.6,0h14.1m4.6,0H719.4m4.6,0h14m4.6,0h14.1m4.6,0h14m4.6,0H794m-704.2,20H234.4m41.9,0h14.1m4.6,0h14.1m4.5,0h14.1m4.6,0h14.1m60.5,0H421m4.5,0h14.1m4.6,0h14.1m4.5,0h14.1m60.5,0h14.1m4.6,0h14.1m4.6,0h14m4.6,0h14.1m4.6,0H719.4m4.6,0h14m4.6,0h14.1m4.6,0h14m4.6,0H794m-648.2,30h14m4.6,0h14.1m4.6,0h14m4.6,0h14.1m4.6,0h14m4.6,0h14.1m4.6,0h14m4.6,0h14.1m4.6,0h14.1m4.5,0h14.1M145.8,366.6h14m4.6,0h14.1m4.6,0h14m4.6,0h14.1m4.6,0h14m4.6,0h14.1m4.6,0h14m4.6,0h14.1m4.6,0h14.1m4.5,0h14.1M668,385.5h14.1m97.8,0H794m-126,20h14.1m97.8,0H794m-648.2,7.8h14m4.6,0h14.1m4.6,0h14m4.6,0h14.1m4.6,0h14m4.6,0h14.1m4.6,0h14m4.6,0h14.1m4.6,0h14.1m4.5,0h14.1m4.6,0h14.1m4.5,0H365m4.6,0h14.1m4.5,0h14.1m4.6,0H421m4.5,0h14.1m4.6,0h14.1m4.5,0h14.1m4.6,0h14.1m97.8,0h14.1m4.6,0h14m41.9,0h14.1m4.6,0h14m23.3,0h14m4.6,0h14.1m4.6,0h14m4.6,0H794m-648.2,21h14m4.6,0h14.1m4.6,0h14m4.6,0h14.1m4.6,0h14m4.6,0h14.1m4.6,0h14m4.6,0h14.1m4.6,0h14.1m4.5,0h14.1m4.6,0h14.1m4.5,0H365m4.6,0h14.1m4.5,0h14.1m4.6,0H421m4.5,0h14.1m4.6,0h14.1m4.5,0h14.1m4.6,0h14.1m97.8,0h14.1m4.6,0h14m41.9,0h14.1m4.6,0h14m23.3,0h14m4.6,0h14.1m4.6,0h14m4.6,0H794m-648.2,7.8h14m4.6,0h14.1m4.6,0h14m4.6,0h14.1m4.6,0h14m4.6,0h14.1m4.6,0h14m4.6,0h14.1m4.6,0h14.1m4.5,0h14.1m4.6,0h14.1m4.5,0H365m4.6,0h14.1m4.5,0h14.1m4.6,0H421m4.5,0h14.1m4.6,0h14.1m4.5,0h14.1m4.6,0h14.1m4.5,0h14.1m4.6,0h14.1m4.5,0h14.1m4.6,0h14.1m4.6,0h14m4.6,0h14.1m4.6,0h14m4.6,0h14.1m4.6,0h14m4.6,0h14.1m4.6,0h14m4.6,0h14.1m4.6,0h14m4.6,0h14.1m4.6,0h14m4.6,0H794m-648.2,21h14m4.6,0h14.1m4.6,0h14m4.6,0h14.1m4.6,0h14m4.6,0h14.1m4.6,0h14m4.6,0h14.1m4.6,0h14.1m4.5,0h14.1m4.6,0h14.1m4.5,0H365m4.6,0h14.1m4.5,0h14.1m4.6,0H421m4.5,0h14.1m4.6,0h14.1m4.5,0h14.1m4.6,0h14.1m4.5,0h14.1m4.6,0h14.1m4.5,0h14.1m4.6,0h14.1m4.6,0h14m4.6,0h14.1m4.6,0h14m4.6,0h14.1m4.6,0h14m4.6,0h14.1m4.6,0h14m4.6,0h14.1m4.6,0h14m4.6,0h14.1m4.6,0h14m4.6,0H794m-499,7.8h14.1m4.5,0h14.1m4.6,0h14.1m4.5,0H365m4.6,0h14.1m4.5,0h14.1m4.6,0H421m4.5,0h14.1m4.6,0h14.1m4.5,0h14.1m4.6,0h14.1m41.8,0h14.1m4.6,0h14.1m4.6,0h14m4.6,0h14.1m23.2,0h14.1m4.6,0h14m4.6,0h14.1m4.6,0h14m4.6,0h14.1m4.6,0h14m4.6,0h14.1m4.6,0h14m4.6,0H794m-499,20h14.1m4.5,0h14.1m4.6,0h14.1m4.5,0H365m4.6,0h14.1m4.5,0h14.1m4.6,0H421m4.5,0h14.1m4.6,0h14.1m4.5,0h14.1m4.6,0h14.1m41.8,0h14.1m4.6,0h14.1m4.6,0h14m4.6,0h14.1m23.2,0h14.1m4.6,0h14m4.6,0h14.1m4.6,0h14m4.6,0h14.1m4.6,0h14m4.6,0h14.1m4.6,0h14m4.6,0H794m-629.6,8.9h14.1m4.6,0h14m41.9,0h14.1m4.6,0h14m23.3,0h14.1m4.5,0h14.1m4.6,0h14.1m4.5,0H365m97.8,0h14.1m4.6,0h14.1m41.8,0h14.1m4.6,0h14.1m23.2,0h14.1m4.6,0h14m4.6,0h14.1m4.6,0h14m-499,21h14.1m4.6,0h14m41.9,0h14.1m4.6,0h14m23.3,0h14.1m4.5,0h14.1m4.6,0h14.1m4.5,0H365m97.8,0h14.1m4.6,0h14.1m41.8,0h14.1m4.6,0h14.1m23.2,0h14.1m4.6,0h14m4.6,0h14.1m4.6,0h14m-480.3,5.6h14m4.6,0h14.1m4.6,0h14m4.6,0h14.1m4.6,0h14m4.6,0h14.1m4.6,0h14.1m4.5,0h14.1m4.6,0h14.1m4.5,0H365m4.6,0h14.1m4.5,0h14.1m4.6,0H421m4.5,0h14.1m4.6,0h14.1m4.5,0h14.1m4.6,0h14.1m4.5,0h14.1m4.6,0h14.1m4.5,0h14.1m4.6,0h14.1m4.6,0h14m4.6,0h14.1m4.6,0h14m4.6,0h14.1m4.6,0h14m4.6,0h14.1m4.6,0h14m4.6,0h14.1m4.6,0h14m4.6,0h14.1m4.6,0h14m4.6,0H794m-610.9,21h14m4.6,0h14.1m4.6,0h14m4.6,0h14.1m4.6,0h14m4.6,0h14.1m4.6,0h14.1m4.5,0h14.1m4.6,0h14.1m4.5,0H365m4.6,0h14.1m4.5,0h14.1m4.6,0H421m4.5,0h14.1m4.6,0h14.1m4.5,0h14.1m4.6,0h14.1m4.5,0h14.1m4.6,0h14.1m4.5,0h14.1m4.6,0h14.1m4.6,0h14m4.6,0h14.1m4.6,0h14m4.6,0h14.1m4.6,0h14m4.6,0h14.1m4.6,0h14m4.6,0h14.1m4.6,0h14m4.6,0h14.1m4.6,0h14m4.6,0H794m-648.2,7.8h14m4.6,0h14.1m4.6,0h14m4.6,0h14.1m4.6,0h14m4.6,0h14.1m4.6,0h14m4.6,0h14.1m4.6,0h14.1m4.5,0h14.1m4.6,0h14.1m4.5,0H365m4.6,0h14.1m4.5,0h14.1m4.6,0H421m4.5,0h14.1m4.6,0h14.1m4.5,0h14.1m4.6,0h14.1m4.5,0h14.1m4.6,0h14.1m4.5,0h14.1m4.6,0h14.1m4.6,0h14m4.6,0h14.1m4.6,0h14m4.6,0h14.1m4.6,0h14m4.6,0h14.1m4.6,0h14m4.6,0h14.1m4.6,0h14m4.6,0h14.1m4.6,0h14m4.6,0H794m-648.2,20h14m4.6,0h14.1m4.6,0h14m4.6,0h14.1m4.6,0h14m4.6,0h14.1m4.6,0h14m4.6,0h14.1m4.6,0h14.1m4.5,0h14.1m4.6,0h14.1m4.5,0H365m4.6,0h14.1m4.5,0h14.1m4.6,0H421m4.5,0h14.1m4.6,0h14.1m4.5,0h14.1m4.6,0h14.1m4.5,0h14.1m4.6,0h14.1m4.5,0h14.1m4.6,0h14.1m4.6,0h14m4.6,0h14.1m4.6,0h14m4.6,0h14.1m4.6,0h14m4.6,0h14.1m4.6,0h14m4.6,0h14.1m4.6,0h14m4.6,0h14.1m4.6,0h14m4.6,0H794M183.1,584h14m4.6,0h14.1m4.6,0h14m4.6,0h14.1m4.6,0h14m4.6,0h14.1m4.6,0h14.1m4.5,0h14.1m4.6,0h14.1m4.5,0H365m4.6,0h14.1m4.5,0h14.1m4.6,0H421m4.5,0h14.1m4.6,0h14.1m4.5,0h14.1m4.6,0h14.1m4.5,0h14.1m4.6,0h14.1m4.5,0h14.1m4.6,0h14.1m4.6,0h14m4.6,0h14.1m4.6,0h14m4.6,0h14.1m4.6,0h14m4.6,0h14.1m4.6,0h14m4.6,0h14.1m4.6,0h14m4.6,0h14.1m4.6,0h14m4.6,0H794M183.1,604h14m4.6,0h14.1m4.6,0h14m4.6,0h14.1m4.6,0h14m4.6,0h14.1m4.6,0h14.1m4.5,0h14.1m4.6,0h14.1m4.5,0H365m4.6,0h14.1m4.5,0h14.1m4.6,0H421m4.5,0h14.1m4.6,0h14.1m4.5,0h14.1m4.6,0h14.1m4.5,0h14.1m4.6,0h14.1m4.5,0h14.1m4.6,0h14.1m4.6,0h14m4.6,0h14.1m4.6,0h14m4.6,0h14.1m4.6,0h14m4.6,0h14.1m4.6,0h14m4.6,0h14.1m4.6,0h14m4.6,0h14.1m4.6,0h14m4.6,0H794m-648.2,7.8h14m4.6,0h14.1m4.6,0h14m4.6,0h14.1m4.6,0h14m4.6,0h14.1m4.6,0h14m4.6,0h14.1m4.6,0h14.1m4.5,0h14.1m4.6,0h14.1m4.5,0H365m4.6,0h14.1m4.5,0h14.1m4.6,0H421m4.5,0h14.1m4.6,0h14.1m4.5,0h14.1m4.6,0h14.1m4.5,0h14.1m4.6,0h14.1m4.5,0h14.1m4.6,0h14.1m4.6,0h14m4.6,0h14.1m4.6,0h14m4.6,0h14.1m4.6,0h14m4.6,0h14.1m4.6,0h14m4.6,0h14.1m4.6,0h14m4.6,0h14.1m4.6,0h14m4.6,0H794m-648.2,20h14m4.6,0h14.1m4.6,0h14m4.6,0h14.1m4.6,0h14m4.6,0h14.1m4.6,0h14m4.6,0h14.1m4.6,0h14.1m4.5,0h14.1m4.6,0h14.1m4.5,0H365m4.6,0h14.1m4.5,0h14.1m4.6,0H421m4.5,0h14.1m4.6,0h14.1m4.5,0h14.1m4.6,0h14.1m4.5,0h14.1m4.6,0h14.1m4.5,0h14.1m4.6,0h14.1m4.6,0h14m4.6,0h14.1m4.6,0h14m4.6,0h14.1m4.6,0h14m4.6,0h14.1m4.6,0h14m4.6,0h14.1m4.6,0h14m4.6,0h14.1m4.6,0h14m4.6,0H794m-666.9,7.7h14.1m4.6,0h14m4.6,0h14.1m4.6,0h14m41.9,0h14.1m4.6,0h14m4.6,0h14.1m4.6,0h14.1m60.5,0h14.1m4.5,0h14.1m4.6,0H421m4.5,0h14.1m60.5,0h14.1m4.6,0h14.1m4.5,0h14.1m4.6,0h14.1m41.9,0h14m4.6,0h14.1m4.6,0h14m4.6,0h14.1m4.6,0h14m4.6,0h14.1m4.6,0h14m4.6,0h14.1m4.6,0h14m4.6,0H794m-666.9,20h14.1m4.6,0h14m4.6,0h14.1m4.6,0h14m41.9,0h14.1m4.6,0h14m4.6,0h14.1m4.6,0h14.1m60.5,0h14.1m4.5,0h14.1m4.6,0H421m4.5,0h14.1m60.5,0h14.1m4.6,0h14.1m4.5,0h14.1m4.6,0h14.1m41.9,0h14m4.6,0h14.1m4.6,0h14m4.6,0h14.1m4.6,0h14m4.6,0h14.1m4.6,0h14m4.6,0h14.1m4.6,0h14m4.6,0H794m-629.6,7.8h14.1m4.6,0h14m4.6,0h14.1m4.6,0h14m4.6,0h14.1m4.6,0h14m4.6,0h14.1m4.6,0h14.1m4.5,0h14.1m4.6,0h14.1m4.5,0H365m4.6,0h14.1m4.5,0h14.1m4.6,0H421m4.5,0h14.1m4.6,0h14.1m4.5,0h14.1m4.6,0h14.1m4.5,0h14.1m4.6,0h14.1m4.5,0h14.1m4.6,0h14.1m4.6,0h14m4.6,0h14.1m23.2,0H794m-629.6,20h14.1m4.6,0h14m4.6,0h14.1m4.6,0h14m4.6,0h14.1m4.6,0h14m4.6,0h14.1m4.6,0h14.1m4.5,0h14.1m4.6,0h14.1m4.5,0H365m4.6,0h14.1m4.5,0h14.1m4.6,0H421m4.5,0h14.1m4.6,0h14.1m4.5,0h14.1m4.6,0h14.1m4.5,0h14.1m4.6,0h14.1m4.5,0h14.1m4.6,0h14.1m4.6,0h14m4.6,0h14.1M89.8,695h14.1m4.6,0h14m4.6,0h14.1m4.6,0h14m4.6,0h14.1m4.6,0h14m4.6,0h14.1m4.6,0h14m4.6,0h14.1m4.6,0h14m4.6,0h14.1m4.6,0h14.1m4.5,0h14.1m4.6,0h14.1m4.5,0H365m4.6,0h14.1m4.5,0h14.1m4.6,0H421m4.5,0h14.1m4.6,0h14.1m4.5,0h14.1m4.6,0h14.1m4.5,0h14.1m4.6,0h14.1m4.5,0h14.1m4.6,0h14.1m4.6,0h14m4.6,0h14.1M89.8,715h14.1m4.6,0h14m4.6,0h14.1m4.6,0h14m4.6,0h14.1m4.6,0h14m4.6,0h14.1m4.6,0h14m4.6,0h14.1m4.6,0h14m4.6,0h14.1m4.6,0h14.1m4.5,0h14.1m4.6,0h14.1m4.5,0H365m4.6,0h14.1m4.5,0h14.1m4.6,0H421m4.5,0h14.1m4.6,0h14.1m4.5,0h14.1m4.6,0h14.1m4.5,0h14.1m4.6,0h14.1m4.5,0h14.1m4.6,0h14.1m4.6,0h14m4.6,0h14.1m-443.1,7.8h14.1m4.6,0h14m4.6,0h14.1m4.6,0h14m4.6,0h14.1m4.6,0h14m4.6,0h14.1m4.6,0h14.1m4.5,0h14.1m4.6,0h14.1m4.5,0H365m4.6,0h14.1m4.5,0h14.1m4.6,0H421m4.5,0h14.1m4.6,0h14.1m4.5,0h14.1m4.6,0h14.1m4.5,0h14.1m4.6,0h14.1m4.5,0h14.1m4.6,0h14.1m4.6,0h14m4.6,0h14.1m-424.4,20h14m4.6,0h14.1m4.6,0h14m4.6,0h14.1m4.6,0h14m4.6,0h14.1m4.6,0h14.1m4.5,0h14.1m4.6,0h14.1m4.5,0H365m4.6,0h14.1m4.5,0h14.1m4.6,0H421m4.5,0h14.1m4.6,0h14.1m4.5,0h14.1m4.6,0h14.1m4.5,0h14.1m4.6,0h14.1m4.5,0h14.1m4.6,0h14.1m4.6,0h14m4.6,0h14.1M89.8,747.2h14.1m4.6,0h14m4.6,0h14.1m4.6,0h14m4.6,0h14.1m4.6,0h14m4.6,0h14.1m4.6,0h14m4.6,0h14.1m4.6,0h14m4.6,0h14.1m4.6,0h14.1m4.5,0h14.1m4.6,0h14.1m4.5,0H365m4.6,0h14.1m4.5,0h14.1m4.6,0H421m4.5,0h14.1m4.6,0h14.1m4.5,0h14.1m4.6,0h14.1m4.5,0h14.1m4.6,0h14.1m4.5,0h14.1m4.6,0h14.1m4.6,0h14m4.6,0h14.1m-517.7,20h14.1m4.6,0h14m4.6,0h14.1m4.6,0h14m4.6,0h14.1m4.6,0h14m4.6,0h14.1m4.6,0h14m4.6,0h14.1m4.6,0h14m4.6,0h14.1m4.6,0h14.1m4.5,0h14.1m4.6,0h14.1m4.5,0H365m4.6,0h14.1m4.5,0h14.1m4.6,0H421m4.5,0h14.1m4.6,0h14.1m4.5,0h14.1m4.6,0h14.1m4.5,0h14.1m4.6,0h14.1m4.5,0h14.1m4.6,0h14.1m4.6,0h14m4.6,0h14.1M127.1,775h14.1m4.6,0h14m4.6,0h14.1m4.6,0h14m4.6,0h14.1m4.6,0h14m4.6,0h14.1m4.6,0h14m4.6,0h14.1m4.6,0h14.1m4.5,0h14.1m4.6,0h14.1m135.1,0h126M127.1,795h14.1m4.6,0h14m4.6,0h14.1m4.6,0h14m4.6,0h14.1m4.6,0h14m4.6,0h14.1m4.6,0h14m4.6,0h14.1m4.6,0h14.1m4.5,0h14.1m4.6,0h14.1m135.1,48.8h126m23.2,0H794" class="g1_2" />
<path d="M43.2,869.4H55.1m3.7,0H70.7m3.7,0H86.2m3.7,0h11.8m3.8,0h11.8m3.7,0h11.9m3.7,0h11.9m3.7,0H164m3.7,0h11.9m3.7,0h11.8m3.7,0h11.9m3.7,0h11.9m3.7,0h11.8m3.7,0h11.9m3.7,0h11.8m3.7,0h11.9m3.7,0h11.9m3.6,0h11.9m3.7,0h11.9m3.7,0h11.8m3.7,0h11.9m3.7,0h11.9m3.6,0h7.4m93.3,0H498m3.7,0h11.9m3.7,0h11.9m3.7,0h11.8m3.8,0h11.8m3.7,0h11.8m3.8,0h11.8m3.7,0H607m3.7,0h11.9m3.7,0h11.8m3.7,0h11.8m3.8,0h11.8m3.7,0h11.9m3.7,0h11.9m3.7,0h11.8m3.7,0h11.8m3.8,0H747m3.7,0h11.9m3.7,0h11.9m3.7,0h11.8m3.7,0h11.9m3.7,0h11.8m3.7,0h11.9" class="g2_2" />
<path d="M593.4,894.9h14.1m4.6,0h14m41.9,0h14.1m4.6,0h14m23.3,0h14m4.6,0h14.1m4.6,0h14m4.6,0H794m-200.6,20h14.1m4.6,0h14m41.9,0h14.1m4.6,0h14m23.3,0h14m4.6,0h14.1m4.6,0h14m4.6,0H794m-648.2,6.6h14m4.6,0h14.1m4.6,0h14m4.6,0h14.1m4.6,0h14m4.6,0h14.1m4.6,0h14m4.6,0h14.1m4.6,0h14.1m4.5,0h14.1m4.6,0h14.1m4.5,0H365m4.6,0h14.1m4.5,0h14.1m4.6,0H421m4.5,0h14.1m4.6,0h14.1m4.5,0h14.1m4.6,0h14.1m4.5,0h14.1m4.6,0h14.1m4.5,0h14.1m4.6,0h14.1m4.6,0h14m4.6,0h14.1m4.6,0h14m4.6,0h14.1m4.6,0h14m4.6,0h14.1m4.6,0h14m4.6,0h14.1m4.6,0h14m4.6,0h14.1m4.6,0h14m4.6,0H794m-648.2,20h14m4.6,0h14.1m4.6,0h14m4.6,0h14.1m4.6,0h14m4.6,0h14.1m4.6,0h14m4.6,0h14.1m4.6,0h14.1m4.5,0h14.1m4.6,0h14.1m4.5,0H365m4.6,0h14.1m4.5,0h14.1m4.6,0H421m4.5,0h14.1m4.6,0h14.1m4.5,0h14.1m4.6,0h14.1m4.5,0h14.1m4.6,0h14.1m4.5,0h14.1m4.6,0h14.1m4.6,0h14m4.6,0h14.1m4.6,0h14m4.6,0h14.1m4.6,0h14m4.6,0h14.1m4.6,0h14m4.6,0h14.1m4.6,0h14m4.6,0h14.1m4.6,0h14m4.6,0H794m-648.2,7.8h14m4.6,0h14.1m4.6,0h14m4.6,0h14.1m4.6,0h14m4.6,0h14.1m4.6,0h14m4.6,0h14.1m4.6,0h14.1m4.5,0h14.1m4.6,0h14.1m4.5,0H365m4.6,0h14.1m4.5,0h14.1m4.6,0H421m4.5,0h14.1m4.6,0h14.1m4.5,0h14.1m4.6,0h14.1m4.5,0h14.1m4.6,0h14.1m4.5,0h14.1m4.6,0h14.1m4.6,0h14m4.6,0h14.1m4.6,0h14m4.6,0h14.1m4.6,0h14m4.6,0h14.1m4.6,0h14m4.6,0h14.1m4.6,0h14m4.6,0h14.1m4.6,0h14m4.6,0H794m-648.2,21h14m4.6,0h14.1m4.6,0h14m4.6,0h14.1m4.6,0h14m4.6,0h14.1m4.6,0h14m4.6,0h14.1m4.6,0h14.1m4.5,0h14.1m4.6,0h14.1m4.5,0H365m4.6,0h14.1m4.5,0h14.1m4.6,0H421m4.5,0h14.1m4.6,0h14.1m4.5,0h14.1m4.6,0h14.1m4.5,0h14.1m4.6,0h14.1m4.5,0h14.1m4.6,0h14.1m4.6,0h14m4.6,0h14.1m4.6,0h14m4.6,0h14.1m4.6,0h14m4.6,0h14.1m4.6,0h14m4.6,0h14.1m4.6,0h14m4.6,0h14.1m4.6,0h14m4.6,0H794M276.3,977H439.6m93.2,0H794M108.5,1091.5H234.4m-125.9,56.6H234.4m41.9,0H439.6m93.2,0H794M89.9,112.5v20m0,7.7v20.1m0,136.4v20.1m0,378.2v20.1m0,32.1v20M103.8,112.5v20m0,7.7v20.1m0,534.7v20.1m0,32.1v20m4.7,-654.7v20m0,7.7v20.1m0,534.7v20.1m0,32.1v20m0,324.2v56.8m14,-1035.7v20m0,7.7v20.1m0,534.7v20.1m0,32.1v20m4.7,-654.7v20m0,7.7v20.1m0,479.2v20.1m0,35.4v20.1m0,32.1v20m0,7.7V795M141.1,112.5v20m0,7.7v20.1m0,479.2v20.1m0,35.4v20.1m0,32.1v20m0,7.7V795m4.7,-682.5v20m0,7.7v20.1m0,53.1v20.1m0,35.4V289m0,57.6v20.1m0,46.5v21.2m0,7.6v21.2m0,91.9v20.1m0,36.5v20.1m0,7.7v20.1m0,35.4v20.1m0,32.1v20m0,7.7V795m0,126.5v20.1m0,7.7v21.1m14,-857.9v20m0,7.7v20.1m0,53.1v20.1m0,35.4V289m0,57.6v20.1m0,46.5v21.2m0,7.6v21.2m0,91.9v20.1m0,36.5v20.1m0,7.7v20.1m0,35.4v20.1m0,32.1v20m0,7.7V795m0,126.5v20.1m0,7.7v21.1m4.7,-857.9v20m0,7.7v20.1m0,53.1v20.1m0,35.4V289m0,57.6v20.1m0,46.5v21.2m0,7.6v21.2m0,36.5v21.2m0,34.2v20.1m0,36.5v20.1m0,7.7v20.1m0,7.7v20m0,7.7v20.1m0,7.6v20.1m0,4.4v20m0,7.7V795m0,126.5v20.1m0,7.7v21.1M178.4,112.5v20m0,7.7v20.1m0,53.1v20.1m0,35.4V289m0,57.6v20.1m0,46.5v21.2m0,7.6v21.2m0,36.5v21.2m0,34.2v20.1m0,36.5v20.1m0,7.7v20.1m0,7.7v20m0,7.7v20.1m0,7.6v20.1m0,4.4v20m0,7.7V795m0,126.5v20.1m0,7.7v21.1m4.7,-857.9v20m0,7.7v20.1m0,24.3v21.2m0,7.6v20.1m0,7.7v20m0,7.7V289m0,57.6v20.1m0,46.5v21.2m0,7.6v21.2m0,36.5v21.2m0,5.4v21.1m0,7.7v20.1m0,8.8v20m0,7.7v20.1m0,7.7v20.1m0,7.7v20m0,7.7v20.1m0,7.6v20.1m0,4.4v20m0,7.7V795m0,126.5v20.1m0,7.7v21.1m14,-857.9v20m0,7.7v20.1m0,24.3v21.2m0,7.6v20.1m0,7.7v20m0,7.7V289m0,57.6v20.1m0,46.5v21.2m0,7.6v21.2m0,36.5v21.2m0,5.4v21.1m0,7.7v20.1m0,8.8v20m0,7.7v20.1m0,7.7v20.1m0,7.7v20m0,7.7v20.1m0,7.6v20.1m0,4.4v20m0,7.7V795m0,126.5v20.1m0,7.7v21.1m4.7,-857.9v20m0,7.7v20.1m0,24.3v21.2m0,7.6v20.1m0,7.7v20m0,7.7V289m0,57.6v20.1m0,46.5v21.2m0,7.6v21.2m0,63.1v21.1m0,7.7v20.1m0,8.8v20m0,7.7v20.1m0,35.5v20m0,7.7v20.1m0,7.6v20.1m0,4.4v20m0,7.7V795m0,126.5v20.1m0,7.7v21.1m14,-857.9v20m0,7.7v20.1m0,24.3v21.2m0,7.6v20.1m0,7.7v20m0,7.7V289m0,57.6v20.1m0,46.5v21.2m0,7.6v21.2m0,63.1v21.1m0,7.7v20.1m0,8.8v20m0,7.7v20.1m0,35.5v20m0,7.7v20.1m0,7.6v20.1m0,4.4v20m0,7.7V795m0,126.5v20.1m0,7.7v21.1m4.6,-857.9v20m0,7.7v20.1m0,24.3v21.2m0,7.6v20.1m0,7.7v20m0,7.7V289m0,57.6v20.1m0,46.5v21.2m0,7.6v21.2m0,63.1v21.1m0,7.7v20.1m0,8.8v20m0,7.7v20.1m0,35.5v20m0,7.7v20.1m0,7.6v20.1m0,4.4v20m0,7.7V795m0,126.5v20.1m0,7.7v21.1m14,-857.9v20m0,7.7v20.1m0,24.3v21.2m0,7.6v20.1m0,7.7v20m0,7.7V289m0,7.7v20.1m0,29.8v20.1m0,46.5v21.2m0,7.6v21.2m0,63.1v21.1m0,7.7v20.1m0,8.8v20m0,7.7v20.1m0,35.5v20m0,7.7v20.1m0,7.6v20.1m0,4.4v20m0,7.7V795m0,126.5v20.1m0,7.7v21.1m0,121v56.8M239.1,112.5v20m0,7.7v20.1m0,24.3v21.2m0,7.6v20.1m0,7.7v20m0,7.7V289m0,57.6v20.1m0,46.5v21.2m0,7.6v21.2m0,36.5v21.2m0,5.4v21.1m0,7.7v20.1m0,8.8v20m0,7.7v20.1m0,7.7v20.1m0,7.7v20m0,7.7v20.1m0,7.6v20.1m0,4.4v20m0,7.7V795m0,126.5v20.1m0,7.7v21.1m14,-857.9v20m0,7.7v20.1m0,24.3v21.2m0,7.6v20.1m0,7.7v20m0,7.7V289m0,57.6v20.1m0,46.5v21.2m0,7.6v21.2m0,36.5v21.2m0,5.4v21.1m0,7.7v20.1m0,8.8v20m0,7.7v20.1m0,7.7v20.1m0,7.7v20m0,7.7v20.1m0,7.6v20.1m0,4.4v20m0,7.7V795m0,126.5v20.1m0,7.7v21.1m4.6,-857.9v20m0,7.7v20.1m0,24.3v21.2m0,7.6v20.1m0,7.7v20m0,7.7V289m0,57.6v20.1m0,46.5v21.2m0,7.6v21.2m0,36.5v21.2m0,5.4v21.1m0,7.7v20.1m0,8.8v20m0,7.7v20.1m0,7.7v20.1m0,7.7v20m0,7.7v20.1m0,7.6v20.1m0,4.4v20m0,7.7V795m0,126.5v20.1m0,7.7v21.1m14,-857.9v20m0,7.7v20.1m0,24.3v21.2m0,7.6v20.1m0,7.7v20m0,7.7V289m0,57.6v20.1m0,46.5v21.2m0,7.6v21.2m0,36.5v21.2m0,5.4v21.1m0,7.7v20.1m0,8.8v20m0,7.7v20.1m0,7.7v20.1m0,7.7v20m0,7.7v20.1m0,7.6v20.1m0,4.4v20m0,7.7V795m0,126.5v20.1m0,7.7v21.1m4.7,-857.9v20m0,7.7v20.1m0,24.3v21.2m0,7.6v20.1m0,7.7v20m0,7.7V289m0,7.7v20.1m0,29.8v20.1m0,46.5v21.2m0,7.6v21.2m0,63.1v21.1m0,7.7v20.1m0,8.8v20m0,7.7v20.1m0,7.7v20.1m0,7.7v20m0,7.7v20.1m0,7.6v20.1m0,4.4v20m0,7.7V795m0,126.5v20.1m0,7.7v21.1m0,6.5v171.3m14,-1035.7v20m0,7.7v20.1m0,24.3v21.2m0,7.6v20.1m0,7.7v20m0,7.7V289m0,7.7v20.1m0,29.8v20.1m0,46.5v21.2m0,7.6v21.2m0,63.1v21.1m0,7.7v20.1m0,8.8v20m0,7.7v20.1m0,7.7v20.1m0,7.7v20m0,7.7v20.1m0,7.6v20.1m0,4.4v20m0,7.7V795m0,126.5v20.1m0,7.7v21.1M295,112.5v20m0,7.7v20.1m0,24.3v21.2m0,7.6v20.1m0,7.7v20m0,7.7V289m0,7.7v20.1m0,29.8v20.1m0,46.5v21.2m0,7.6v21.2m0,7.7v20m0,8.8v21.2m0,5.4v21.1m0,7.7v20.1m0,8.8v20m0,7.7v20.1m0,7.7v20.1m0,7.7v20m0,7.7v20.1m0,7.6v20.1m0,4.4v20m0,7.7V795m0,126.5v20.1m0,7.7v21.1M309,112.5v20m0,7.7v20.1m0,24.3v21.2m0,7.6v20.1m0,7.7v20m0,7.7V289m0,7.7v20.1m0,29.8v20.1m0,46.5v21.2m0,7.6v21.2m0,7.7v20m0,8.8v21.2m0,5.4v21.1m0,7.7v20.1m0,8.8v20m0,7.7v20.1m0,7.7v20.1m0,7.7v20m0,7.7v20.1m0,7.6v20.1m0,4.4v20m0,7.7V795m0,126.5v20.1m0,7.7v21.1m4.7,-857.9v20m0,7.7v20.1m0,24.3v21.2m0,7.6v20.1m0,7.7v20m0,7.7V289m0,7.7v20.1m0,29.8v20.1m0,46.5v21.2m0,7.6v21.2m0,7.7v20m0,8.8v21.2m0,5.4v21.1m0,7.7v20.1m0,8.8v20m0,7.7v20.1m0,35.5v20m0,7.7v20.1m0,7.6v20.1m0,4.4v20m0,7.7V795m0,126.5v20.1m0,7.7v21.1m14,-857.9v20m0,7.7v20.1m0,24.3v21.2m0,7.6v20.1m0,7.7v20m0,7.7V289m0,7.7v20.1m0,29.8v20.1m0,46.5v21.2m0,7.6v21.2m0,7.7v20m0,8.8v21.2m0,5.4v21.1m0,7.7v20.1m0,8.8v20m0,7.7v20.1m0,35.5v20m0,7.7v20.1m0,7.6v20.1m0,4.4v20m0,7.7V795m0,126.5v20.1m0,7.7v21.1m4.6,-857.9v20m0,7.7v20.1m0,24.3v21.2m0,7.6v20.1m0,7.7v20m0,7.7V289m0,7.7v20.1m0,96.4v21.2m0,7.6v21.2m0,7.7v20m0,8.8v21.2m0,5.4v21.1m0,7.7v20.1m0,8.8v20m0,7.7v20.1m0,35.5v20m0,7.7v20.1m0,7.6v20.1m0,4.4v20m0,7.7V795m0,126.5v20.1m0,7.7v21.1m14,-857.9v20m0,7.7v20.1m0,24.3v21.2m0,7.6v20.1m0,7.7v20m0,7.7V289m0,7.7v20.1m0,96.4v21.2m0,7.6v21.2m0,7.7v20m0,8.8v21.2m0,5.4v21.1m0,7.7v20.1m0,8.8v20m0,7.7v20.1m0,35.5v20m0,7.7v20.1m0,7.6v20.1m0,4.4v20m0,7.7V795m0,126.5v20.1m0,7.7v21.1M351,112.5v20m0,7.7v20.1m0,24.3v21.2m0,7.6v20.1m0,7.7v20m0,7.7V289m0,124.2v21.2m0,7.6v21.2m0,7.7v20m0,8.8v21.2m0,5.4v21.1m0,7.7v20.1m0,8.8v20m0,7.7v20.1m0,35.5v20m0,7.7v20.1m0,7.6v20.1m0,4.4v20m0,154.3v20.1m0,7.7v21.1M365,112.5v20m0,7.7v20.1m0,24.3v21.2m0,7.6v20.1m0,7.7v20m0,7.7V289m0,124.2v21.2m0,7.6v21.2m0,7.7v20m0,8.8v21.2m0,5.4v21.1m0,7.7v20.1m0,8.8v20m0,7.7v20.1m0,35.5v20m0,7.7v20.1m0,7.6v20.1m0,4.4v20m0,154.3v20.1m0,7.7v21.1m4.6,-857.9v20m0,7.7v20.1m0,24.3v21.2m0,7.6v20.1m0,7.7v20m0,7.7V289m0,124.2v21.2m0,7.6v21.2m0,7.7v20m0,35.4v21.1m0,7.7v20.1m0,8.8v20m0,7.7v20.1m0,7.7v20.1m0,7.7v20m0,7.7v20.1m0,7.6v20.1m0,4.4v20m0,154.3v20.1m0,7.7v21.1m14,-857.9v20m0,7.7v20.1m0,24.3v21.2m0,7.6v20.1m0,7.7v20m0,7.7V289m0,124.2v21.2m0,7.6v21.2m0,7.7v20m0,35.4v21.1m0,7.7v20.1m0,8.8v20m0,7.7v20.1m0,7.7v20.1m0,7.7v20m0,7.7v20.1m0,7.6v20.1m0,4.4v20m0,154.3v20.1m0,7.7v21.1m4.7,-857.9v20m0,7.7v20.1m0,24.3v21.2m0,7.6v20.1m0,7.7v20m0,7.7V289m0,124.2v21.2m0,7.6v21.2m0,7.7v20m0,35.4v21.1m0,7.7v20.1m0,8.8v20m0,7.7v20.1m0,7.7v20.1m0,7.7v20m0,7.7v20.1m0,7.6v20.1m0,4.4v20m0,154.3v20.1m0,7.7v21.1m14,-857.9v20m0,7.7v20.1m0,24.3v21.2m0,7.6v20.1m0,7.7v20m0,7.7V289m0,124.2v21.2m0,7.6v21.2m0,7.7v20m0,35.4v21.1m0,7.7v20.1m0,8.8v20m0,7.7v20.1m0,7.7v20.1m0,7.7v20m0,7.7v20.1m0,7.6v20.1m0,4.4v20m0,154.3v20.1m0,7.7v21.1m4.6,-857.9v20m0,7.7v20.1m0,24.3v21.2m0,7.6v20.1m0,7.7v20m0,7.7V289m0,7.7v20.1m0,96.4v21.2m0,7.6v21.2m0,7.7v20m0,35.4v21.1m0,7.7v20.1m0,8.8v20m0,7.7v20.1m0,7.7v20.1m0,7.7v20m0,7.7v20.1m0,7.6v20.1m0,4.4v20m0,154.3v20.1m0,7.7v21.1m14,-857.9v20m0,7.7v20.1m0,24.3v21.2m0,7.6v20.1m0,7.7v20m0,7.7V289m0,7.7v20.1m0,96.4v21.2m0,7.6v21.2m0,7.7v20m0,35.4v21.1m0,7.7v20.1m0,8.8v20m0,7.7v20.1m0,7.7v20.1m0,7.7v20m0,7.7v20.1m0,7.6v20.1m0,4.4v20m0,154.3v20.1m0,7.7v21.1m4.7,-857.9v20m0,7.7v20.1m0,24.3v21.2m0,7.6v20.1m0,7.7v20m0,7.7V289m0,7.7v20.1m0,96.4v21.2m0,7.6v21.2m0,7.7v20m0,35.4v21.1m0,7.7v20.1m0,8.8v20m0,7.7v20.1m0,7.7v20.1m0,7.7v20m0,7.7v20.1m0,7.6v20.1m0,4.4v20m0,154.3v20.1m0,7.7v21.1m14,-857.9v20m0,7.7v20.1m0,24.3v21.2m0,7.6v20.1m0,7.7v20m0,7.7V289m0,7.7v20.1m0,96.4v21.2m0,7.6v21.2m0,7.7v20m0,35.4v21.1m0,7.7v20.1m0,8.8v20m0,7.7v20.1m0,7.7v20.1m0,7.7v20m0,7.7v20.1m0,7.6v20.1m0,4.4v20m0,154.3v20.1m0,7.7v21.1m0,6.5v171.3M444.2,112.5v20m0,7.7v20.1m0,24.3v21.2m0,7.6v20.1m0,7.7v20m0,7.7V289m0,7.7v20.1m0,96.4v21.2m0,7.6v21.2m0,7.7v20m0,35.4v21.1m0,7.7v20.1m0,8.8v20m0,7.7v20.1m0,35.5v20m0,7.7v20.1m0,7.6v20.1m0,4.4v20m0,154.3v20.1m0,7.7v21.1m14,-857.9v20m0,7.7v20.1m0,24.3v21.2m0,7.6v20.1m0,7.7v20m0,7.7V289m0,7.7v20.1m0,96.4v21.2m0,7.6v21.2m0,7.7v20m0,35.4v21.1m0,7.7v20.1m0,8.8v20m0,7.7v20.1m0,35.5v20m0,7.7v20.1m0,7.6v20.1m0,4.4v20m0,154.3v20.1m0,7.7v21.1m4.7,-857.9v20m0,7.7v20.1m0,24.3v21.2m0,7.6v20.1m0,7.7v20m0,7.7V289m0,7.7v20.1m0,96.4v21.2m0,7.6v21.2m0,7.7v20m0,8.8v21.2m0,5.4v21.1m0,7.7v20.1m0,8.8v20m0,7.7v20.1m0,35.5v20m0,7.7v20.1m0,7.6v20.1m0,4.4v20m0,154.3v20.1m0,7.7v21.1m14,-857.9v20m0,7.7v20.1m0,24.3v21.2m0,7.6v20.1m0,7.7v20m0,7.7V289m0,7.7v20.1m0,96.4v21.2m0,7.6v21.2m0,7.7v20m0,8.8v21.2m0,5.4v21.1m0,7.7v20.1m0,8.8v20m0,7.7v20.1m0,35.5v20m0,7.7v20.1m0,7.6v20.1m0,4.4v20m0,154.3v20.1m0,7.7v21.1m4.6,-857.9v20m0,7.7v20.1m0,24.3v21.2m0,7.6v20.1m0,7.7v20m0,7.7V289m0,124.2v21.2m0,7.6v21.2m0,7.7v20m0,8.8v21.2m0,5.4v21.1m0,7.7v20.1m0,8.8v20m0,7.7v20.1m0,35.5v20m0,7.7v20.1m0,7.6v20.1m0,4.4v20m0,7.7v69m0,77.6v20.1m0,7.7v21.1m14,-857.9v20m0,7.7v20.1m0,24.3v21.2m0,7.6v20.1m0,7.7v20m0,7.7V289m0,124.2v21.2m0,7.6v21.2m0,7.7v20m0,8.8v21.2m0,5.4v21.1m0,7.7v20.1m0,8.8v20m0,7.7v20.1m0,35.5v20m0,7.7v20.1m0,7.6v20.1m0,4.4v20m0,154.3v20.1m0,7.7v21.1m4.7,-857.9v20m0,7.7v20.1m0,24.3v21.2m0,7.6v20.1m0,7.7v20m0,7.7V289m0,153v21.2m0,63.1v21.1m0,7.7v20.1m0,8.8v20m0,7.7v20.1m0,7.7v20.1m0,7.7v20m0,7.7v20.1m0,7.6v20.1m0,4.4v20m0,154.3v20.1m0,7.7v21.1m14,-857.9v20m0,7.7v20.1m0,24.3v21.2m0,7.6v20.1m0,7.7v20m0,7.7V289m0,153v21.2m0,63.1v21.1m0,7.7v20.1m0,8.8v20m0,7.7v20.1m0,7.7v20.1m0,7.7v20m0,7.7v20.1m0,7.6v20.1m0,4.4v20m0,154.3v20.1m0,7.7v21.1m4.6,-857.9v20m0,7.7v20.1m0,24.3v21.2m0,7.6v20.1m0,7.7v20m0,7.7V289m0,153v21.2m0,63.1v21.1m0,7.7v20.1m0,8.8v20m0,7.7v20.1m0,7.7v20.1m0,7.7v20m0,7.7v20.1m0,7.6v20.1m0,4.4v20m0,154.3v20.1m0,7.7v21.1m14,-857.9v20m0,7.7v20.1m0,24.3v21.2m0,7.6v20.1m0,7.7v20m0,7.7V289m0,153v21.2m0,63.1v21.1m0,7.7v20.1m0,8.8v20m0,7.7v20.1m0,7.7v20.1m0,7.7v20m0,7.7v20.1m0,7.6v20.1m0,4.4v20m0,154.3v20.1m0,7.7v21.1m0,6.5v171.3M537.5,112.5v20m0,7.7v20.1m0,24.3v21.2m0,7.6v20.1m0,7.7v20m0,7.7V289m0,7.7v20.1m0,125.2v21.2m0,7.7v20m0,8.8v21.2m0,5.4v21.1m0,7.7v20.1m0,8.8v20m0,7.7v20.1m0,7.7v20.1m0,7.7v20m0,7.7v20.1m0,7.6v20.1m0,4.4v20m0,154.3v20.1m0,7.7v21.1m14,-857.9v20m0,7.7v20.1m0,24.3v21.2m0,7.6v20.1m0,7.7v20m0,7.7V289m0,7.7v20.1m0,125.2v21.2m0,7.7v20m0,8.8v21.2m0,5.4v21.1m0,7.7v20.1m0,8.8v20m0,7.7v20.1m0,7.7v20.1m0,7.7v20m0,7.7v20.1m0,7.6v20.1m0,4.4v20m0,154.3v20.1m0,7.7v21.1m4.6,-857.9v20m0,7.7v20.1m0,24.3v21.2m0,7.6v20.1m0,7.7v20m0,7.7V289m0,7.7v20.1m0,125.2v21.2m0,7.7v20m0,8.8v21.2m0,5.4v21.1m0,7.7v20.1m0,8.8v20m0,7.7v20.1m0,7.7v20.1m0,7.7v20m0,7.7v20.1m0,7.6v20.1m0,4.4v20m0,154.3v20.1m0,7.7v21.1m14,-857.9v20m0,7.7v20.1m0,24.3v21.2m0,7.6v20.1m0,7.7v20m0,7.7V289m0,7.7v20.1m0,125.2v21.2m0,7.7v20m0,8.8v21.2m0,5.4v21.1m0,7.7v20.1m0,8.8v20m0,7.7v20.1m0,7.7v20.1m0,7.7v20m0,7.7v20.1m0,7.6v20.1m0,4.4v20m0,154.3v20.1m0,7.7v21.1m4.7,-857.9v20m0,52.1v21.2m0,7.6v20.1m0,7.7v20m0,7.7V289m0,7.7v20.1m0,125.2v21.2m0,7.7v20m0,35.4v21.1m0,7.7v20.1m0,8.8v20m0,7.7v20.1m0,35.5v20m0,7.7v20.1m0,7.6v20.1m0,4.4v20m0,154.3v20.1m0,7.7v21.1m14,-857.9v20m0,52.1v21.2m0,7.6v20.1m0,7.7v20m0,7.7V289m0,7.7v20.1m0,125.2v21.2m0,7.7v20m0,35.4v21.1m0,7.7v20.1m0,8.8v20m0,7.7v20.1m0,35.5v20m0,7.7v20.1m0,7.6v20.1m0,4.4v20m0,154.3v20.1m0,7.7v21.1m4.6,-857.9v20m0,7.7v20.1m0,24.3v21.2m0,7.6v20.1m0,7.7v20m0,7.7V289m0,7.7v20.1m0,96.4v21.2m0,7.6v21.2m0,7.7v20m0,8.8v21.2m0,5.4v21.1m0,7.7v20.1m0,8.8v20m0,7.7v20.1m0,35.5v20m0,7.7v20.1m0,7.6v20.1m0,4.4v20m0,127.7v20m0,6.6v20.1m0,7.7v21.1m14,-857.9v20m0,7.7v20.1m0,24.3v21.2m0,7.6v20.1m0,7.7v20m0,7.7V289m0,7.7v20.1m0,96.4v21.2m0,7.6v21.2m0,7.7v20m0,8.8v21.2m0,5.4v21.1m0,7.7v20.1m0,8.8v20m0,7.7v20.1m0,35.5v20m0,7.7v20.1m0,7.6v20.1m0,4.4v20m0,7.7v69m0,51v20m0,6.6v20.1m0,7.7v21.1m4.7,-857.9v20m0,7.7v20.1m0,24.3v21.2m0,7.6v20.1m0,7.7v20m0,7.7V289m0,7.7v20.1m0,96.4v21.2m0,7.6v21.2m0,36.5v21.2m0,5.4v21.1m0,7.7v20.1m0,8.8v20m0,7.7v20.1m0,7.7v20.1m0,235.3v20m0,6.6v20.1m0,7.7v21.1m14,-857.9v20m0,7.7v20.1m0,24.3v21.2m0,7.6v20.1m0,7.7v20m0,7.7V289m0,124.2v21.2m0,7.6v21.2m0,36.5v21.2m0,5.4v21.1m0,7.7v20.1m0,8.8v20m0,7.7v20.1m0,7.7v20.1m0,235.3v20m0,6.6v20.1m0,7.7v21.1m4.6,-857.9v20m0,7.7v20.1m0,24.3v21.2m0,7.6v20.1m0,7.7v20m0,7.7V289m0,153v21.2m0,7.7v20m0,8.8v21.2m0,5.4v21.1m0,7.7v20.1m0,8.8v20m0,7.7v20.1m0,7.7v20.1m0,7.7V843.9m0,77.6v20.1m0,7.7v21.1m14,-857.9v20m0,7.7v20.1m0,24.3v21.2m0,7.6v20.1m0,7.7v20m0,7.7V289m0,153v21.2m0,7.7v20m0,8.8v21.2m0,5.4v21.1m0,7.7v20.1m0,8.8v20m0,7.7v20.1m0,7.7v20.1m0,261.9v20.1m0,7.7v21.1m4.7,-857.9v20m0,7.7v20.1m0,24.3v21.2m0,7.6v20.1m0,7.7v20m0,7.7V289m0,153v21.2m0,7.7v20m0,8.8v21.2m0,5.4v21.1m0,7.7v20.1m0,8.8v20m0,7.7v20.1m0,7.7v20.1m0,261.9v20.1m0,7.7v21.1m14,-857.9v20m0,7.7v20.1m0,24.3v21.2m0,7.6v20.1m0,7.7v20m0,7.7V289m0,153v21.2m0,7.7v20m0,8.8v21.2m0,5.4v21.1m0,7.7v20.1m0,8.8v20m0,7.7v20.1m0,7.7v20.1m0,261.9v20.1m0,7.7v21.1m4.7,-857.9v20m0,7.7v20.1m0,24.3v21.2m0,7.6v20.1m0,7.7v20m0,7.7V289m0,96.5v20m0,7.7v21.2m0,7.6v21.2m0,7.7v20m0,35.4v21.1m0,7.7v20.1m0,8.8v20m0,7.7v20.1m0,7.7v20.1m0,235.3v20m0,6.6v20.1m0,7.7v21.1M682,112.5v20m0,7.7v20.1m0,24.3v21.2m0,7.6v20.1m0,7.7v20m0,7.7V289m0,96.5v20m0,7.7v21.2m0,7.6v21.2m0,7.7v20m0,35.4v21.1m0,7.7v20.1m0,8.8v20m0,7.7v20.1m0,7.7v20.1m0,235.3v20m0,6.6v20.1m0,7.7v21.1m4.7,-857.9v20m0,7.7v20.1m0,24.3v21.2m0,7.6v20.1m0,7.7v20m0,7.7V289m0,124.2v21.2m0,7.6v21.2m0,7.7v20m0,35.4v21.1m0,7.7v20.1m0,8.8v20m0,7.7v20.1m0,7.7v20.1m0,235.3v20m0,6.6v20.1m0,7.7v21.1m14,-857.9v20m0,7.7v20.1m0,24.3v21.2m0,7.6v20.1m0,7.7v20m0,7.7V289m0,124.2v21.2m0,7.6v21.2m0,7.7v20m0,35.4v21.1m0,7.7v20.1m0,8.8v20m0,7.7v20.1m0,7.7v20.1m0,235.3v20m0,6.6v20.1m0,7.7v21.1m4.7,-830.2v20.1m0,24.3v21.2m0,7.6v20.1m0,7.7v20m0,7.7V289m0,153v21.2m0,7.7v20m0,35.4v21.1m0,7.7v20.1m0,8.8v20m0,7.7v20.1m0,7.7v20.1m0,261.9v20.1m0,7.7v21.1M719.3,140.2v20.1m0,24.3v21.2m0,7.6v20.1m0,7.7v20m0,7.7V289m0,7.7v20.1m0,125.2v21.2m0,7.7v20m0,35.4v21.1m0,7.7v20.1m0,8.8v20m0,7.7v20.1m0,7.7v20.1m0,261.9v20.1m0,7.7v21.1M724,112.5v20m0,7.7v20.1m0,24.3v21.2m0,7.6v20.1m0,7.7v20m0,7.7V289m0,7.7v20.1m0,96.4v21.2m0,7.6v21.2m0,7.7v20m0,35.4v21.1m0,7.7v20.1m0,8.8v20m0,7.7v20.1m0,7.7v20.1m0,235.3v20m0,6.6v20.1m0,7.7v21.1M738,112.5v20m0,7.7v20.1m0,24.3v21.2m0,7.6v20.1m0,7.7v20m0,7.7V289m0,7.7v20.1m0,96.4v21.2m0,7.6v21.2m0,7.7v20m0,35.4v21.1m0,7.7v20.1m0,8.8v20m0,7.7v20.1m0,7.7v20.1m0,235.3v20m0,6.6v20.1m0,7.7v21.1m4.7,-857.9v20m0,7.7v20.1m0,24.3v21.2m0,7.6v20.1m0,7.7v20m0,7.7V289m0,7.7v20.1m0,96.4v21.2m0,7.6v21.2m0,7.7v20m0,35.4v21.1m0,7.7v20.1m0,8.8v20m0,7.7v20.1m0,7.7v20.1m0,235.3v20m0,6.6v20.1m0,7.7v21.1M756.6,112.5v20m0,7.7v20.1m0,24.3v21.2m0,7.6v20.1m0,7.7v20m0,7.7V289m0,7.7v20.1m0,96.4v21.2m0,7.6v21.2m0,7.7v20m0,35.4v21.1m0,7.7v20.1m0,8.8v20m0,7.7v20.1m0,7.7v20.1m0,235.3v20m0,6.6v20.1m0,7.7v21.1m4.7,-857.9v20m0,7.7v20.1m0,24.3v21.2m0,7.6v20.1m0,7.7v20m0,7.7V289m0,7.7v20.1m0,96.4v21.2m0,7.6v21.2m0,7.7v20m0,35.4v21.1m0,7.7v20.1m0,8.8v20m0,7.7v20.1m0,7.7v20.1m0,235.3v20m0,6.6v20.1m0,7.7v21.1m14,-857.9v20m0,7.7v20.1m0,24.3v21.2m0,7.6v20.1m0,7.7v20m0,7.7V289m0,7.7v20.1m0,96.4v21.2m0,7.6v21.2m0,7.7v20m0,35.4v21.1m0,7.7v20.1m0,8.8v20m0,7.7v20.1m0,7.7v20.1m0,235.3v20m0,6.6v20.1m0,7.7v21.1M780,184.6v21.2m0,7.6v20.1m0,7.7v20m0,7.7V289m0,7.7v20.1m0,68.7v20m0,7.7v21.2m0,7.6v21.2m0,7.7v20m0,35.4v21.1m0,7.7v20.1m0,8.8v20m0,7.7v20.1m0,7.7v20.1m0,235.3v20m0,6.6v20.1m0,7.7v21.1M793.9,184.6v21.2m0,7.6v20.1m0,7.7v20m0,7.7V289m0,7.7v20.1m0,68.7v20m0,7.7v21.2m0,7.6v21.2m0,7.7v20m0,35.4v21.1m0,7.7v20.1m0,8.8v20m0,7.7v20.1m0,7.7v20.1m0,7.7V843.9m0,51v20m0,6.6v20.1m0,7.7v21.1m0,6.5v171.3" class="g1_2" />
<path fill-rule="evenodd" d="M110.9,70.4H94.6V39.3h32.6V70.4H110.9Z" class="g3_2" />
<path fill-rule="evenodd" d="M110.9,62.6h-8.1V46h16.3V62.6h-8.2Z" class="g4_2" />
<path fill-rule="evenodd" d="M779.6,70.4H763.2V39.3h32.7V70.4H779.6Z" class="g3_2" />
<path fill-rule="evenodd" d="M779.6,62.6h-8.2V46h16.3V62.6h-8.1Z" class="g4_2" />
<path fill-rule="evenodd" d="M110.9,1252.8H94.6v-31.1h32.6v31.1H110.9Z" class="g3_2" />
<path fill-rule="evenodd" d="M110.9,1245h-8.1v-16.6h16.3V1245h-8.2Z" class="g4_2" />
<path fill-rule="evenodd" d="M779.6,1252.8H763.2v-31.1h32.7v31.1H779.6Z" class="g3_2" />
<path fill-rule="evenodd" d="M779.6,1245h-8.2v-16.6h16.3V1245h-8.1Z" class="g4_2" />
<path fill-rule="evenodd" d="M645.4,1252.8H629v-31.1h32.7v31.1H645.4Z" class="g3_2" />
<path fill-rule="evenodd" d="M645.4,1245h-8.2v-16.6h16.3V1245h-8.1Z" class="g4_2" />
</svg>