<?xml version="1.0" encoding="UTF-8" standalone="no"?>
<!DOCTYPE svg PUBLIC "-//W3C//DTD SVG 1.1//EN"
"http://www.w3.org/Graphics/SVG/1.1/DTD/svg11.dtd">
<svg viewBox="0 0 909 1286" version="1.1" xmlns="http://www.w3.org/2000/svg" xmlns:xlink="http://www.w3.org/1999/xlink">
<defs>
<style type="text/css"><![CDATA[
.g0_2{
fill: #C0C0C0;
}
.g1_2{
fill: none;
stroke: #000000;
stroke-width: 0.15277778;
stroke-linecap: butt;
stroke-linejoin: round;
}
.g2_2{
fill: none;
stroke: #000000;
stroke-width: 2.6581805;
stroke-linecap: butt;
stroke-linejoin: round;
}
]]></style>
</defs>
<path fill-rule="evenodd" d="M43.2,73.4H827.6v-52H43.2v52Z" class="g0_2" />
<path fill-rule="evenodd" d="M43.2,88.8H89V73.4H43.2V88.8Z" class="g0_2" />
<path fill-rule="evenodd" d="M102.7,88.8h4.6V73.4h-4.6V88.8Z" class="g0_2" />
<path fill-rule="evenodd" d="M121,88.8h4.7V73.4H121V88.8Z" class="g0_2" />
<path fill-rule="evenodd" d="M139.4,88.8H144V73.4h-4.6V88.8Z" class="g0_2" />
<path fill-rule="evenodd" d="M157.7,88.8h4.7V73.4h-4.7V88.8Z" class="g0_2" />
<path fill-rule="evenodd" d="M176.1,88.8h4.6V73.4h-4.6V88.8Z" class="g0_2" />
<path fill-rule="evenodd" d="M194.4,88.8h4.7V73.4h-4.7V88.8Z" class="g0_2" />
<path fill-rule="evenodd" d="M212.8,88.8h4.6V73.4h-4.6V88.8Z" class="g0_2" />
<path fill-rule="evenodd" d="M231.1,88.8h4.7V73.4h-4.7V88.8Z" class="g0_2" />
<path fill-rule="evenodd" d="M249.5,88.8h4.6V73.4h-4.6V88.8Z" class="g0_2" />
<path fill-rule="evenodd" d="M267.8,88.8h4.7V73.4h-4.7V88.8Z" class="g0_2" />
<path fill-rule="evenodd" d="M286.2,88.8h4.6V73.4h-4.6V88.8Z" class="g0_2" />
<path fill-rule="evenodd" d="M304.5,88.8h4.7V73.4h-4.7V88.8Z" class="g0_2" />
<path fill-rule="evenodd" d="M322.9,88.8h4.6V73.4h-4.6V88.8Z" class="g0_2" />
<path fill-rule="evenodd" d="M341.2,88.8h4.7V73.4h-4.7V88.8Z" class="g0_2" />
<path fill-rule="evenodd" d="M359.6,88.8h4.6V73.4h-4.6V88.8Z" class="g0_2" />
<path fill-rule="evenodd" d="M377.9,88.8h4.7V73.4h-4.7V88.8Z" class="g0_2" />
<path fill-rule="evenodd" d="M396.3,88.8h4.6V73.4h-4.6V88.8Z" class="g0_2" />
<path fill-rule="evenodd" d="M414.6,88.8h4.7V73.4h-4.7V88.8Z" class="g0_2" />
<path fill-rule="evenodd" d="M433,88.8h4.6V73.4H433V88.8Z" class="g0_2" />
<path fill-rule="evenodd" d="M451.3,88.8H456V73.4h-4.7V88.8Z" class="g0_2" />
<path fill-rule="evenodd" d="M469.7,88.8h4.6V73.4h-4.6V88.8Z" class="g0_2" />
<path fill-rule="evenodd" d="M488,88.8h4.7V73.4H488V88.8Z" class="g0_2" />
<path fill-rule="evenodd" d="M506.4,88.8H511V73.4h-4.6V88.8Z" class="g0_2" />
<path fill-rule="evenodd" d="M524.7,88.8h4.7V73.4h-4.7V88.8Z" class="g0_2" />
<path fill-rule="evenodd" d="M543.1,88.8h4.6V73.4h-4.6V88.8Z" class="g0_2" />
<path fill-rule="evenodd" d="M561.4,88.8h4.7V73.4h-4.7V88.8Z" class="g0_2" />
<path fill-rule="evenodd" d="M579.8,88.8h4.6V73.4h-4.6V88.8Z" class="g0_2" />
<path fill-rule="evenodd" d="M598.1,88.8h4.7V73.4h-4.7V88.8Z" class="g0_2" />
<path fill-rule="evenodd" d="M616.5,88.8h4.6V73.4h-4.6V88.8Z" class="g0_2" />
<path fill-rule="evenodd" d="M634.8,88.8h4.7V73.4h-4.7V88.8Z" class="g0_2" />
<path fill-rule="evenodd" d="M653.2,88.8h4.6V73.4h-4.6V88.8Z" class="g0_2" />
<path fill-rule="evenodd" d="M671.5,88.8h4.7V73.4h-4.7V88.8Z" class="g0_2" />
<path fill-rule="evenodd" d="M689.9,88.8h23V73.4h-23V88.8Z" class="g0_2" />
<path fill-rule="evenodd" d="M726.6,88.8h4.6V73.4h-4.6V88.8Z" class="g0_2" />
<path fill-rule="evenodd" d="M744.9,88.8h4.7V73.4h-4.7V88.8Z" class="g0_2" />
<path fill-rule="evenodd" d="M763.3,88.8h64.3V73.4H763.3V88.8Z" class="g0_2" />
<path fill-rule="evenodd" d="M43.2,96.7H827.6v-8H43.2v8Z" class="g0_2" />
<path fill-rule="evenodd" d="M43.2,113.1H89V96.7H43.2v16.4Z" class="g0_2" />
<path fill-rule="evenodd" d="M102.7,113.1h4.6V96.7h-4.6v16.4Z" class="g0_2" />
<path fill-rule="evenodd" d="M121,113.1h4.7V96.7H121v16.4Z" class="g0_2" />
<path fill-rule="evenodd" d="M139.4,113.1H144V96.7h-4.6v16.4Z" class="g0_2" />
<path fill-rule="evenodd" d="M157.7,113.1h4.7V96.7h-4.7v16.4Z" class="g0_2" />
<path fill-rule="evenodd" d="M176.1,113.1h4.6V96.7h-4.6v16.4Z" class="g0_2" />
<path fill-rule="evenodd" d="M194.4,113.1h4.7V96.7h-4.7v16.4Z" class="g0_2" />
<path fill-rule="evenodd" d="M212.8,113.1h4.6V96.7h-4.6v16.4Z" class="g0_2" />
<path fill-rule="evenodd" d="M231.1,113.1h4.7V96.7h-4.7v16.4Z" class="g0_2" />
<path fill-rule="evenodd" d="M249.5,113.1h4.6V96.7h-4.6v16.4Z" class="g0_2" />
<path fill-rule="evenodd" d="M267.8,113.1h4.7V96.7h-4.7v16.4Z" class="g0_2" />
<path fill-rule="evenodd" d="M286.2,113.1h4.6V96.7h-4.6v16.4Z" class="g0_2" />
<path fill-rule="evenodd" d="M304.5,113.1h4.7V96.7h-4.7v16.4Z" class="g0_2" />
<path fill-rule="evenodd" d="M322.9,113.1h4.6V96.7h-4.6v16.4Z" class="g0_2" />
<path fill-rule="evenodd" d="M341.2,113.1h4.7V96.7h-4.7v16.4Z" class="g0_2" />
<path fill-rule="evenodd" d="M359.6,113.1h4.6V96.7h-4.6v16.4Z" class="g0_2" />
<path fill-rule="evenodd" d="M377.9,113.1h4.7V96.7h-4.7v16.4Z" class="g0_2" />
<path fill-rule="evenodd" d="M396.3,113.1h4.6V96.7h-4.6v16.4Z" class="g0_2" />
<path fill-rule="evenodd" d="M414.6,113.1h4.7V96.7h-4.7v16.4Z" class="g0_2" />
<path fill-rule="evenodd" d="M433,113.1h4.6V96.7H433v16.4Z" class="g0_2" />
<path fill-rule="evenodd" d="M451.3,113.1H456V96.7h-4.7v16.4Z" class="g0_2" />
<path fill-rule="evenodd" d="M469.7,113.1h4.6V96.7h-4.6v16.4Z" class="g0_2" />
<path fill-rule="evenodd" d="M488,113.1h4.7V96.7H488v16.4Z" class="g0_2" />
<path fill-rule="evenodd" d="M506.4,113.1H511V96.7h-4.6v16.4Z" class="g0_2" />
<path fill-rule="evenodd" d="M524.7,113.1h4.7V96.7h-4.7v16.4Z" class="g0_2" />
<path fill-rule="evenodd" d="M543.1,113.1h4.6V96.7h-4.6v16.4Z" class="g0_2" />
<path fill-rule="evenodd" d="M561.4,113.1h23V96.7h-23v16.4Z" class="g0_2" />
<path fill-rule="evenodd" d="M598.1,113.1h4.7V96.7h-4.7v16.4Z" class="g0_2" />
<path fill-rule="evenodd" d="M616.5,113.1h4.6V96.7h-4.6v16.4Z" class="g0_2" />
<path fill-rule="evenodd" d="M634.8,113.1h4.7V96.7h-4.7v16.4Z" class="g0_2" />
<path fill-rule="evenodd" d="M653.2,113.1h4.6V96.7h-4.6v16.4Z" class="g0_2" />
<path fill-rule="evenodd" d="M671.5,113.1h4.7V96.7h-4.7v16.4Z" class="g0_2" />
<path fill-rule="evenodd" d="M689.9,113.1h4.6V96.7h-4.6v16.4Z" class="g0_2" />
<path fill-rule="evenodd" d="M708.2,113.1h4.7V96.7h-4.7v16.4Z" class="g0_2" />
<path fill-rule="evenodd" d="M726.6,113.1h4.6V96.7h-4.6v16.4Z" class="g0_2" />
<path fill-rule="evenodd" d="M744.9,113.1h4.7V96.7h-4.7v16.4Z" class="g0_2" />
<path fill-rule="evenodd" d="M763.3,113.1h64.3V96.7H763.3v16.4Z" class="g0_2" />
<path fill-rule="evenodd" d="M43.2,137.5H827.6V113H43.2v24.5Z" class="g0_2" />
<path fill-rule="evenodd" d="M43.2,157.9H180.7V137.5H43.2v20.4Z" class="g0_2" />
<path fill-rule="evenodd" d="M194.4,157.9h4.7V137.5h-4.7v20.4Z" class="g0_2" />
<path fill-rule="evenodd" d="M212.8,157.9h4.6V137.5h-4.6v20.4Z" class="g0_2" />
<path fill-rule="evenodd" d="M231.1,157.9h4.7V137.5h-4.7v20.4Z" class="g0_2" />
<path fill-rule="evenodd" d="M249.5,157.9h4.6V137.5h-4.6v20.4Z" class="g0_2" />
<path fill-rule="evenodd" d="M267.8,157.9h4.7V137.5h-4.7v20.4Z" class="g0_2" />
<path fill-rule="evenodd" d="M286.2,157.9h4.6V137.5h-4.6v20.4Z" class="g0_2" />
<path fill-rule="evenodd" d="M304.5,157.9h4.7V137.5h-4.7v20.4Z" class="g0_2" />
<path fill-rule="evenodd" d="M322.9,157.9h4.6V137.5h-4.6v20.4Z" class="g0_2" />
<path fill-rule="evenodd" d="M341.2,157.9h4.7V137.5h-4.7v20.4Z" class="g0_2" />
<path fill-rule="evenodd" d="M359.6,157.9h4.6V137.5h-4.6v20.4Z" class="g0_2" />
<path fill-rule="evenodd" d="M377.9,157.9h4.7V137.5h-4.7v20.4Z" class="g0_2" />
<path fill-rule="evenodd" d="M396.3,157.9h4.6V137.5h-4.6v20.4Z" class="g0_2" />
<path fill-rule="evenodd" d="M414.6,157.9h4.7V137.5h-4.7v20.4Z" class="g0_2" />
<path fill-rule="evenodd" d="M433,157.9h4.6V137.5H433v20.4Z" class="g0_2" />
<path fill-rule="evenodd" d="M451.3,157.9H456V137.5h-4.7v20.4Z" class="g0_2" />
<path fill-rule="evenodd" d="M469.7,157.9h4.6V137.5h-4.6v20.4Z" class="g0_2" />
<path fill-rule="evenodd" d="M488,157.9h4.7V137.5H488v20.4Z" class="g0_2" />
<path fill-rule="evenodd" d="M506.4,157.9H511V137.5h-4.6v20.4Z" class="g0_2" />
<path fill-rule="evenodd" d="M524.7,157.9h4.7V137.5h-4.7v20.4Z" class="g0_2" />
<path fill-rule="evenodd" d="M543.1,157.9h4.6V137.5h-4.6v20.4Z" class="g0_2" />
<path fill-rule="evenodd" d="M561.4,157.9h4.7V137.5h-4.7v20.4Z" class="g0_2" />
<path fill-rule="evenodd" d="M579.8,157.9h4.6V137.5h-4.6v20.4Z" class="g0_2" />
<path fill-rule="evenodd" d="M598.1,157.9h4.7V137.5h-4.7v20.4Z" class="g0_2" />
<path fill-rule="evenodd" d="M616.5,157.9h4.6V137.5h-4.6v20.4Z" class="g0_2" />
<path fill-rule="evenodd" d="M634.8,157.9h4.7V137.5h-4.7v20.4Z" class="g0_2" />
<path fill-rule="evenodd" d="M653.2,157.9h4.6V137.5h-4.6v20.4Z" class="g0_2" />
<path fill-rule="evenodd" d="M671.5,157.9h4.7V137.5h-4.7v20.4Z" class="g0_2" />
<path fill-rule="evenodd" d="M689.9,157.9h4.6V137.5h-4.6v20.4Z" class="g0_2" />
<path fill-rule="evenodd" d="M708.2,157.9h4.7V137.5h-4.7v20.4Z" class="g0_2" />
<path fill-rule="evenodd" d="M726.6,157.9h4.6V137.5h-4.6v20.4Z" class="g0_2" />
<path fill-rule="evenodd" d="M744.9,157.9h4.7V137.5h-4.7v20.4Z" class="g0_2" />
<path fill-rule="evenodd" d="M763.3,157.9h4.6V137.5h-4.6v20.4Z" class="g0_2" />
<path fill-rule="evenodd" d="M781.6,157.9h46V137.5h-46v20.4Z" class="g0_2" />
<path fill-rule="evenodd" d="M43.2,165.8H827.6v-8H43.2v8Z" class="g0_2" />
<path fill-rule="evenodd" d="M43.2,184.8H144v-19H43.2v19Z" class="g0_2" />
<path fill-rule="evenodd" d="M157.7,184.8h4.7v-19h-4.7v19Z" class="g0_2" />
<path fill-rule="evenodd" d="M176.1,184.8h4.6v-19h-4.6v19Z" class="g0_2" />
<path fill-rule="evenodd" d="M194.4,184.8h4.7v-19h-4.7v19Z" class="g0_2" />
<path fill-rule="evenodd" d="M212.8,184.8h4.6v-19h-4.6v19Z" class="g0_2" />
<path fill-rule="evenodd" d="M231.1,184.8h4.7v-19h-4.7v19Z" class="g0_2" />
<path fill-rule="evenodd" d="M249.5,184.8h4.6v-19h-4.6v19Z" class="g0_2" />
<path fill-rule="evenodd" d="M267.8,184.8h4.7v-19h-4.7v19Z" class="g0_2" />
<path fill-rule="evenodd" d="M286.2,184.8h4.6v-19h-4.6v19Z" class="g0_2" />
<path fill-rule="evenodd" d="M304.5,184.8h4.7v-19h-4.7v19Z" class="g0_2" />
<path fill-rule="evenodd" d="M322.9,184.8h4.6v-19h-4.6v19Z" class="g0_2" />
<path fill-rule="evenodd" d="M341.2,184.8h4.7v-19h-4.7v19Z" class="g0_2" />
<path fill-rule="evenodd" d="M359.6,184.8h4.6v-19h-4.6v19Z" class="g0_2" />
<path fill-rule="evenodd" d="M377.9,184.8h4.7v-19h-4.7v19Z" class="g0_2" />
<path fill-rule="evenodd" d="M396.3,184.8h4.6v-19h-4.6v19Z" class="g0_2" />
<path fill-rule="evenodd" d="M414.6,184.8h4.7v-19h-4.7v19Z" class="g0_2" />
<path fill-rule="evenodd" d="M433,184.8h4.6v-19H433v19Z" class="g0_2" />
<path fill-rule="evenodd" d="M451.3,184.8H456v-19h-4.7v19Z" class="g0_2" />
<path fill-rule="evenodd" d="M469.7,184.8h4.6v-19h-4.6v19Z" class="g0_2" />
<path fill-rule="evenodd" d="M488,184.8h4.7v-19H488v19Z" class="g0_2" />
<path fill-rule="evenodd" d="M506.4,184.8H511v-19h-4.6v19Z" class="g0_2" />
<path fill-rule="evenodd" d="M524.7,184.8h4.7v-19h-4.7v19Z" class="g0_2" />
<path fill-rule="evenodd" d="M543.1,184.8h4.6v-19h-4.6v19Z" class="g0_2" />
<path fill-rule="evenodd" d="M561.4,184.8h4.7v-19h-4.7v19Z" class="g0_2" />
<path fill-rule="evenodd" d="M579.8,184.8h4.6v-19h-4.6v19Z" class="g0_2" />
<path fill-rule="evenodd" d="M598.1,184.8h4.7v-19h-4.7v19Z" class="g0_2" />
<path fill-rule="evenodd" d="M616.5,184.8h4.6v-19h-4.6v19Z" class="g0_2" />
<path fill-rule="evenodd" d="M634.8,184.8h4.7v-19h-4.7v19Z" class="g0_2" />
<path fill-rule="evenodd" d="M653.2,184.8h4.6v-19h-4.6v19Z" class="g0_2" />
<path fill-rule="evenodd" d="M671.5,184.8h4.7v-19h-4.7v19Z" class="g0_2" />
<path fill-rule="evenodd" d="M689.9,184.8h4.6v-19h-4.6v19Z" class="g0_2" />
<path fill-rule="evenodd" d="M708.2,184.8h4.7v-19h-4.7v19Z" class="g0_2" />
<path fill-rule="evenodd" d="M726.6,184.8h4.6v-19h-4.6v19Z" class="g0_2" />
<path fill-rule="evenodd" d="M744.9,184.8h4.7v-19h-4.7v19Z" class="g0_2" />
<path fill-rule="evenodd" d="M763.3,184.8h4.6v-19h-4.6v19Z" class="g0_2" />
<path fill-rule="evenodd" d="M781.6,184.8h46v-19h-46v19Z" class="g0_2" />
<path fill-rule="evenodd" d="M43.2,192.8H827.6v-8H43.2v8Z" class="g0_2" />
<path fill-rule="evenodd" d="M43.2,213.1H180.7V192.7H43.2v20.4Z" class="g0_2" />
<path fill-rule="evenodd" d="M194.4,213.1h4.7V192.7h-4.7v20.4Z" class="g0_2" />
<path fill-rule="evenodd" d="M212.8,213.1h4.6V192.7h-4.6v20.4Z" class="g0_2" />
<path fill-rule="evenodd" d="M231.1,213.1h4.7V192.7h-4.7v20.4Z" class="g0_2" />
<path fill-rule="evenodd" d="M249.5,213.1h4.6V192.7h-4.6v20.4Z" class="g0_2" />
<path fill-rule="evenodd" d="M267.8,213.1h4.7V192.7h-4.7v20.4Z" class="g0_2" />
<path fill-rule="evenodd" d="M286.2,213.1h4.6V192.7h-4.6v20.4Z" class="g0_2" />
<path fill-rule="evenodd" d="M304.5,213.1h4.7V192.7h-4.7v20.4Z" class="g0_2" />
<path fill-rule="evenodd" d="M322.9,213.1h4.6V192.7h-4.6v20.4Z" class="g0_2" />
<path fill-rule="evenodd" d="M341.2,213.1h4.7V192.7h-4.7v20.4Z" class="g0_2" />
<path fill-rule="evenodd" d="M359.6,213.1h4.6V192.7h-4.6v20.4Z" class="g0_2" />
<path fill-rule="evenodd" d="M377.9,213.1h4.7V192.7h-4.7v20.4Z" class="g0_2" />
<path fill-rule="evenodd" d="M396.3,213.1h4.6V192.7h-4.6v20.4Z" class="g0_2" />
<path fill-rule="evenodd" d="M414.6,213.1h4.7V192.7h-4.7v20.4Z" class="g0_2" />
<path fill-rule="evenodd" d="M433,213.1h4.6V192.7H433v20.4Z" class="g0_2" />
<path fill-rule="evenodd" d="M451.3,213.1H456V192.7h-4.7v20.4Z" class="g0_2" />
<path fill-rule="evenodd" d="M469.7,213.1h4.6V192.7h-4.6v20.4Z" class="g0_2" />
<path fill-rule="evenodd" d="M488,213.1h4.7V192.7H488v20.4Z" class="g0_2" />
<path fill-rule="evenodd" d="M506.4,213.1H511V192.7h-4.6v20.4Z" class="g0_2" />
<path fill-rule="evenodd" d="M524.7,213.1h4.7V192.7h-4.7v20.4Z" class="g0_2" />
<path fill-rule="evenodd" d="M543.1,213.1h4.6V192.7h-4.6v20.4Z" class="g0_2" />
<path fill-rule="evenodd" d="M561.4,213.1h4.7V192.7h-4.7v20.4Z" class="g0_2" />
<path fill-rule="evenodd" d="M579.8,213.1h4.6V192.7h-4.6v20.4Z" class="g0_2" />
<path fill-rule="evenodd" d="M598.1,213.1h4.7V192.7h-4.7v20.4Z" class="g0_2" />
<path fill-rule="evenodd" d="M616.5,213.1h4.6V192.7h-4.6v20.4Z" class="g0_2" />
<path fill-rule="evenodd" d="M634.8,213.1h4.7V192.7h-4.7v20.4Z" class="g0_2" />
<path fill-rule="evenodd" d="M653.2,213.1h4.6V192.7h-4.6v20.4Z" class="g0_2" />
<path fill-rule="evenodd" d="M671.5,213.1h4.7V192.7h-4.7v20.4Z" class="g0_2" />
<path fill-rule="evenodd" d="M689.9,213.1h4.6V192.7h-4.6v20.4Z" class="g0_2" />
<path fill-rule="evenodd" d="M708.2,213.1h4.7V192.7h-4.7v20.4Z" class="g0_2" />
<path fill-rule="evenodd" d="M726.6,213.1h4.6V192.7h-4.6v20.4Z" class="g0_2" />
<path fill-rule="evenodd" d="M744.9,213.1h4.7V192.7h-4.7v20.4Z" class="g0_2" />
<path fill-rule="evenodd" d="M763.3,213.1h4.6V192.7h-4.6v20.4Z" class="g0_2" />
<path fill-rule="evenodd" d="M781.6,213.1h46V192.7h-46v20.4Z" class="g0_2" />
<path fill-rule="evenodd" d="M43.2,221.1H827.6v-8H43.2v8Z" class="g0_2" />
<path fill-rule="evenodd" d="M43.2,240.1H144V221H43.2v19.1Z" class="g0_2" />
<path fill-rule="evenodd" d="M157.7,240.1h4.7V221h-4.7v19.1Z" class="g0_2" />
<path fill-rule="evenodd" d="M176.1,240.1h4.6V221h-4.6v19.1Z" class="g0_2" />
<path fill-rule="evenodd" d="M194.4,240.1h4.7V221h-4.7v19.1Z" class="g0_2" />
<path fill-rule="evenodd" d="M212.8,240.1h4.6V221h-4.6v19.1Z" class="g0_2" />
<path fill-rule="evenodd" d="M231.1,240.1h4.7V221h-4.7v19.1Z" class="g0_2" />
<path fill-rule="evenodd" d="M249.5,240.1h4.6V221h-4.6v19.1Z" class="g0_2" />
<path fill-rule="evenodd" d="M267.8,240.1h4.7V221h-4.7v19.1Z" class="g0_2" />
<path fill-rule="evenodd" d="M286.2,240.1h4.6V221h-4.6v19.1Z" class="g0_2" />
<path fill-rule="evenodd" d="M304.5,240.1h4.7V221h-4.7v19.1Z" class="g0_2" />
<path fill-rule="evenodd" d="M322.9,240.1h4.6V221h-4.6v19.1Z" class="g0_2" />
<path fill-rule="evenodd" d="M341.2,240.1h4.7V221h-4.7v19.1Z" class="g0_2" />
<path fill-rule="evenodd" d="M359.6,240.1h4.6V221h-4.6v19.1Z" class="g0_2" />
<path fill-rule="evenodd" d="M377.9,240.1h4.7V221h-4.7v19.1Z" class="g0_2" />
<path fill-rule="evenodd" d="M396.3,240.1h4.6V221h-4.6v19.1Z" class="g0_2" />
<path fill-rule="evenodd" d="M414.6,240.1h4.7V221h-4.7v19.1Z" class="g0_2" />
<path fill-rule="evenodd" d="M433,240.1h4.6V221H433v19.1Z" class="g0_2" />
<path fill-rule="evenodd" d="M451.3,240.1H456V221h-4.7v19.1Z" class="g0_2" />
<path fill-rule="evenodd" d="M469.7,240.1h4.6V221h-4.6v19.1Z" class="g0_2" />
<path fill-rule="evenodd" d="M488,240.1h4.7V221H488v19.1Z" class="g0_2" />
<path fill-rule="evenodd" d="M506.4,240.1H511V221h-4.6v19.1Z" class="g0_2" />
<path fill-rule="evenodd" d="M524.7,240.1h4.7V221h-4.7v19.1Z" class="g0_2" />
<path fill-rule="evenodd" d="M543.1,240.1h4.6V221h-4.6v19.1Z" class="g0_2" />
<path fill-rule="evenodd" d="M561.4,240.1h4.7V221h-4.7v19.1Z" class="g0_2" />
<path fill-rule="evenodd" d="M579.8,240.1h4.6V221h-4.6v19.1Z" class="g0_2" />
<path fill-rule="evenodd" d="M598.1,240.1h4.7V221h-4.7v19.1Z" class="g0_2" />
<path fill-rule="evenodd" d="M616.5,240.1h4.6V221h-4.6v19.1Z" class="g0_2" />
<path fill-rule="evenodd" d="M634.8,240.1h4.7V221h-4.7v19.1Z" class="g0_2" />
<path fill-rule="evenodd" d="M653.2,240.1h4.6V221h-4.6v19.1Z" class="g0_2" />
<path fill-rule="evenodd" d="M671.5,240.1h4.7V221h-4.7v19.1Z" class="g0_2" />
<path fill-rule="evenodd" d="M689.9,240.1h4.6V221h-4.6v19.1Z" class="g0_2" />
<path fill-rule="evenodd" d="M708.2,240.1h4.7V221h-4.7v19.1Z" class="g0_2" />
<path fill-rule="evenodd" d="M726.6,240.1h4.6V221h-4.6v19.1Z" class="g0_2" />
<path fill-rule="evenodd" d="M744.9,240.1h4.7V221h-4.7v19.1Z" class="g0_2" />
<path fill-rule="evenodd" d="M763.3,240.1h4.6V221h-4.6v19.1Z" class="g0_2" />
<path fill-rule="evenodd" d="M781.6,240.1h46V221h-46v19.1Z" class="g0_2" />
<path fill-rule="evenodd" d="M43.2,248H827.6v-7.9H43.2V248Z" class="g0_2" />
<path fill-rule="evenodd" d="M43.2,267.1H89V248H43.2v19.1Z" class="g0_2" />
<path fill-rule="evenodd" d="M231.1,267.1h4.7V248h-4.7v19.1Z" class="g0_2" />
<path fill-rule="evenodd" d="M249.5,267.1h4.6V248h-4.6v19.1Z" class="g0_2" />
<path fill-rule="evenodd" d="M267.8,267.1h4.7V248h-4.7v19.1Z" class="g0_2" />
<path fill-rule="evenodd" d="M286.2,267.1h4.6V248h-4.6v19.1Z" class="g0_2" />
<path fill-rule="evenodd" d="M304.5,267.1h4.7V248h-4.7v19.1Z" class="g0_2" />
<path fill-rule="evenodd" d="M322.9,267.1h4.6V248h-4.6v19.1Z" class="g0_2" />
<path fill-rule="evenodd" d="M341.2,267.1h4.7V248h-4.7v19.1Z" class="g0_2" />
<path fill-rule="evenodd" d="M359.6,267.1h4.6V248h-4.6v19.1Z" class="g0_2" />
<path fill-rule="evenodd" d="M377.9,267.1h59.7V248H377.9v19.1Z" class="g0_2" />
<path fill-rule="evenodd" d="M451.3,267.1H456V248h-4.7v19.1Z" class="g0_2" />
<path fill-rule="evenodd" d="M469.7,267.1h59.7V248H469.7v19.1Z" class="g0_2" />
<path fill-rule="evenodd" d="M543.1,267.1h4.6V248h-4.6v19.1Z" class="g0_2" />
<path fill-rule="evenodd" d="M561.4,267.1h4.7V248h-4.7v19.1Z" class="g0_2" />
<path fill-rule="evenodd" d="M579.8,267.1h4.6V248h-4.6v19.1Z" class="g0_2" />
<path fill-rule="evenodd" d="M598.1,267.1h4.7V248h-4.7v19.1Z" class="g0_2" />
<path fill-rule="evenodd" d="M708.2,267.1h4.7V248h-4.7v19.1Z" class="g0_2" />
<path fill-rule="evenodd" d="M726.6,267.1h4.6V248h-4.6v19.1Z" class="g0_2" />
<path fill-rule="evenodd" d="M744.9,267.1h4.7V248h-4.7v19.1Z" class="g0_2" />
<path fill-rule="evenodd" d="M763.3,267.1h4.6V248h-4.6v19.1Z" class="g0_2" />
<path fill-rule="evenodd" d="M781.6,267.1h46V248h-46v19.1Z" class="g0_2" />
<path fill-rule="evenodd" d="M43.2,313.8H827.6V267H43.2v46.8Z" class="g0_2" />
<path fill-rule="evenodd" d="M43.2,335.3H657.8V313.7H43.2v21.6Z" class="g0_2" />
<path fill-rule="evenodd" d="M671.5,335.3h96.4V313.7H671.5v21.6Z" class="g0_2" />
<path fill-rule="evenodd" d="M781.6,335.3h46V313.7h-46v21.6Z" class="g0_2" />
<path fill-rule="evenodd" d="M43.2,343.2H827.6v-8H43.2v8Z" class="g0_2" />
<path fill-rule="evenodd" d="M43.2,363.6H144V343.2H43.2v20.4Z" class="g0_2" />
<path fill-rule="evenodd" d="M157.7,363.6h4.7V343.2h-4.7v20.4Z" class="g0_2" />
<path fill-rule="evenodd" d="M176.1,363.6h4.6V343.2h-4.6v20.4Z" class="g0_2" />
<path fill-rule="evenodd" d="M194.4,363.6h4.7V343.2h-4.7v20.4Z" class="g0_2" />
<path fill-rule="evenodd" d="M212.8,363.6h4.6V343.2h-4.6v20.4Z" class="g0_2" />
<path fill-rule="evenodd" d="M231.1,363.6h4.7V343.2h-4.7v20.4Z" class="g0_2" />
<path fill-rule="evenodd" d="M249.5,363.6h4.6V343.2h-4.6v20.4Z" class="g0_2" />
<path fill-rule="evenodd" d="M267.8,363.6h4.7V343.2h-4.7v20.4Z" class="g0_2" />
<path fill-rule="evenodd" d="M286.2,363.6h4.6V343.2h-4.6v20.4Z" class="g0_2" />
<path fill-rule="evenodd" d="M304.5,363.6h4.7V343.2h-4.7v20.4Z" class="g0_2" />
<path fill-rule="evenodd" d="M322.9,363.6h4.6V343.2h-4.6v20.4Z" class="g0_2" />
<path fill-rule="evenodd" d="M341.2,363.6h4.7V343.2h-4.7v20.4Z" class="g0_2" />
<path fill-rule="evenodd" d="M359.6,363.6h4.6V343.2h-4.6v20.4Z" class="g0_2" />
<path fill-rule="evenodd" d="M377.9,363.6h4.7V343.2h-4.7v20.4Z" class="g0_2" />
<path fill-rule="evenodd" d="M396.3,363.6h4.6V343.2h-4.6v20.4Z" class="g0_2" />
<path fill-rule="evenodd" d="M414.6,363.6h4.7V343.2h-4.7v20.4Z" class="g0_2" />
<path fill-rule="evenodd" d="M433,363.6h4.6V343.2H433v20.4Z" class="g0_2" />
<path fill-rule="evenodd" d="M451.3,363.6H456V343.2h-4.7v20.4Z" class="g0_2" />
<path fill-rule="evenodd" d="M469.7,363.6h4.6V343.2h-4.6v20.4Z" class="g0_2" />
<path fill-rule="evenodd" d="M488,363.6h96.4V343.2H488v20.4Z" class="g0_2" />
<path fill-rule="evenodd" d="M598.1,363.6h4.7V343.2h-4.7v20.4Z" class="g0_2" />
<path fill-rule="evenodd" d="M616.5,363.6h41.3V343.2H616.5v20.4Z" class="g0_2" />
<path fill-rule="evenodd" d="M671.5,363.6h4.7V343.2h-4.7v20.4Z" class="g0_2" />
<path fill-rule="evenodd" d="M689.9,363.6h23V343.2h-23v20.4Z" class="g0_2" />
<path fill-rule="evenodd" d="M726.6,363.6h4.6V343.2h-4.6v20.4Z" class="g0_2" />
<path fill-rule="evenodd" d="M744.9,363.6h4.7V343.2h-4.7v20.4Z" class="g0_2" />
<path fill-rule="evenodd" d="M763.3,363.6h4.6V343.2h-4.6v20.4Z" class="g0_2" />
<path fill-rule="evenodd" d="M781.6,363.6h46V343.2h-46v20.4Z" class="g0_2" />
<path fill-rule="evenodd" d="M43.2,371.5H827.6v-8H43.2v8Z" class="g0_2" />
<path fill-rule="evenodd" d="M43.2,391.9H144V371.5H43.2v20.4Z" class="g0_2" />
<path fill-rule="evenodd" d="M157.7,391.9h4.7V371.5h-4.7v20.4Z" class="g0_2" />
<path fill-rule="evenodd" d="M176.1,391.9h4.6V371.5h-4.6v20.4Z" class="g0_2" />
<path fill-rule="evenodd" d="M194.4,391.9h4.7V371.5h-4.7v20.4Z" class="g0_2" />
<path fill-rule="evenodd" d="M212.8,391.9h4.6V371.5h-4.6v20.4Z" class="g0_2" />
<path fill-rule="evenodd" d="M231.1,391.9h4.7V371.5h-4.7v20.4Z" class="g0_2" />
<path fill-rule="evenodd" d="M249.5,391.9h4.6V371.5h-4.6v20.4Z" class="g0_2" />
<path fill-rule="evenodd" d="M267.8,391.9h4.7V371.5h-4.7v20.4Z" class="g0_2" />
<path fill-rule="evenodd" d="M286.2,391.9h4.6V371.5h-4.6v20.4Z" class="g0_2" />
<path fill-rule="evenodd" d="M304.5,391.9h4.7V371.5h-4.7v20.4Z" class="g0_2" />
<path fill-rule="evenodd" d="M322.9,391.9h4.6V371.5h-4.6v20.4Z" class="g0_2" />
<path fill-rule="evenodd" d="M341.2,391.9h4.7V371.5h-4.7v20.4Z" class="g0_2" />
<path fill-rule="evenodd" d="M359.6,391.9h4.6V371.5h-4.6v20.4Z" class="g0_2" />
<path fill-rule="evenodd" d="M377.9,391.9h4.7V371.5h-4.7v20.4Z" class="g0_2" />
<path fill-rule="evenodd" d="M396.3,391.9h4.6V371.5h-4.6v20.4Z" class="g0_2" />
<path fill-rule="evenodd" d="M414.6,391.9h4.7V371.5h-4.7v20.4Z" class="g0_2" />
<path fill-rule="evenodd" d="M433,391.9h4.6V371.5H433v20.4Z" class="g0_2" />
<path fill-rule="evenodd" d="M451.3,391.9H456V371.5h-4.7v20.4Z" class="g0_2" />
<path fill-rule="evenodd" d="M469.7,391.9h4.6V371.5h-4.6v20.4Z" class="g0_2" />
<path fill-rule="evenodd" d="M488,391.9h4.7V371.5H488v20.4Z" class="g0_2" />
<path fill-rule="evenodd" d="M506.4,391.9H511V371.5h-4.6v20.4Z" class="g0_2" />
<path fill-rule="evenodd" d="M524.7,391.9h4.7V371.5h-4.7v20.4Z" class="g0_2" />
<path fill-rule="evenodd" d="M543.1,391.9h4.6V371.5h-4.6v20.4Z" class="g0_2" />
<path fill-rule="evenodd" d="M561.4,391.9h4.7V371.5h-4.7v20.4Z" class="g0_2" />
<path fill-rule="evenodd" d="M579.8,391.9h4.6V371.5h-4.6v20.4Z" class="g0_2" />
<path fill-rule="evenodd" d="M598.1,391.9h4.7V371.5h-4.7v20.4Z" class="g0_2" />
<path fill-rule="evenodd" d="M616.5,391.9h4.6V371.5h-4.6v20.4Z" class="g0_2" />
<path fill-rule="evenodd" d="M634.8,391.9h4.7V371.5h-4.7v20.4Z" class="g0_2" />
<path fill-rule="evenodd" d="M653.2,391.9h4.6V371.5h-4.6v20.4Z" class="g0_2" />
<path fill-rule="evenodd" d="M671.5,391.9h4.7V371.5h-4.7v20.4Z" class="g0_2" />
<path fill-rule="evenodd" d="M689.9,391.9h4.6V371.5h-4.6v20.4Z" class="g0_2" />
<path fill-rule="evenodd" d="M708.2,391.9h4.7V371.5h-4.7v20.4Z" class="g0_2" />
<path fill-rule="evenodd" d="M726.6,391.9h4.6V371.5h-4.6v20.4Z" class="g0_2" />
<path fill-rule="evenodd" d="M744.9,391.9h4.7V371.5h-4.7v20.4Z" class="g0_2" />
<path fill-rule="evenodd" d="M763.3,391.9h4.6V371.5h-4.6v20.4Z" class="g0_2" />
<path fill-rule="evenodd" d="M781.6,391.9h46V371.5h-46v20.4Z" class="g0_2" />
<path fill-rule="evenodd" d="M43.2,399.8H827.6v-8H43.2v8Z" class="g0_2" />
<path fill-rule="evenodd" d="M43.2,418.8H290.8v-19H43.2v19Z" class="g0_2" />
<path fill-rule="evenodd" d="M304.5,418.8h4.7v-19h-4.7v19Z" class="g0_2" />
<path fill-rule="evenodd" d="M322.9,418.8h4.6v-19h-4.6v19Z" class="g0_2" />
<path fill-rule="evenodd" d="M341.2,418.8h4.7v-19h-4.7v19Z" class="g0_2" />
<path fill-rule="evenodd" d="M359.6,418.8h4.6v-19h-4.6v19Z" class="g0_2" />
<path fill-rule="evenodd" d="M377.9,418.8h4.7v-19h-4.7v19Z" class="g0_2" />
<path fill-rule="evenodd" d="M396.3,418.8h4.6v-19h-4.6v19Z" class="g0_2" />
<path fill-rule="evenodd" d="M414.6,418.8h4.7v-19h-4.7v19Z" class="g0_2" />
<path fill-rule="evenodd" d="M433,418.8h4.6v-19H433v19Z" class="g0_2" />
<path fill-rule="evenodd" d="M451.3,418.8H456v-19h-4.7v19Z" class="g0_2" />
<path fill-rule="evenodd" d="M469.7,418.8h4.6v-19h-4.6v19Z" class="g0_2" />
<path fill-rule="evenodd" d="M488,418.8h41.4v-19H488v19Z" class="g0_2" />
<path fill-rule="evenodd" d="M543.1,418.8h4.6v-19h-4.6v19Z" class="g0_2" />
<path fill-rule="evenodd" d="M561.4,418.8h4.7v-19h-4.7v19Z" class="g0_2" />
<path fill-rule="evenodd" d="M579.8,418.8h4.6v-19h-4.6v19Z" class="g0_2" />
<path fill-rule="evenodd" d="M598.1,418.8h23v-19h-23v19Z" class="g0_2" />
<path fill-rule="evenodd" d="M634.8,418.8h4.7v-19h-4.7v19Z" class="g0_2" />
<path fill-rule="evenodd" d="M653.2,418.8h4.6v-19h-4.6v19Z" class="g0_2" />
<path fill-rule="evenodd" d="M671.5,418.8h4.7v-19h-4.7v19Z" class="g0_2" />
<path fill-rule="evenodd" d="M689.9,418.8h4.6v-19h-4.6v19Z" class="g0_2" />
<path fill-rule="evenodd" d="M708.2,418.8h4.7v-19h-4.7v19Z" class="g0_2" />
<path fill-rule="evenodd" d="M726.6,418.8h4.6v-19h-4.6v19Z" class="g0_2" />
<path fill-rule="evenodd" d="M744.9,418.8h4.7v-19h-4.7v19Z" class="g0_2" />
<path fill-rule="evenodd" d="M763.3,418.8h4.6v-19h-4.6v19Z" class="g0_2" />
<path fill-rule="evenodd" d="M781.6,418.8h46v-19h-46v19Z" class="g0_2" />
<path fill-rule="evenodd" d="M43.2,426.8H827.6v-8H43.2v8Z" class="g0_2" />
<path fill-rule="evenodd" d="M43.2,447.1H162.4V426.7H43.2v20.4Z" class="g0_2" />
<path fill-rule="evenodd" d="M176.1,447.1h4.6V426.7h-4.6v20.4Z" class="g0_2" />
<path fill-rule="evenodd" d="M194.4,447.1h41.4V426.7H194.4v20.4Z" class="g0_2" />
<path fill-rule="evenodd" d="M249.5,447.1h4.6V426.7h-4.6v20.4Z" class="g0_2" />
<path fill-rule="evenodd" d="M267.8,447.1h23V426.7h-23v20.4Z" class="g0_2" />
<path fill-rule="evenodd" d="M304.5,447.1h4.7V426.7h-4.7v20.4Z" class="g0_2" />
<path fill-rule="evenodd" d="M322.9,447.1h4.6V426.7h-4.6v20.4Z" class="g0_2" />
<path fill-rule="evenodd" d="M341.2,447.1h4.7V426.7h-4.7v20.4Z" class="g0_2" />
<path fill-rule="evenodd" d="M359.6,447.1H456V426.7H359.6v20.4Z" class="g0_2" />
<path fill-rule="evenodd" d="M469.7,447.1h4.6V426.7h-4.6v20.4Z" class="g0_2" />
<path fill-rule="evenodd" d="M488,447.1h41.4V426.7H488v20.4Z" class="g0_2" />
<path fill-rule="evenodd" d="M543.1,447.1h4.6V426.7h-4.6v20.4Z" class="g0_2" />
<path fill-rule="evenodd" d="M561.4,447.1h23V426.7h-23v20.4Z" class="g0_2" />
<path fill-rule="evenodd" d="M598.1,447.1h4.7V426.7h-4.7v20.4Z" class="g0_2" />
<path fill-rule="evenodd" d="M616.5,447.1h4.6V426.7h-4.6v20.4Z" class="g0_2" />
<path fill-rule="evenodd" d="M634.8,447.1h4.7V426.7h-4.7v20.4Z" class="g0_2" />
<path fill-rule="evenodd" d="M653.2,447.1H827.6V426.7H653.2v20.4Z" class="g0_2" />
<path fill-rule="evenodd" d="M43.2,452.8H827.6v-5.7H43.2v5.7Z" class="g0_2" />
<path fill-rule="evenodd" d="M43.2,473.2H180.7V452.8H43.2v20.4Z" class="g0_2" />
<path fill-rule="evenodd" d="M194.4,473.2h4.7V452.8h-4.7v20.4Z" class="g0_2" />
<path fill-rule="evenodd" d="M212.8,473.2h4.6V452.8h-4.6v20.4Z" class="g0_2" />
<path fill-rule="evenodd" d="M231.1,473.2h4.7V452.8h-4.7v20.4Z" class="g0_2" />
<path fill-rule="evenodd" d="M249.5,473.2h4.6V452.8h-4.6v20.4Z" class="g0_2" />
<path fill-rule="evenodd" d="M267.8,473.2h4.7V452.8h-4.7v20.4Z" class="g0_2" />
<path fill-rule="evenodd" d="M286.2,473.2h4.6V452.8h-4.6v20.4Z" class="g0_2" />
<path fill-rule="evenodd" d="M304.5,473.2h4.7V452.8h-4.7v20.4Z" class="g0_2" />
<path fill-rule="evenodd" d="M322.9,473.2h4.6V452.8h-4.6v20.4Z" class="g0_2" />
<path fill-rule="evenodd" d="M341.2,473.2h4.7V452.8h-4.7v20.4Z" class="g0_2" />
<path fill-rule="evenodd" d="M359.6,473.2h4.6V452.8h-4.6v20.4Z" class="g0_2" />
<path fill-rule="evenodd" d="M377.9,473.2h4.7V452.8h-4.7v20.4Z" class="g0_2" />
<path fill-rule="evenodd" d="M396.3,473.2h4.6V452.8h-4.6v20.4Z" class="g0_2" />
<path fill-rule="evenodd" d="M414.6,473.2h4.7V452.8h-4.7v20.4Z" class="g0_2" />
<path fill-rule="evenodd" d="M433,473.2h4.6V452.8H433v20.4Z" class="g0_2" />
<path fill-rule="evenodd" d="M451.3,473.2H456V452.8h-4.7v20.4Z" class="g0_2" />
<path fill-rule="evenodd" d="M469.7,473.2h4.6V452.8h-4.6v20.4Z" class="g0_2" />
<path fill-rule="evenodd" d="M488,473.2h4.7V452.8H488v20.4Z" class="g0_2" />
<path fill-rule="evenodd" d="M506.4,473.2H511V452.8h-4.6v20.4Z" class="g0_2" />
<path fill-rule="evenodd" d="M524.7,473.2h4.7V452.8h-4.7v20.4Z" class="g0_2" />
<path fill-rule="evenodd" d="M543.1,473.2h4.6V452.8h-4.6v20.4Z" class="g0_2" />
<path fill-rule="evenodd" d="M561.4,473.2h4.7V452.8h-4.7v20.4Z" class="g0_2" />
<path fill-rule="evenodd" d="M579.8,473.2h4.6V452.8h-4.6v20.4Z" class="g0_2" />
<path fill-rule="evenodd" d="M598.1,473.2h4.7V452.8h-4.7v20.4Z" class="g0_2" />
<path fill-rule="evenodd" d="M616.5,473.2h4.6V452.8h-4.6v20.4Z" class="g0_2" />
<path fill-rule="evenodd" d="M634.8,473.2h4.7V452.8h-4.7v20.4Z" class="g0_2" />
<path fill-rule="evenodd" d="M653.2,473.2h4.6V452.8h-4.6v20.4Z" class="g0_2" />
<path fill-rule="evenodd" d="M671.5,473.2h4.7V452.8h-4.7v20.4Z" class="g0_2" />
<path fill-rule="evenodd" d="M689.9,473.2h4.6V452.8h-4.6v20.4Z" class="g0_2" />
<path fill-rule="evenodd" d="M708.2,473.2h4.7V452.8h-4.7v20.4Z" class="g0_2" />
<path fill-rule="evenodd" d="M726.6,473.2h4.6V452.8h-4.6v20.4Z" class="g0_2" />
<path fill-rule="evenodd" d="M744.9,473.2h4.7V452.8h-4.7v20.4Z" class="g0_2" />
<path fill-rule="evenodd" d="M763.3,473.2h4.6V452.8h-4.6v20.4Z" class="g0_2" />
<path fill-rule="evenodd" d="M781.6,473.2h46V452.8h-46v20.4Z" class="g0_2" />
<path fill-rule="evenodd" d="M43.2,481.1H827.6v-8H43.2v8Z" class="g0_2" />
<path fill-rule="evenodd" d="M43.2,500.1H144V481H43.2v19.1Z" class="g0_2" />
<path fill-rule="evenodd" d="M157.7,500.1h4.7V481h-4.7v19.1Z" class="g0_2" />
<path fill-rule="evenodd" d="M176.1,500.1h4.6V481h-4.6v19.1Z" class="g0_2" />
<path fill-rule="evenodd" d="M194.4,500.1h4.7V481h-4.7v19.1Z" class="g0_2" />
<path fill-rule="evenodd" d="M212.8,500.1h4.6V481h-4.6v19.1Z" class="g0_2" />
<path fill-rule="evenodd" d="M231.1,500.1h4.7V481h-4.7v19.1Z" class="g0_2" />
<path fill-rule="evenodd" d="M249.5,500.1h4.6V481h-4.6v19.1Z" class="g0_2" />
<path fill-rule="evenodd" d="M267.8,500.1h4.7V481h-4.7v19.1Z" class="g0_2" />
<path fill-rule="evenodd" d="M286.2,500.1h4.6V481h-4.6v19.1Z" class="g0_2" />
<path fill-rule="evenodd" d="M304.5,500.1h4.7V481h-4.7v19.1Z" class="g0_2" />
<path fill-rule="evenodd" d="M322.9,500.1h4.6V481h-4.6v19.1Z" class="g0_2" />
<path fill-rule="evenodd" d="M341.2,500.1h4.7V481h-4.7v19.1Z" class="g0_2" />
<path fill-rule="evenodd" d="M359.6,500.1h4.6V481h-4.6v19.1Z" class="g0_2" />
<path fill-rule="evenodd" d="M377.9,500.1h4.7V481h-4.7v19.1Z" class="g0_2" />
<path fill-rule="evenodd" d="M396.3,500.1h4.6V481h-4.6v19.1Z" class="g0_2" />
<path fill-rule="evenodd" d="M414.6,500.1h4.7V481h-4.7v19.1Z" class="g0_2" />
<path fill-rule="evenodd" d="M433,500.1h4.6V481H433v19.1Z" class="g0_2" />
<path fill-rule="evenodd" d="M451.3,500.1H456V481h-4.7v19.1Z" class="g0_2" />
<path fill-rule="evenodd" d="M469.7,500.1h4.6V481h-4.6v19.1Z" class="g0_2" />
<path fill-rule="evenodd" d="M488,500.1h4.7V481H488v19.1Z" class="g0_2" />
<path fill-rule="evenodd" d="M506.4,500.1H511V481h-4.6v19.1Z" class="g0_2" />
<path fill-rule="evenodd" d="M524.7,500.1h4.7V481h-4.7v19.1Z" class="g0_2" />
<path fill-rule="evenodd" d="M543.1,500.1h4.6V481h-4.6v19.1Z" class="g0_2" />
<path fill-rule="evenodd" d="M561.4,500.1h4.7V481h-4.7v19.1Z" class="g0_2" />
<path fill-rule="evenodd" d="M579.8,500.1h4.6V481h-4.6v19.1Z" class="g0_2" />
<path fill-rule="evenodd" d="M598.1,500.1h4.7V481h-4.7v19.1Z" class="g0_2" />
<path fill-rule="evenodd" d="M616.5,500.1h4.6V481h-4.6v19.1Z" class="g0_2" />
<path fill-rule="evenodd" d="M634.8,500.1h4.7V481h-4.7v19.1Z" class="g0_2" />
<path fill-rule="evenodd" d="M653.2,500.1h4.6V481h-4.6v19.1Z" class="g0_2" />
<path fill-rule="evenodd" d="M671.5,500.1h4.7V481h-4.7v19.1Z" class="g0_2" />
<path fill-rule="evenodd" d="M689.9,500.1h4.6V481h-4.6v19.1Z" class="g0_2" />
<path fill-rule="evenodd" d="M708.2,500.1h4.7V481h-4.7v19.1Z" class="g0_2" />
<path fill-rule="evenodd" d="M726.6,500.1h4.6V481h-4.6v19.1Z" class="g0_2" />
<path fill-rule="evenodd" d="M744.9,500.1h4.7V481h-4.7v19.1Z" class="g0_2" />
<path fill-rule="evenodd" d="M763.3,500.1h4.6V481h-4.6v19.1Z" class="g0_2" />
<path fill-rule="evenodd" d="M781.6,500.1h46V481h-46v19.1Z" class="g0_2" />
<path fill-rule="evenodd" d="M43.2,508.1H827.6v-8H43.2v8Z" class="g0_2" />
<path fill-rule="evenodd" d="M43.2,528.4H180.7V508H43.2v20.4Z" class="g0_2" />
<path fill-rule="evenodd" d="M194.4,528.4h4.7V508h-4.7v20.4Z" class="g0_2" />
<path fill-rule="evenodd" d="M212.8,528.4h4.6V508h-4.6v20.4Z" class="g0_2" />
<path fill-rule="evenodd" d="M231.1,528.4h4.7V508h-4.7v20.4Z" class="g0_2" />
<path fill-rule="evenodd" d="M249.5,528.4h4.6V508h-4.6v20.4Z" class="g0_2" />
<path fill-rule="evenodd" d="M267.8,528.4h4.7V508h-4.7v20.4Z" class="g0_2" />
<path fill-rule="evenodd" d="M286.2,528.4h4.6V508h-4.6v20.4Z" class="g0_2" />
<path fill-rule="evenodd" d="M304.5,528.4h4.7V508h-4.7v20.4Z" class="g0_2" />
<path fill-rule="evenodd" d="M322.9,528.4h4.6V508h-4.6v20.4Z" class="g0_2" />
<path fill-rule="evenodd" d="M341.2,528.4h4.7V508h-4.7v20.4Z" class="g0_2" />
<path fill-rule="evenodd" d="M359.6,528.4h4.6V508h-4.6v20.4Z" class="g0_2" />
<path fill-rule="evenodd" d="M377.9,528.4h4.7V508h-4.7v20.4Z" class="g0_2" />
<path fill-rule="evenodd" d="M396.3,528.4h4.6V508h-4.6v20.4Z" class="g0_2" />
<path fill-rule="evenodd" d="M414.6,528.4h4.7V508h-4.7v20.4Z" class="g0_2" />
<path fill-rule="evenodd" d="M433,528.4h4.6V508H433v20.4Z" class="g0_2" />
<path fill-rule="evenodd" d="M451.3,528.4H456V508h-4.7v20.4Z" class="g0_2" />
<path fill-rule="evenodd" d="M469.7,528.4h4.6V508h-4.6v20.4Z" class="g0_2" />
<path fill-rule="evenodd" d="M488,528.4h4.7V508H488v20.4Z" class="g0_2" />
<path fill-rule="evenodd" d="M506.4,528.4H511V508h-4.6v20.4Z" class="g0_2" />
<path fill-rule="evenodd" d="M524.7,528.4h4.7V508h-4.7v20.4Z" class="g0_2" />
<path fill-rule="evenodd" d="M543.1,528.4h4.6V508h-4.6v20.4Z" class="g0_2" />
<path fill-rule="evenodd" d="M561.4,528.4h4.7V508h-4.7v20.4Z" class="g0_2" />
<path fill-rule="evenodd" d="M579.8,528.4h4.6V508h-4.6v20.4Z" class="g0_2" />
<path fill-rule="evenodd" d="M598.1,528.4h4.7V508h-4.7v20.4Z" class="g0_2" />
<path fill-rule="evenodd" d="M616.5,528.4h4.6V508h-4.6v20.4Z" class="g0_2" />
<path fill-rule="evenodd" d="M634.8,528.4h4.7V508h-4.7v20.4Z" class="g0_2" />
<path fill-rule="evenodd" d="M653.2,528.4h4.6V508h-4.6v20.4Z" class="g0_2" />
<path fill-rule="evenodd" d="M671.5,528.4h4.7V508h-4.7v20.4Z" class="g0_2" />
<path fill-rule="evenodd" d="M689.9,528.4h4.6V508h-4.6v20.4Z" class="g0_2" />
<path fill-rule="evenodd" d="M708.2,528.4h4.7V508h-4.7v20.4Z" class="g0_2" />
<path fill-rule="evenodd" d="M726.6,528.4h4.6V508h-4.6v20.4Z" class="g0_2" />
<path fill-rule="evenodd" d="M744.9,528.4h4.7V508h-4.7v20.4Z" class="g0_2" />
<path fill-rule="evenodd" d="M763.3,528.4h4.6V508h-4.6v20.4Z" class="g0_2" />
<path fill-rule="evenodd" d="M781.6,528.4h46V508h-46v20.4Z" class="g0_2" />
<path fill-rule="evenodd" d="M43.2,536.4H827.6v-8H43.2v8Z" class="g0_2" />
<path fill-rule="evenodd" d="M43.2,555.4H144V536.3H43.2v19.1Z" class="g0_2" />
<path fill-rule="evenodd" d="M157.7,555.4h4.7V536.3h-4.7v19.1Z" class="g0_2" />
<path fill-rule="evenodd" d="M176.1,555.4h4.6V536.3h-4.6v19.1Z" class="g0_2" />
<path fill-rule="evenodd" d="M194.4,555.4h4.7V536.3h-4.7v19.1Z" class="g0_2" />
<path fill-rule="evenodd" d="M212.8,555.4h4.6V536.3h-4.6v19.1Z" class="g0_2" />
<path fill-rule="evenodd" d="M231.1,555.4h4.7V536.3h-4.7v19.1Z" class="g0_2" />
<path fill-rule="evenodd" d="M249.5,555.4h4.6V536.3h-4.6v19.1Z" class="g0_2" />
<path fill-rule="evenodd" d="M267.8,555.4h4.7V536.3h-4.7v19.1Z" class="g0_2" />
<path fill-rule="evenodd" d="M286.2,555.4h4.6V536.3h-4.6v19.1Z" class="g0_2" />
<path fill-rule="evenodd" d="M304.5,555.4h4.7V536.3h-4.7v19.1Z" class="g0_2" />
<path fill-rule="evenodd" d="M322.9,555.4h4.6V536.3h-4.6v19.1Z" class="g0_2" />
<path fill-rule="evenodd" d="M341.2,555.4h4.7V536.3h-4.7v19.1Z" class="g0_2" />
<path fill-rule="evenodd" d="M359.6,555.4h4.6V536.3h-4.6v19.1Z" class="g0_2" />
<path fill-rule="evenodd" d="M377.9,555.4h4.7V536.3h-4.7v19.1Z" class="g0_2" />
<path fill-rule="evenodd" d="M396.3,555.4h4.6V536.3h-4.6v19.1Z" class="g0_2" />
<path fill-rule="evenodd" d="M414.6,555.4h4.7V536.3h-4.7v19.1Z" class="g0_2" />
<path fill-rule="evenodd" d="M433,555.4h4.6V536.3H433v19.1Z" class="g0_2" />
<path fill-rule="evenodd" d="M451.3,555.4H456V536.3h-4.7v19.1Z" class="g0_2" />
<path fill-rule="evenodd" d="M469.7,555.4h4.6V536.3h-4.6v19.1Z" class="g0_2" />
<path fill-rule="evenodd" d="M488,555.4h4.7V536.3H488v19.1Z" class="g0_2" />
<path fill-rule="evenodd" d="M506.4,555.4H511V536.3h-4.6v19.1Z" class="g0_2" />
<path fill-rule="evenodd" d="M524.7,555.4h4.7V536.3h-4.7v19.1Z" class="g0_2" />
<path fill-rule="evenodd" d="M543.1,555.4h4.6V536.3h-4.6v19.1Z" class="g0_2" />
<path fill-rule="evenodd" d="M561.4,555.4h4.7V536.3h-4.7v19.1Z" class="g0_2" />
<path fill-rule="evenodd" d="M579.8,555.4h4.6V536.3h-4.6v19.1Z" class="g0_2" />
<path fill-rule="evenodd" d="M598.1,555.4h4.7V536.3h-4.7v19.1Z" class="g0_2" />
<path fill-rule="evenodd" d="M616.5,555.4h4.6V536.3h-4.6v19.1Z" class="g0_2" />
<path fill-rule="evenodd" d="M634.8,555.4h4.7V536.3h-4.7v19.1Z" class="g0_2" />
<path fill-rule="evenodd" d="M653.2,555.4h4.6V536.3h-4.6v19.1Z" class="g0_2" />
<path fill-rule="evenodd" d="M671.5,555.4h4.7V536.3h-4.7v19.1Z" class="g0_2" />
<path fill-rule="evenodd" d="M689.9,555.4h4.6V536.3h-4.6v19.1Z" class="g0_2" />
<path fill-rule="evenodd" d="M708.2,555.4h4.7V536.3h-4.7v19.1Z" class="g0_2" />
<path fill-rule="evenodd" d="M726.6,555.4h4.6V536.3h-4.6v19.1Z" class="g0_2" />
<path fill-rule="evenodd" d="M744.9,555.4h4.7V536.3h-4.7v19.1Z" class="g0_2" />
<path fill-rule="evenodd" d="M763.3,555.4h4.6V536.3h-4.6v19.1Z" class="g0_2" />
<path fill-rule="evenodd" d="M781.6,555.4h46V536.3h-46v19.1Z" class="g0_2" />
<path fill-rule="evenodd" d="M43.2,563.3H827.6v-8H43.2v8Z" class="g0_2" />
<path fill-rule="evenodd" d="M43.2,582.4h82.5V563.3H43.2v19.1Z" class="g0_2" />
<path fill-rule="evenodd" d="M139.4,582.4H144V563.3h-4.6v19.1Z" class="g0_2" />
<path fill-rule="evenodd" d="M157.7,582.4h4.7V563.3h-4.7v19.1Z" class="g0_2" />
<path fill-rule="evenodd" d="M176.1,582.4h4.6V563.3h-4.6v19.1Z" class="g0_2" />
<path fill-rule="evenodd" d="M194.4,582.4h41.4V563.3H194.4v19.1Z" class="g0_2" />
<path fill-rule="evenodd" d="M249.5,582.4h4.6V563.3h-4.6v19.1Z" class="g0_2" />
<path fill-rule="evenodd" d="M267.8,582.4h4.7V563.3h-4.7v19.1Z" class="g0_2" />
<path fill-rule="evenodd" d="M286.2,582.4h4.6V563.3h-4.6v19.1Z" class="g0_2" />
<path fill-rule="evenodd" d="M304.5,582.4h59.7V563.3H304.5v19.1Z" class="g0_2" />
<path fill-rule="evenodd" d="M377.9,582.4h4.7V563.3h-4.7v19.1Z" class="g0_2" />
<path fill-rule="evenodd" d="M396.3,582.4h4.6V563.3h-4.6v19.1Z" class="g0_2" />
<path fill-rule="evenodd" d="M414.6,582.4h4.7V563.3h-4.7v19.1Z" class="g0_2" />
<path fill-rule="evenodd" d="M433,582.4h59.7V563.3H433v19.1Z" class="g0_2" />
<path fill-rule="evenodd" d="M506.4,582.4H511V563.3h-4.6v19.1Z" class="g0_2" />
<path fill-rule="evenodd" d="M524.7,582.4h4.7V563.3h-4.7v19.1Z" class="g0_2" />
<path fill-rule="evenodd" d="M543.1,582.4h4.6V563.3h-4.6v19.1Z" class="g0_2" />
<path fill-rule="evenodd" d="M561.4,582.4h41.4V563.3H561.4v19.1Z" class="g0_2" />
<path fill-rule="evenodd" d="M616.5,582.4h4.6V563.3h-4.6v19.1Z" class="g0_2" />
<path fill-rule="evenodd" d="M634.8,582.4h4.7V563.3h-4.7v19.1Z" class="g0_2" />
<path fill-rule="evenodd" d="M653.2,582.4h4.6V563.3h-4.6v19.1Z" class="g0_2" />
<path fill-rule="evenodd" d="M671.5,582.4h4.7V563.3h-4.7v19.1Z" class="g0_2" />
<path fill-rule="evenodd" d="M689.9,582.4h4.6V563.3h-4.6v19.1Z" class="g0_2" />
<path fill-rule="evenodd" d="M708.2,582.4h4.7V563.3h-4.7v19.1Z" class="g0_2" />
<path fill-rule="evenodd" d="M726.6,582.4h4.6V563.3h-4.6v19.1Z" class="g0_2" />
<path fill-rule="evenodd" d="M744.9,582.4h4.7V563.3h-4.7v19.1Z" class="g0_2" />
<path fill-rule="evenodd" d="M763.3,582.4h4.6V563.3h-4.6v19.1Z" class="g0_2" />
<path fill-rule="evenodd" d="M781.6,582.4h46V563.3h-46v19.1Z" class="g0_2" />
<path fill-rule="evenodd" d="M43.2,590.3H827.6v-8H43.2v8Z" class="g0_2" />
<path fill-rule="evenodd" d="M43.2,610.7H162.4V590.2H43.2v20.5Z" class="g0_2" />
<path fill-rule="evenodd" d="M176.1,610.7h4.6V590.2h-4.6v20.5Z" class="g0_2" />
<path fill-rule="evenodd" d="M194.4,610.7h4.7V590.2h-4.7v20.5Z" class="g0_2" />
<path fill-rule="evenodd" d="M212.8,610.7h4.6V590.2h-4.6v20.5Z" class="g0_2" />
<path fill-rule="evenodd" d="M231.1,610.7h4.7V590.2h-4.7v20.5Z" class="g0_2" />
<path fill-rule="evenodd" d="M249.5,610.7h4.6V590.2h-4.6v20.5Z" class="g0_2" />
<path fill-rule="evenodd" d="M267.8,610.7h4.7V590.2h-4.7v20.5Z" class="g0_2" />
<path fill-rule="evenodd" d="M286.2,610.7h4.6V590.2h-4.6v20.5Z" class="g0_2" />
<path fill-rule="evenodd" d="M304.5,610.7h4.7V590.2h-4.7v20.5Z" class="g0_2" />
<path fill-rule="evenodd" d="M322.9,610.7h4.6V590.2h-4.6v20.5Z" class="g0_2" />
<path fill-rule="evenodd" d="M341.2,610.7h4.7V590.2h-4.7v20.5Z" class="g0_2" />
<path fill-rule="evenodd" d="M359.6,610.7h4.6V590.2h-4.6v20.5Z" class="g0_2" />
<path fill-rule="evenodd" d="M377.9,610.7h4.7V590.2h-4.7v20.5Z" class="g0_2" />
<path fill-rule="evenodd" d="M396.3,610.7h4.6V590.2h-4.6v20.5Z" class="g0_2" />
<path fill-rule="evenodd" d="M414.6,610.7h4.7V590.2h-4.7v20.5Z" class="g0_2" />
<path fill-rule="evenodd" d="M433,610.7h4.6V590.2H433v20.5Z" class="g0_2" />
<path fill-rule="evenodd" d="M451.3,610.7H456V590.2h-4.7v20.5Z" class="g0_2" />
<path fill-rule="evenodd" d="M469.7,610.7h4.6V590.2h-4.6v20.5Z" class="g0_2" />
<path fill-rule="evenodd" d="M488,610.7h4.7V590.2H488v20.5Z" class="g0_2" />
<path fill-rule="evenodd" d="M506.4,610.7H511V590.2h-4.6v20.5Z" class="g0_2" />
<path fill-rule="evenodd" d="M524.7,610.7h4.7V590.2h-4.7v20.5Z" class="g0_2" />
<path fill-rule="evenodd" d="M543.1,610.7h4.6V590.2h-4.6v20.5Z" class="g0_2" />
<path fill-rule="evenodd" d="M561.4,610.7h4.7V590.2h-4.7v20.5Z" class="g0_2" />
<path fill-rule="evenodd" d="M579.8,610.7h4.6V590.2h-4.6v20.5Z" class="g0_2" />
<path fill-rule="evenodd" d="M598.1,610.7h4.7V590.2h-4.7v20.5Z" class="g0_2" />
<path fill-rule="evenodd" d="M616.5,610.7h4.6V590.2h-4.6v20.5Z" class="g0_2" />
<path fill-rule="evenodd" d="M634.8,610.7h4.7V590.2h-4.7v20.5Z" class="g0_2" />
<path fill-rule="evenodd" d="M653.2,610.7h4.6V590.2h-4.6v20.5Z" class="g0_2" />
<path fill-rule="evenodd" d="M671.5,610.7h4.7V590.2h-4.7v20.5Z" class="g0_2" />
<path fill-rule="evenodd" d="M689.9,610.7h4.6V590.2h-4.6v20.5Z" class="g0_2" />
<path fill-rule="evenodd" d="M708.2,610.7h4.7V590.2h-4.7v20.5Z" class="g0_2" />
<path fill-rule="evenodd" d="M726.6,610.7h4.6V590.2h-4.6v20.5Z" class="g0_2" />
<path fill-rule="evenodd" d="M744.9,610.7h4.7V590.2h-4.7v20.5Z" class="g0_2" />
<path fill-rule="evenodd" d="M763.3,610.7h4.6V590.2h-4.6v20.5Z" class="g0_2" />
<path fill-rule="evenodd" d="M781.6,610.7h46V590.2h-46v20.5Z" class="g0_2" />
<path fill-rule="evenodd" d="M43.2,618.6H827.6v-8H43.2v8Z" class="g0_2" />
<path fill-rule="evenodd" d="M43.2,637.6H89V618.5H43.2v19.1Z" class="g0_2" />
<path fill-rule="evenodd" d="M102.7,637.6h4.6V618.5h-4.6v19.1Z" class="g0_2" />
<path fill-rule="evenodd" d="M121,637.6h4.7V618.5H121v19.1Z" class="g0_2" />
<path fill-rule="evenodd" d="M139.4,637.6H144V618.5h-4.6v19.1Z" class="g0_2" />
<path fill-rule="evenodd" d="M157.7,637.6h4.7V618.5h-4.7v19.1Z" class="g0_2" />
<path fill-rule="evenodd" d="M176.1,637.6h4.6V618.5h-4.6v19.1Z" class="g0_2" />
<path fill-rule="evenodd" d="M194.4,637.6h4.7V618.5h-4.7v19.1Z" class="g0_2" />
<path fill-rule="evenodd" d="M212.8,637.6h4.6V618.5h-4.6v19.1Z" class="g0_2" />
<path fill-rule="evenodd" d="M231.1,637.6h4.7V618.5h-4.7v19.1Z" class="g0_2" />
<path fill-rule="evenodd" d="M249.5,637.6h4.6V618.5h-4.6v19.1Z" class="g0_2" />
<path fill-rule="evenodd" d="M267.8,637.6h4.7V618.5h-4.7v19.1Z" class="g0_2" />
<path fill-rule="evenodd" d="M286.2,637.6h4.6V618.5h-4.6v19.1Z" class="g0_2" />
<path fill-rule="evenodd" d="M304.5,637.6h4.7V618.5h-4.7v19.1Z" class="g0_2" />
<path fill-rule="evenodd" d="M322.9,637.6h4.6V618.5h-4.6v19.1Z" class="g0_2" />
<path fill-rule="evenodd" d="M341.2,637.6h4.7V618.5h-4.7v19.1Z" class="g0_2" />
<path fill-rule="evenodd" d="M359.6,637.6h4.6V618.5h-4.6v19.1Z" class="g0_2" />
<path fill-rule="evenodd" d="M377.9,637.6h4.7V618.5h-4.7v19.1Z" class="g0_2" />
<path fill-rule="evenodd" d="M396.3,637.6h4.6V618.5h-4.6v19.1Z" class="g0_2" />
<path fill-rule="evenodd" d="M414.6,637.6h4.7V618.5h-4.7v19.1Z" class="g0_2" />
<path fill-rule="evenodd" d="M433,637.6h4.6V618.5H433v19.1Z" class="g0_2" />
<path fill-rule="evenodd" d="M451.3,637.6H456V618.5h-4.7v19.1Z" class="g0_2" />
<path fill-rule="evenodd" d="M469.7,637.6h4.6V618.5h-4.6v19.1Z" class="g0_2" />
<path fill-rule="evenodd" d="M488,637.6h4.7V618.5H488v19.1Z" class="g0_2" />
<path fill-rule="evenodd" d="M506.4,637.6h59.7V618.5H506.4v19.1Z" class="g0_2" />
<path fill-rule="evenodd" d="M579.8,637.6h4.6V618.5h-4.6v19.1Z" class="g0_2" />
<path fill-rule="evenodd" d="M598.1,637.6h4.7V618.5h-4.7v19.1Z" class="g0_2" />
<path fill-rule="evenodd" d="M616.5,637.6h4.6V618.5h-4.6v19.1Z" class="g0_2" />
<path fill-rule="evenodd" d="M634.8,637.6h4.7V618.5h-4.7v19.1Z" class="g0_2" />
<path fill-rule="evenodd" d="M653.2,637.6h4.6V618.5h-4.6v19.1Z" class="g0_2" />
<path fill-rule="evenodd" d="M671.5,637.6h4.7V618.5h-4.7v19.1Z" class="g0_2" />
<path fill-rule="evenodd" d="M689.9,637.6h4.6V618.5h-4.6v19.1Z" class="g0_2" />
<path fill-rule="evenodd" d="M708.2,637.6h4.7V618.5h-4.7v19.1Z" class="g0_2" />
<path fill-rule="evenodd" d="M726.6,637.6h4.6V618.5h-4.6v19.1Z" class="g0_2" />
<path fill-rule="evenodd" d="M744.9,637.6h4.7V618.5h-4.7v19.1Z" class="g0_2" />
<path fill-rule="evenodd" d="M763.3,637.6h4.6V618.5h-4.6v19.1Z" class="g0_2" />
<path fill-rule="evenodd" d="M781.6,637.6h46V618.5h-46v19.1Z" class="g0_2" />
<path fill-rule="evenodd" d="M43.2,645.6H827.6v-8H43.2v8Z" class="g0_2" />
<path fill-rule="evenodd" d="M43.2,664.6H162.4V645.5H43.2v19.1Z" class="g0_2" />
<path fill-rule="evenodd" d="M176.1,664.6h4.6V645.5h-4.6v19.1Z" class="g0_2" />
<path fill-rule="evenodd" d="M194.4,664.6h4.7V645.5h-4.7v19.1Z" class="g0_2" />
<path fill-rule="evenodd" d="M212.8,664.6h4.6V645.5h-4.6v19.1Z" class="g0_2" />
<path fill-rule="evenodd" d="M231.1,664.6h4.7V645.5h-4.7v19.1Z" class="g0_2" />
<path fill-rule="evenodd" d="M249.5,664.6h4.6V645.5h-4.6v19.1Z" class="g0_2" />
<path fill-rule="evenodd" d="M267.8,664.6h4.7V645.5h-4.7v19.1Z" class="g0_2" />
<path fill-rule="evenodd" d="M286.2,664.6h4.6V645.5h-4.6v19.1Z" class="g0_2" />
<path fill-rule="evenodd" d="M304.5,664.6h4.7V645.5h-4.7v19.1Z" class="g0_2" />
<path fill-rule="evenodd" d="M322.9,664.6h4.6V645.5h-4.6v19.1Z" class="g0_2" />
<path fill-rule="evenodd" d="M341.2,664.6h4.7V645.5h-4.7v19.1Z" class="g0_2" />
<path fill-rule="evenodd" d="M359.6,664.6h4.6V645.5h-4.6v19.1Z" class="g0_2" />
<path fill-rule="evenodd" d="M377.9,664.6h4.7V645.5h-4.7v19.1Z" class="g0_2" />
<path fill-rule="evenodd" d="M396.3,664.6h4.6V645.5h-4.6v19.1Z" class="g0_2" />
<path fill-rule="evenodd" d="M414.6,664.6h4.7V645.5h-4.7v19.1Z" class="g0_2" />
<path fill-rule="evenodd" d="M433,664.6h4.6V645.5H433v19.1Z" class="g0_2" />
<path fill-rule="evenodd" d="M451.3,664.6H456V645.5h-4.7v19.1Z" class="g0_2" />
<path fill-rule="evenodd" d="M469.7,664.6h4.6V645.5h-4.6v19.1Z" class="g0_2" />
<path fill-rule="evenodd" d="M488,664.6h4.7V645.5H488v19.1Z" class="g0_2" />
<path fill-rule="evenodd" d="M506.4,664.6H511V645.5h-4.6v19.1Z" class="g0_2" />
<path fill-rule="evenodd" d="M524.7,664.6h4.7V645.5h-4.7v19.1Z" class="g0_2" />
<path fill-rule="evenodd" d="M543.1,664.6h4.6V645.5h-4.6v19.1Z" class="g0_2" />
<path fill-rule="evenodd" d="M561.4,664.6h4.7V645.5h-4.7v19.1Z" class="g0_2" />
<path fill-rule="evenodd" d="M579.8,664.6h4.6V645.5h-4.6v19.1Z" class="g0_2" />
<path fill-rule="evenodd" d="M598.1,664.6h4.7V645.5h-4.7v19.1Z" class="g0_2" />
<path fill-rule="evenodd" d="M616.5,664.6h4.6V645.5h-4.6v19.1Z" class="g0_2" />
<path fill-rule="evenodd" d="M634.8,664.6h4.7V645.5h-4.7v19.1Z" class="g0_2" />
<path fill-rule="evenodd" d="M653.2,664.6h4.6V645.5h-4.6v19.1Z" class="g0_2" />
<path fill-rule="evenodd" d="M671.5,664.6h4.7V645.5h-4.7v19.1Z" class="g0_2" />
<path fill-rule="evenodd" d="M689.9,664.6h4.6V645.5h-4.6v19.1Z" class="g0_2" />
<path fill-rule="evenodd" d="M708.2,664.6h4.7V645.5h-4.7v19.1Z" class="g0_2" />
<path fill-rule="evenodd" d="M726.6,664.6h4.6V645.5h-4.6v19.1Z" class="g0_2" />
<path fill-rule="evenodd" d="M744.9,664.6h4.7V645.5h-4.7v19.1Z" class="g0_2" />
<path fill-rule="evenodd" d="M763.3,664.6h4.6V645.5h-4.6v19.1Z" class="g0_2" />
<path fill-rule="evenodd" d="M781.6,664.6h46V645.5h-46v19.1Z" class="g0_2" />
<path fill-rule="evenodd" d="M43.2,672.5H827.6v-8H43.2v8Z" class="g0_2" />
<path fill-rule="evenodd" d="M43.2,691.6H89V672.5H43.2v19.1Z" class="g0_2" />
<path fill-rule="evenodd" d="M102.7,691.6h4.6V672.5h-4.6v19.1Z" class="g0_2" />
<path fill-rule="evenodd" d="M121,691.6h4.7V672.5H121v19.1Z" class="g0_2" />
<path fill-rule="evenodd" d="M139.4,691.6H144V672.5h-4.6v19.1Z" class="g0_2" />
<path fill-rule="evenodd" d="M157.7,691.6h4.7V672.5h-4.7v19.1Z" class="g0_2" />
<path fill-rule="evenodd" d="M176.1,691.6h4.6V672.5h-4.6v19.1Z" class="g0_2" />
<path fill-rule="evenodd" d="M194.4,691.6h4.7V672.5h-4.7v19.1Z" class="g0_2" />
<path fill-rule="evenodd" d="M212.8,691.6h4.6V672.5h-4.6v19.1Z" class="g0_2" />
<path fill-rule="evenodd" d="M231.1,691.6h4.7V672.5h-4.7v19.1Z" class="g0_2" />
<path fill-rule="evenodd" d="M249.5,691.6h4.6V672.5h-4.6v19.1Z" class="g0_2" />
<path fill-rule="evenodd" d="M267.8,691.6h4.7V672.5h-4.7v19.1Z" class="g0_2" />
<path fill-rule="evenodd" d="M286.2,691.6h4.6V672.5h-4.6v19.1Z" class="g0_2" />
<path fill-rule="evenodd" d="M304.5,691.6h4.7V672.5h-4.7v19.1Z" class="g0_2" />
<path fill-rule="evenodd" d="M322.9,691.6h4.6V672.5h-4.6v19.1Z" class="g0_2" />
<path fill-rule="evenodd" d="M341.2,691.6h4.7V672.5h-4.7v19.1Z" class="g0_2" />
<path fill-rule="evenodd" d="M359.6,691.6h4.6V672.5h-4.6v19.1Z" class="g0_2" />
<path fill-rule="evenodd" d="M377.9,691.6h4.7V672.5h-4.7v19.1Z" class="g0_2" />
<path fill-rule="evenodd" d="M396.3,691.6h4.6V672.5h-4.6v19.1Z" class="g0_2" />
<path fill-rule="evenodd" d="M414.6,691.6h4.7V672.5h-4.7v19.1Z" class="g0_2" />
<path fill-rule="evenodd" d="M433,691.6h4.6V672.5H433v19.1Z" class="g0_2" />
<path fill-rule="evenodd" d="M451.3,691.6H456V672.5h-4.7v19.1Z" class="g0_2" />
<path fill-rule="evenodd" d="M469.7,691.6h4.6V672.5h-4.6v19.1Z" class="g0_2" />
<path fill-rule="evenodd" d="M488,691.6h4.7V672.5H488v19.1Z" class="g0_2" />
<path fill-rule="evenodd" d="M506.4,691.6H511V672.5h-4.6v19.1Z" class="g0_2" />
<path fill-rule="evenodd" d="M524.7,691.6h4.7V672.5h-4.7v19.1Z" class="g0_2" />
<path fill-rule="evenodd" d="M543.1,691.6h4.6V672.5h-4.6v19.1Z" class="g0_2" />
<path fill-rule="evenodd" d="M561.4,691.6h4.7V672.5h-4.7v19.1Z" class="g0_2" />
<path fill-rule="evenodd" d="M579.8,691.6h4.6V672.5h-4.6v19.1Z" class="g0_2" />
<path fill-rule="evenodd" d="M598.1,691.6h4.7V672.5h-4.7v19.1Z" class="g0_2" />
<path fill-rule="evenodd" d="M616.5,691.6h4.6V672.5h-4.6v19.1Z" class="g0_2" />
<path fill-rule="evenodd" d="M781.6,691.6h46V672.5h-46v19.1Z" class="g0_2" />
<path fill-rule="evenodd" d="M43.2,699.5H621.1v-8H43.2v8Z" class="g0_2" />
<path fill-rule="evenodd" d="M781.6,699.5h46v-8h-46v8Z" class="g0_2" />
<path fill-rule="evenodd" d="M43.2,718.5H89V699.4H43.2v19.1Z" class="g0_2" />
<path fill-rule="evenodd" d="M102.7,718.5h4.6V699.4h-4.6v19.1Z" class="g0_2" />
<path fill-rule="evenodd" d="M121,718.5h4.7V699.4H121v19.1Z" class="g0_2" />
<path fill-rule="evenodd" d="M139.4,718.5H144V699.4h-4.6v19.1Z" class="g0_2" />
<path fill-rule="evenodd" d="M157.7,718.5h4.7V699.4h-4.7v19.1Z" class="g0_2" />
<path fill-rule="evenodd" d="M176.1,718.5h4.6V699.4h-4.6v19.1Z" class="g0_2" />
<path fill-rule="evenodd" d="M194.4,718.5h4.7V699.4h-4.7v19.1Z" class="g0_2" />
<path fill-rule="evenodd" d="M212.8,718.5h4.6V699.4h-4.6v19.1Z" class="g0_2" />
<path fill-rule="evenodd" d="M231.1,718.5h4.7V699.4h-4.7v19.1Z" class="g0_2" />
<path fill-rule="evenodd" d="M249.5,718.5h4.6V699.4h-4.6v19.1Z" class="g0_2" />
<path fill-rule="evenodd" d="M267.8,718.5h4.7V699.4h-4.7v19.1Z" class="g0_2" />
<path fill-rule="evenodd" d="M286.2,718.5h4.6V699.4h-4.6v19.1Z" class="g0_2" />
<path fill-rule="evenodd" d="M304.5,718.5h4.7V699.4h-4.7v19.1Z" class="g0_2" />
<path fill-rule="evenodd" d="M322.9,718.5h4.6V699.4h-4.6v19.1Z" class="g0_2" />
<path fill-rule="evenodd" d="M341.2,718.5h4.7V699.4h-4.7v19.1Z" class="g0_2" />
<path fill-rule="evenodd" d="M359.6,718.5h4.6V699.4h-4.6v19.1Z" class="g0_2" />
<path fill-rule="evenodd" d="M377.9,718.5h4.7V699.4h-4.7v19.1Z" class="g0_2" />
<path fill-rule="evenodd" d="M396.3,718.5h4.6V699.4h-4.6v19.1Z" class="g0_2" />
<path fill-rule="evenodd" d="M414.6,718.5h4.7V699.4h-4.7v19.1Z" class="g0_2" />
<path fill-rule="evenodd" d="M433,718.5h4.6V699.4H433v19.1Z" class="g0_2" />
<path fill-rule="evenodd" d="M451.3,718.5H456V699.4h-4.7v19.1Z" class="g0_2" />
<path fill-rule="evenodd" d="M469.7,718.5h4.6V699.4h-4.6v19.1Z" class="g0_2" />
<path fill-rule="evenodd" d="M488,718.5h4.7V699.4H488v19.1Z" class="g0_2" />
<path fill-rule="evenodd" d="M506.4,718.5H511V699.4h-4.6v19.1Z" class="g0_2" />
<path fill-rule="evenodd" d="M524.7,718.5h4.7V699.4h-4.7v19.1Z" class="g0_2" />
<path fill-rule="evenodd" d="M543.1,718.5h4.6V699.4h-4.6v19.1Z" class="g0_2" />
<path fill-rule="evenodd" d="M561.4,718.5h4.7V699.4h-4.7v19.1Z" class="g0_2" />
<path fill-rule="evenodd" d="M579.8,718.5h4.6V699.4h-4.6v19.1Z" class="g0_2" />
<path fill-rule="evenodd" d="M598.1,718.5h4.7V699.4h-4.7v19.1Z" class="g0_2" />
<path fill-rule="evenodd" d="M616.5,718.5h4.6V699.4h-4.6v19.1Z" class="g0_2" />
<path fill-rule="evenodd" d="M781.6,718.5h46V699.4h-46v19.1Z" class="g0_2" />
<path fill-rule="evenodd" d="M43.2,726.7H621.1v-8.2H43.2v8.2Z" class="g0_2" />
<path fill-rule="evenodd" d="M781.6,726.7h46v-8.2h-46v8.2Z" class="g0_2" />
<path fill-rule="evenodd" d="M43.2,744.8H272.5V726.6H43.2v18.2Z" class="g0_2" />
<path fill-rule="evenodd" d="M616.5,744.8h4.6V726.6h-4.6v18.2Z" class="g0_2" />
<path fill-rule="evenodd" d="M781.6,744.8h46V726.6h-46v18.2Z" class="g0_2" />
<path fill-rule="evenodd" d="M43.2,751.2H621.1v-6.4H43.2v6.4Z" class="g0_2" />
<path fill-rule="evenodd" d="M781.6,751.2h46v-6.4h-46v6.4Z" class="g0_2" />
<path fill-rule="evenodd" d="M43.2,770.2H272.5V751.1H43.2v19.1Z" class="g0_2" />
<path fill-rule="evenodd" d="M616.5,770.2h4.6V751.1h-4.6v19.1Z" class="g0_2" />
<path fill-rule="evenodd" d="M781.6,770.2h46V751.1h-46v19.1Z" class="g0_2" />
<path fill-rule="evenodd" d="M43.2,776.5H621.1v-6.4H43.2v6.4Z" class="g0_2" />
<path fill-rule="evenodd" d="M781.6,776.5h46v-6.4h-46v6.4Z" class="g0_2" />
<path fill-rule="evenodd" d="M43.2,797.4H272.5V776.5H43.2v20.9Z" class="g0_2" />
<path fill-rule="evenodd" d="M616.5,797.4h4.6V776.5h-4.6v20.9Z" class="g0_2" />
<path fill-rule="evenodd" d="M781.6,797.4h46V776.5h-46v20.9Z" class="g0_2" />
<path fill-rule="evenodd" d="M43.2,804.6H621.1v-7.3H43.2v7.3Z" class="g0_2" />
<path fill-rule="evenodd" d="M781.6,804.6h46v-7.3h-46v7.3Z" class="g0_2" />
<path fill-rule="evenodd" d="M43.2,856.3H474.3V804.6H43.2v51.7Z" class="g0_2" />
<path fill-rule="evenodd" d="M598.1,856.3h23V804.6h-23v51.7Z" class="g0_2" />
<path fill-rule="evenodd" d="M781.6,856.3h46V804.6h-46v51.7Z" class="g0_2" />
<path fill-rule="evenodd" d="M43.2,927.9H827.6V856.3H43.2v71.6Z" class="g0_2" />
<path fill-rule="evenodd" d="M43.2,949.4H144V927.8H43.2v21.6Z" class="g0_2" />
<path fill-rule="evenodd" d="M157.7,949.4h4.7V927.8h-4.7v21.6Z" class="g0_2" />
<path fill-rule="evenodd" d="M176.1,949.4h4.6V927.8h-4.6v21.6Z" class="g0_2" />
<path fill-rule="evenodd" d="M194.4,949.4h4.7V927.8h-4.7v21.6Z" class="g0_2" />
<path fill-rule="evenodd" d="M212.8,949.4h4.6V927.8h-4.6v21.6Z" class="g0_2" />
<path fill-rule="evenodd" d="M231.1,949.4h4.7V927.8h-4.7v21.6Z" class="g0_2" />
<path fill-rule="evenodd" d="M249.5,949.4h4.6V927.8h-4.6v21.6Z" class="g0_2" />
<path fill-rule="evenodd" d="M267.8,949.4h4.7V927.8h-4.7v21.6Z" class="g0_2" />
<path fill-rule="evenodd" d="M286.2,949.4h4.6V927.8h-4.6v21.6Z" class="g0_2" />
<path fill-rule="evenodd" d="M304.5,949.4h4.7V927.8h-4.7v21.6Z" class="g0_2" />
<path fill-rule="evenodd" d="M322.9,949.4h4.6V927.8h-4.6v21.6Z" class="g0_2" />
<path fill-rule="evenodd" d="M341.2,949.4h4.7V927.8h-4.7v21.6Z" class="g0_2" />
<path fill-rule="evenodd" d="M359.6,949.4h4.6V927.8h-4.6v21.6Z" class="g0_2" />
<path fill-rule="evenodd" d="M377.9,949.4h4.7V927.8h-4.7v21.6Z" class="g0_2" />
<path fill-rule="evenodd" d="M396.3,949.4h4.6V927.8h-4.6v21.6Z" class="g0_2" />
<path fill-rule="evenodd" d="M414.6,949.4h4.7V927.8h-4.7v21.6Z" class="g0_2" />
<path fill-rule="evenodd" d="M433,949.4h4.6V927.8H433v21.6Z" class="g0_2" />
<path fill-rule="evenodd" d="M451.3,949.4H456V927.8h-4.7v21.6Z" class="g0_2" />
<path fill-rule="evenodd" d="M469.7,949.4h4.6V927.8h-4.6v21.6Z" class="g0_2" />
<path fill-rule="evenodd" d="M488,949.4h4.7V927.8H488v21.6Z" class="g0_2" />
<path fill-rule="evenodd" d="M506.4,949.4H511V927.8h-4.6v21.6Z" class="g0_2" />
<path fill-rule="evenodd" d="M524.7,949.4h4.7V927.8h-4.7v21.6Z" class="g0_2" />
<path fill-rule="evenodd" d="M543.1,949.4h4.6V927.8h-4.6v21.6Z" class="g0_2" />
<path fill-rule="evenodd" d="M561.4,949.4h4.7V927.8h-4.7v21.6Z" class="g0_2" />
<path fill-rule="evenodd" d="M579.8,949.4h4.6V927.8h-4.6v21.6Z" class="g0_2" />
<path fill-rule="evenodd" d="M598.1,949.4h4.7V927.8h-4.7v21.6Z" class="g0_2" />
<path fill-rule="evenodd" d="M616.5,949.4h4.6V927.8h-4.6v21.6Z" class="g0_2" />
<path fill-rule="evenodd" d="M634.8,949.4h4.7V927.8h-4.7v21.6Z" class="g0_2" />
<path fill-rule="evenodd" d="M653.2,949.4h4.6V927.8h-4.6v21.6Z" class="g0_2" />
<path fill-rule="evenodd" d="M671.5,949.4h4.7V927.8h-4.7v21.6Z" class="g0_2" />
<path fill-rule="evenodd" d="M689.9,949.4h4.6V927.8h-4.6v21.6Z" class="g0_2" />
<path fill-rule="evenodd" d="M708.2,949.4h4.7V927.8h-4.7v21.6Z" class="g0_2" />
<path fill-rule="evenodd" d="M726.6,949.4h4.6V927.8h-4.6v21.6Z" class="g0_2" />
<path fill-rule="evenodd" d="M744.9,949.4h4.7V927.8h-4.7v21.6Z" class="g0_2" />
<path fill-rule="evenodd" d="M763.3,949.4h4.6V927.8h-4.6v21.6Z" class="g0_2" />
<path fill-rule="evenodd" d="M781.6,949.4h46V927.8h-46v21.6Z" class="g0_2" />
<path fill-rule="evenodd" d="M43.2,957.3H827.6v-7.9H43.2v7.9Z" class="g0_2" />
<path fill-rule="evenodd" d="M43.2,978.8H144V957.3H43.2v21.5Z" class="g0_2" />
<path fill-rule="evenodd" d="M157.7,978.8h4.7V957.3h-4.7v21.5Z" class="g0_2" />
<path fill-rule="evenodd" d="M176.1,978.8h4.6V957.3h-4.6v21.5Z" class="g0_2" />
<path fill-rule="evenodd" d="M194.4,978.8h4.7V957.3h-4.7v21.5Z" class="g0_2" />
<path fill-rule="evenodd" d="M212.8,978.8h4.6V957.3h-4.6v21.5Z" class="g0_2" />
<path fill-rule="evenodd" d="M231.1,978.8h4.7V957.3h-4.7v21.5Z" class="g0_2" />
<path fill-rule="evenodd" d="M249.5,978.8h4.6V957.3h-4.6v21.5Z" class="g0_2" />
<path fill-rule="evenodd" d="M267.8,978.8h4.7V957.3h-4.7v21.5Z" class="g0_2" />
<path fill-rule="evenodd" d="M286.2,978.8h4.6V957.3h-4.6v21.5Z" class="g0_2" />
<path fill-rule="evenodd" d="M304.5,978.8h4.7V957.3h-4.7v21.5Z" class="g0_2" />
<path fill-rule="evenodd" d="M322.9,978.8h4.6V957.3h-4.6v21.5Z" class="g0_2" />
<path fill-rule="evenodd" d="M341.2,978.8h4.7V957.3h-4.7v21.5Z" class="g0_2" />
<path fill-rule="evenodd" d="M359.6,978.8h4.6V957.3h-4.6v21.5Z" class="g0_2" />
<path fill-rule="evenodd" d="M377.9,978.8h4.7V957.3h-4.7v21.5Z" class="g0_2" />
<path fill-rule="evenodd" d="M396.3,978.8h4.6V957.3h-4.6v21.5Z" class="g0_2" />
<path fill-rule="evenodd" d="M414.6,978.8h4.7V957.3h-4.7v21.5Z" class="g0_2" />
<path fill-rule="evenodd" d="M433,978.8h4.6V957.3H433v21.5Z" class="g0_2" />
<path fill-rule="evenodd" d="M451.3,978.8H456V957.3h-4.7v21.5Z" class="g0_2" />
<path fill-rule="evenodd" d="M469.7,978.8h4.6V957.3h-4.6v21.5Z" class="g0_2" />
<path fill-rule="evenodd" d="M488,978.8h4.7V957.3H488v21.5Z" class="g0_2" />
<path fill-rule="evenodd" d="M506.4,978.8H511V957.3h-4.6v21.5Z" class="g0_2" />
<path fill-rule="evenodd" d="M524.7,978.8h4.7V957.3h-4.7v21.5Z" class="g0_2" />
<path fill-rule="evenodd" d="M543.1,978.8h4.6V957.3h-4.6v21.5Z" class="g0_2" />
<path fill-rule="evenodd" d="M561.4,978.8h4.7V957.3h-4.7v21.5Z" class="g0_2" />
<path fill-rule="evenodd" d="M579.8,978.8h4.6V957.3h-4.6v21.5Z" class="g0_2" />
<path fill-rule="evenodd" d="M598.1,978.8h4.7V957.3h-4.7v21.5Z" class="g0_2" />
<path fill-rule="evenodd" d="M616.5,978.8h4.6V957.3h-4.6v21.5Z" class="g0_2" />
<path fill-rule="evenodd" d="M634.8,978.8h4.7V957.3h-4.7v21.5Z" class="g0_2" />
<path fill-rule="evenodd" d="M653.2,978.8h4.6V957.3h-4.6v21.5Z" class="g0_2" />
<path fill-rule="evenodd" d="M671.5,978.8h4.7V957.3h-4.7v21.5Z" class="g0_2" />
<path fill-rule="evenodd" d="M689.9,978.8h4.6V957.3h-4.6v21.5Z" class="g0_2" />
<path fill-rule="evenodd" d="M708.2,978.8h4.7V957.3h-4.7v21.5Z" class="g0_2" />
<path fill-rule="evenodd" d="M726.6,978.8h4.6V957.3h-4.6v21.5Z" class="g0_2" />
<path fill-rule="evenodd" d="M744.9,978.8h4.7V957.3h-4.7v21.5Z" class="g0_2" />
<path fill-rule="evenodd" d="M763.3,978.8h4.6V957.3h-4.6v21.5Z" class="g0_2" />
<path fill-rule="evenodd" d="M781.6,978.8h46V957.3h-46v21.5Z" class="g0_2" />
<path fill-rule="evenodd" d="M43.2,986.7H827.6v-7.9H43.2v7.9Z" class="g0_2" />
<path fill-rule="evenodd" d="M43.2,1107H272.5V986.7H43.2V1107Z" class="g0_2" />
<path fill-rule="evenodd" d="M433,1107h91.8V986.7H433V1107Z" class="g0_2" />
<path fill-rule="evenodd" d="M781.6,1107h46V986.7h-46V1107Z" class="g0_2" />
<path fill-rule="evenodd" d="M43.2,1164.8h64.1v-57.9H43.2v57.9Z" class="g0_2" />
<path fill-rule="evenodd" d="M231.1,1164.8h41.4v-57.9H231.1v57.9Z" class="g0_2" />
<path fill-rule="evenodd" d="M433,1164.8h91.8v-57.9H433v57.9Z" class="g0_2" />
<path fill-rule="evenodd" d="M781.6,1164.8h46v-57.9h-46v57.9Z" class="g0_2" />
<path fill-rule="evenodd" d="M43.2,1251.8H827.6v-87H43.2v87Z" class="g0_2" />
<path d="M89,73.5h13.9m4.5,0h13.8m4.5,0h13.9m4.5,0h13.8m4.5,0h13.9m4.5,0h13.8m4.5,0H213m4.5,0h13.8m4.5,0h13.9m4.5,0H268m4.5,0h13.9m4.5,0h13.8m4.5,0h13.9m4.5,0h13.8m4.5,0h13.9m4.5,0h13.8m4.5,0h13.9m4.5,0h13.8m4.5,0h13.9m4.5,0h13.8m4.5,0h13.9m4.5,0h13.8m4.5,0h13.9m4.5,0h13.8m4.5,0h13.9m4.5,0h13.8m4.5,0H580m4.5,0h13.8m4.5,0h13.9m4.5,0H635m4.5,0h13.9m4.5,0h13.8m4.5,0h13.9m22.8,0h13.9m4.5,0h13.8m4.5,0h13.9M89,88.9h13.9m4.5,0h13.8m4.5,0h13.9m4.5,0h13.8m4.5,0h13.9m4.5,0h13.8m4.5,0H213m4.5,0h13.8m4.5,0h13.9m4.5,0H268m4.5,0h13.9m4.5,0h13.8m4.5,0h13.9m4.5,0h13.8m4.5,0h13.9m4.5,0h13.8m4.5,0h13.9m4.5,0h13.8m4.5,0h13.9m4.5,0h13.8m4.5,0h13.9m4.5,0h13.8m4.5,0h13.9m4.5,0h13.8m4.5,0h13.9m4.5,0h13.8m4.5,0H580m4.5,0h13.8m4.5,0h13.9m4.5,0H635m4.5,0h13.9m4.5,0h13.8m4.5,0h13.9m22.8,0h13.9m4.5,0h13.8m4.5,0h13.9M89,96.8h13.9m4.5,0h13.8m4.5,0h13.9m4.5,0h13.8m4.5,0h13.9m4.5,0h13.8m4.5,0H213m4.5,0h13.8m4.5,0h13.9m4.5,0H268m4.5,0h13.9m4.5,0h13.8m4.5,0h13.9m4.5,0h13.8m4.5,0h13.9m4.5,0h13.8m4.5,0h13.9m4.5,0h13.8m4.5,0h13.9m4.5,0h13.8m4.5,0h13.9m4.5,0h13.8m4.5,0h13.9m4.5,0h13.8m4.5,0h13.9m4.5,0h13.8m22.9,0h13.8m4.5,0h13.9m4.5,0H635m4.5,0h13.9m4.5,0h13.8m4.5,0h13.9m4.5,0h13.8m4.5,0h13.9m4.5,0h13.8m4.5,0h13.9M89,113.1h13.9m4.5,0h13.8m4.5,0h13.9m4.5,0h13.8m4.5,0h13.9m4.5,0h13.8m4.5,0H213m4.5,0h13.8m4.5,0h13.9m4.5,0H268m4.5,0h13.9m4.5,0h13.8m4.5,0h13.9m4.5,0h13.8m4.5,0h13.9m4.5,0h13.8m4.5,0h13.9m4.5,0h13.8m4.5,0h13.9m4.5,0h13.8m4.5,0h13.9m4.5,0h13.8m4.5,0h13.9m4.5,0h13.8m4.5,0h13.9m4.5,0h13.8m22.9,0h13.8m4.5,0h13.9m4.5,0H635m4.5,0h13.9m4.5,0h13.8m4.5,0h13.9m4.5,0h13.8m4.5,0h13.9m4.5,0h13.8m4.5,0h13.9M180.8,137.6h13.8m4.5,0H213m4.5,0h13.8m4.5,0h13.9m4.5,0H268m4.5,0h13.9m4.5,0h13.8m4.5,0h13.9m4.5,0h13.8m4.5,0h13.9m4.5,0h13.8m4.5,0h13.9m4.5,0h13.8m4.5,0h13.9m4.5,0h13.8m4.5,0h13.9m4.5,0h13.8m4.5,0h13.9m4.5,0h13.8m4.5,0h13.9m4.5,0h13.8m4.5,0H580m4.5,0h13.8m4.5,0h13.9m4.5,0H635m4.5,0h13.9m4.5,0h13.8m4.5,0h13.9m4.5,0h13.8m4.5,0h13.9m4.5,0h13.8m4.5,0h13.9m4.5,0h13.8m-601,20.3h13.8m4.5,0H213m4.5,0h13.8m4.5,0h13.9m4.5,0H268m4.5,0h13.9m4.5,0h13.8m4.5,0h13.9m4.5,0h13.8m4.5,0h13.9m4.5,0h13.8m4.5,0h13.9m4.5,0h13.8m4.5,0h13.9m4.5,0h13.8m4.5,0h13.9m4.5,0h13.8m4.5,0h13.9m4.5,0h13.8m4.5,0h13.9m4.5,0h13.8m4.5,0H580m4.5,0h13.8m4.5,0h13.9m4.5,0H635m4.5,0h13.9m4.5,0h13.8m4.5,0h13.9m4.5,0h13.8m4.5,0h13.9m4.5,0h13.8m4.5,0h13.9m4.5,0h13.8m-637.7,8h13.8m4.5,0h13.9m4.5,0h13.8m4.5,0H213m4.5,0h13.8m4.5,0h13.9m4.5,0H268m4.5,0h13.9m4.5,0h13.8m4.5,0h13.9m4.5,0h13.8m4.5,0h13.9m4.5,0h13.8m4.5,0h13.9m4.5,0h13.8m4.5,0h13.9m4.5,0h13.8m4.5,0h13.9m4.5,0h13.8m4.5,0h13.9m4.5,0h13.8m4.5,0h13.9m4.5,0h13.8m4.5,0H580m4.5,0h13.8m4.5,0h13.9m4.5,0H635m4.5,0h13.9m4.5,0h13.8m4.5,0h13.9m4.5,0h13.8m4.5,0h13.9m4.5,0h13.8m4.5,0h13.9m4.5,0h13.8m-637.7,19h13.8m4.5,0h13.9m4.5,0h13.8m4.5,0H213m4.5,0h13.8m4.5,0h13.9m4.5,0H268m4.5,0h13.9m4.5,0h13.8m4.5,0h13.9m4.5,0h13.8m4.5,0h13.9m4.5,0h13.8m4.5,0h13.9m4.5,0h13.8m4.5,0h13.9m4.5,0h13.8m4.5,0h13.9m4.5,0h13.8m4.5,0h13.9m4.5,0h13.8m4.5,0h13.9m4.5,0h13.8m4.5,0H580m4.5,0h13.8m4.5,0h13.9m4.5,0H635m4.5,0h13.9m4.5,0h13.8m4.5,0h13.9m4.5,0h13.8m4.5,0h13.9m4.5,0h13.8m4.5,0h13.9m4.5,0h13.8m-601,7.9h13.8m4.5,0H213m4.5,0h13.8m4.5,0h13.9m4.5,0H268m4.5,0h13.9m4.5,0h13.8m4.5,0h13.9m4.5,0h13.8m4.5,0h13.9m4.5,0h13.8m4.5,0h13.9m4.5,0h13.8m4.5,0h13.9m4.5,0h13.8m4.5,0h13.9m4.5,0h13.8m4.5,0h13.9m4.5,0h13.8m4.5,0h13.9m4.5,0h13.8m4.5,0H580m4.5,0h13.8m4.5,0h13.9m4.5,0H635m4.5,0h13.9m4.5,0h13.8m4.5,0h13.9m4.5,0h13.8m4.5,0h13.9m4.5,0h13.8m4.5,0h13.9m4.5,0h13.8m-601,20.4h13.8m4.5,0H213m4.5,0h13.8m4.5,0h13.9m4.5,0H268m4.5,0h13.9m4.5,0h13.8m4.5,0h13.9m4.5,0h13.8m4.5,0h13.9m4.5,0h13.8m4.5,0h13.9m4.5,0h13.8m4.5,0h13.9m4.5,0h13.8m4.5,0h13.9m4.5,0h13.8m4.5,0h13.9m4.5,0h13.8m4.5,0h13.9m4.5,0h13.8m4.5,0H580m4.5,0h13.8m4.5,0h13.9m4.5,0H635m4.5,0h13.9m4.5,0h13.8m4.5,0h13.9m4.5,0h13.8m4.5,0h13.9m4.5,0h13.8m4.5,0h13.9m4.5,0h13.8m-637.7,7.9h13.8m4.5,0h13.9m4.5,0h13.8m4.5,0H213m4.5,0h13.8m4.5,0h13.9m4.5,0H268m4.5,0h13.9m4.5,0h13.8m4.5,0h13.9m4.5,0h13.8m4.5,0h13.9m4.5,0h13.8m4.5,0h13.9m4.5,0h13.8m4.5,0h13.9m4.5,0h13.8m4.5,0h13.9m4.5,0h13.8m4.5,0h13.9m4.5,0h13.8m4.5,0h13.9m4.5,0h13.8m4.5,0H580m4.5,0h13.8m4.5,0h13.9m4.5,0H635m4.5,0h13.9m4.5,0h13.8m4.5,0h13.9m4.5,0h13.8m4.5,0h13.9m4.5,0h13.8m4.5,0h13.9m4.5,0h13.8M144.1,240.2h13.8m4.5,0h13.9m4.5,0h13.8m4.5,0H213m4.5,0h13.8m4.5,0h13.9m4.5,0H268m4.5,0h13.9m4.5,0h13.8m4.5,0h13.9m4.5,0h13.8m4.5,0h13.9m4.5,0h13.8m4.5,0h13.9m4.5,0h13.8m4.5,0h13.9m4.5,0h13.8m4.5,0h13.9m4.5,0h13.8m4.5,0h13.9m4.5,0h13.8m4.5,0h13.9m4.5,0h13.8m4.5,0H580m4.5,0h13.8m4.5,0h13.9m4.5,0H635m4.5,0h13.9m4.5,0h13.8m4.5,0h13.9m4.5,0h13.8m4.5,0h13.9m4.5,0h13.8m4.5,0h13.9m4.5,0h13.8m-546,7.9h13.9m4.5,0H268m4.5,0h13.9m4.5,0h13.8m4.5,0h13.9m4.5,0h13.8m4.5,0h13.9m4.5,0h13.8m59.6,0h13.8m4.5,0h13.9m59.5,0h13.9m4.5,0h13.8m4.5,0H580m4.5,0h13.8m114.6,0h13.9m4.5,0h13.8m4.5,0h13.9m4.5,0h13.8m-546,19h13.9m4.5,0H268m4.5,0h13.9m4.5,0h13.8m4.5,0h13.9m4.5,0h13.8m4.5,0h13.9m4.5,0h13.8m59.6,0h13.8m4.5,0h13.9m59.5,0h13.9m4.5,0h13.8m4.5,0H580m4.5,0h13.8m114.6,0h13.9m4.5,0h13.8m4.5,0h13.9m4.5,0h13.8M657.9,313.8h13.8m96.3,0h13.8M657.9,335.4h13.8m96.3,0h13.8m-637.7,7.9h13.8m4.5,0h13.9m4.5,0h13.8m4.5,0H213m4.5,0h13.8m4.5,0h13.9m4.5,0H268m4.5,0h13.9m4.5,0h13.8m4.5,0h13.9m4.5,0h13.8m4.5,0h13.9m4.5,0h13.8m4.5,0h13.9m4.5,0h13.8m4.5,0h13.9m4.5,0h13.8m4.5,0h13.9m4.5,0h13.8m96.3,0h13.8m4.5,0h13.9m41.2,0h13.8m4.5,0h13.9m22.8,0h13.9m4.5,0h13.8m4.5,0h13.9m4.5,0h13.8M144.1,363.7h13.8m4.5,0h13.9m4.5,0h13.8m4.5,0H213m4.5,0h13.8m4.5,0h13.9m4.5,0H268m4.5,0h13.9m4.5,0h13.8m4.5,0h13.9m4.5,0h13.8m4.5,0h13.9m4.5,0h13.8m4.5,0h13.9m4.5,0h13.8m4.5,0h13.9m4.5,0h13.8m4.5,0h13.9m4.5,0h13.8m96.3,0h13.8m4.5,0h13.9m41.2,0h13.8m4.5,0h13.9m22.8,0h13.9m4.5,0h13.8m4.5,0h13.9m4.5,0h13.8m-637.7,7.9h13.8m4.5,0h13.9m4.5,0h13.8m4.5,0H213m4.5,0h13.8m4.5,0h13.9m4.5,0H268m4.5,0h13.9m4.5,0h13.8m4.5,0h13.9m4.5,0h13.8m4.5,0h13.9m4.5,0h13.8m4.5,0h13.9m4.5,0h13.8m4.5,0h13.9m4.5,0h13.8m4.5,0h13.9m4.5,0h13.8m4.5,0h13.9m4.5,0h13.8m4.5,0h13.9m4.5,0h13.8m4.5,0H580m4.5,0h13.8m4.5,0h13.9m4.5,0H635m4.5,0h13.9m4.5,0h13.8m4.5,0h13.9m4.5,0h13.8m4.5,0h13.9m4.5,0h13.8m4.5,0h13.9m4.5,0h13.8M144.1,392h13.8m4.5,0h13.9m4.5,0h13.8m4.5,0H213m4.5,0h13.8m4.5,0h13.9m4.5,0H268m4.5,0h13.9m4.5,0h13.8m4.5,0h13.9m4.5,0h13.8m4.5,0h13.9m4.5,0h13.8m4.5,0h13.9m4.5,0h13.8m4.5,0h13.9m4.5,0h13.8m4.5,0h13.9m4.5,0h13.8m4.5,0h13.9m4.5,0h13.8m4.5,0h13.9m4.5,0h13.8m4.5,0H580m4.5,0h13.8m4.5,0h13.9m4.5,0H635m4.5,0h13.9m4.5,0h13.8m4.5,0h13.9m4.5,0h13.8m4.5,0h13.9m4.5,0h13.8m4.5,0h13.9m4.5,0h13.8m-490.9,7.9h13.8m4.5,0h13.9m4.5,0h13.8m4.5,0h13.9m4.5,0h13.8m4.5,0h13.9m4.5,0h13.8m4.5,0h13.9m4.5,0h13.8m4.5,0h13.9m4.5,0h13.8m41.2,0h13.9m4.5,0h13.8m4.5,0H580m4.5,0h13.8m22.9,0H635m4.5,0h13.9m4.5,0h13.8m4.5,0h13.9m4.5,0h13.8m4.5,0h13.9m4.5,0h13.8m4.5,0h13.9m4.5,0h13.8m-490.9,19h13.8m4.5,0h13.9m4.5,0h13.8m4.5,0h13.9m4.5,0h13.8m4.5,0h13.9m4.5,0h13.8m4.5,0h13.9m4.5,0h13.8m4.5,0h13.9m4.5,0h13.8m41.2,0h13.9m4.5,0h13.8m4.5,0H580m4.5,0h13.8m22.9,0H635m4.5,0h13.9m4.5,0h13.8m4.5,0h13.9m4.5,0h13.8m4.5,0h13.9m4.5,0h13.8m4.5,0h13.9m4.5,0h13.8m-619.4,8h13.9m4.5,0h13.8m41.2,0h13.9m4.5,0H268m22.9,0h13.8m4.5,0h13.9m4.5,0h13.8m4.5,0h13.9m96.2,0h13.9m4.5,0h13.8m41.2,0h13.9m4.5,0h13.8m22.9,0h13.8m4.5,0h13.9m4.5,0H635m4.5,0h13.9m-491,20.3h13.9m4.5,0h13.8m41.2,0h13.9m4.5,0H268m22.9,0h13.8m4.5,0h13.9m4.5,0h13.8m4.5,0h13.9m96.2,0h13.9m4.5,0h13.8m41.2,0h13.9m4.5,0h13.8m22.9,0h13.8m4.5,0h13.9m4.5,0H635m4.5,0h13.9m-472.6,5.7h13.8m4.5,0H213m4.5,0h13.8m4.5,0h13.9m4.5,0H268m4.5,0h13.9m4.5,0h13.8m4.5,0h13.9m4.5,0h13.8m4.5,0h13.9m4.5,0h13.8m4.5,0h13.9m4.5,0h13.8m4.5,0h13.9m4.5,0h13.8m4.5,0h13.9m4.5,0h13.8m4.5,0h13.9m4.5,0h13.8m4.5,0h13.9m4.5,0h13.8m4.5,0H580m4.5,0h13.8m4.5,0h13.9m4.5,0H635m4.5,0h13.9m4.5,0h13.8m4.5,0h13.9m4.5,0h13.8m4.5,0h13.9m4.5,0h13.8m4.5,0h13.9m4.5,0h13.8m-601,20.3h13.8m4.5,0H213m4.5,0h13.8m4.5,0h13.9m4.5,0H268m4.5,0h13.9m4.5,0h13.8m4.5,0h13.9m4.5,0h13.8m4.5,0h13.9m4.5,0h13.8m4.5,0h13.9m4.5,0h13.8m4.5,0h13.9m4.5,0h13.8m4.5,0h13.9m4.5,0h13.8m4.5,0h13.9m4.5,0h13.8m4.5,0h13.9m4.5,0h13.8m4.5,0H580m4.5,0h13.8m4.5,0h13.9m4.5,0H635m4.5,0h13.9m4.5,0h13.8m4.5,0h13.9m4.5,0h13.8m4.5,0h13.9m4.5,0h13.8m4.5,0h13.9m4.5,0h13.8m-637.7,8h13.8m4.5,0h13.9m4.5,0h13.8m4.5,0H213m4.5,0h13.8m4.5,0h13.9m4.5,0H268m4.5,0h13.9m4.5,0h13.8m4.5,0h13.9m4.5,0h13.8m4.5,0h13.9m4.5,0h13.8m4.5,0h13.9m4.5,0h13.8m4.5,0h13.9m4.5,0h13.8m4.5,0h13.9m4.5,0h13.8m4.5,0h13.9m4.5,0h13.8m4.5,0h13.9m4.5,0h13.8m4.5,0H580m4.5,0h13.8m4.5,0h13.9m4.5,0H635m4.5,0h13.9m4.5,0h13.8m4.5,0h13.9m4.5,0h13.8m4.5,0h13.9m4.5,0h13.8m4.5,0h13.9m4.5,0h13.8m-637.7,19h13.8m4.5,0h13.9m4.5,0h13.8m4.5,0H213m4.5,0h13.8m4.5,0h13.9m4.5,0H268m4.5,0h13.9m4.5,0h13.8m4.5,0h13.9m4.5,0h13.8m4.5,0h13.9m4.5,0h13.8m4.5,0h13.9m4.5,0h13.8m4.5,0h13.9m4.5,0h13.8m4.5,0h13.9m4.5,0h13.8m4.5,0h13.9m4.5,0h13.8m4.5,0h13.9m4.5,0h13.8m4.5,0H580m4.5,0h13.8m4.5,0h13.9m4.5,0H635m4.5,0h13.9m4.5,0h13.8m4.5,0h13.9m4.5,0h13.8m4.5,0h13.9m4.5,0h13.8m4.5,0h13.9m4.5,0h13.8m-601,7.9h13.8m4.5,0H213m4.5,0h13.8m4.5,0h13.9m4.5,0H268m4.5,0h13.9m4.5,0h13.8m4.5,0h13.9m4.5,0h13.8m4.5,0h13.9m4.5,0h13.8m4.5,0h13.9m4.5,0h13.8m4.5,0h13.9m4.5,0h13.8m4.5,0h13.9m4.5,0h13.8m4.5,0h13.9m4.5,0h13.8m4.5,0h13.9m4.5,0h13.8m4.5,0H580m4.5,0h13.8m4.5,0h13.9m4.5,0H635m4.5,0h13.9m4.5,0h13.8m4.5,0h13.9m4.5,0h13.8m4.5,0h13.9m4.5,0h13.8m4.5,0h13.9m4.5,0h13.8m-601,20.4h13.8m4.5,0H213m4.5,0h13.8m4.5,0h13.9m4.5,0H268m4.5,0h13.9m4.5,0h13.8m4.5,0h13.9m4.5,0h13.8m4.5,0h13.9m4.5,0h13.8m4.5,0h13.9m4.5,0h13.8m4.5,0h13.9m4.5,0h13.8m4.5,0h13.9m4.5,0h13.8m4.5,0h13.9m4.5,0h13.8m4.5,0h13.9m4.5,0h13.8m4.5,0H580m4.5,0h13.8m4.5,0h13.9m4.5,0H635m4.5,0h13.9m4.5,0h13.8m4.5,0h13.9m4.5,0h13.8m4.5,0h13.9m4.5,0h13.8m4.5,0h13.9m4.5,0h13.8m-637.7,7.9h13.8m4.5,0h13.9m4.5,0h13.8m4.5,0H213m4.5,0h13.8m4.5,0h13.9m4.5,0H268m4.5,0h13.9m4.5,0h13.8m4.5,0h13.9m4.5,0h13.8m4.5,0h13.9m4.5,0h13.8m4.5,0h13.9m4.5,0h13.8m4.5,0h13.9m4.5,0h13.8m4.5,0h13.9m4.5,0h13.8m4.5,0h13.9m4.5,0h13.8m4.5,0h13.9m4.5,0h13.8m4.5,0H580m4.5,0h13.8m4.5,0h13.9m4.5,0H635m4.5,0h13.9m4.5,0h13.8m4.5,0h13.9m4.5,0h13.8m4.5,0h13.9m4.5,0h13.8m4.5,0h13.9m4.5,0h13.8M144.1,555.5h13.8m4.5,0h13.9m4.5,0h13.8m4.5,0H213m4.5,0h13.8m4.5,0h13.9m4.5,0H268m4.5,0h13.9m4.5,0h13.8m4.5,0h13.9m4.5,0h13.8m4.5,0h13.9m4.5,0h13.8m4.5,0h13.9m4.5,0h13.8m4.5,0h13.9m4.5,0h13.8m4.5,0h13.9m4.5,0h13.8m4.5,0h13.9m4.5,0h13.8m4.5,0h13.9m4.5,0h13.8m4.5,0H580m4.5,0h13.8m4.5,0h13.9m4.5,0H635m4.5,0h13.9m4.5,0h13.8m4.5,0h13.9m4.5,0h13.8m4.5,0h13.9m4.5,0h13.8m4.5,0h13.9m4.5,0h13.8m-656.1,7.9h13.9m4.5,0h13.8m4.5,0h13.9m4.5,0h13.8m41.2,0h13.9m4.5,0H268m4.5,0h13.9m4.5,0h13.8m59.6,0h13.8m4.5,0h13.9m4.5,0h13.8m4.5,0h13.9m59.5,0h13.9m4.5,0h13.8m4.5,0h13.9m4.5,0h13.8m41.2,0h13.9m4.5,0H635m4.5,0h13.9m4.5,0h13.8m4.5,0h13.9m4.5,0h13.8m4.5,0h13.9m4.5,0h13.8m4.5,0h13.9m4.5,0h13.8m-656.1,19h13.9m4.5,0h13.8m4.5,0h13.9m4.5,0h13.8m41.2,0h13.9m4.5,0H268m4.5,0h13.9m4.5,0h13.8m59.6,0h13.8m4.5,0h13.9m4.5,0h13.8m4.5,0h13.9m59.5,0h13.9m4.5,0h13.8m4.5,0h13.9m4.5,0h13.8m41.2,0h13.9m4.5,0H635m4.5,0h13.9m4.5,0h13.8m4.5,0h13.9m4.5,0h13.8m4.5,0h13.9m4.5,0h13.8m4.5,0h13.9m4.5,0h13.8m-619.4,8h13.9m4.5,0h13.8m4.5,0H213m4.5,0h13.8m4.5,0h13.9m4.5,0H268m4.5,0h13.9m4.5,0h13.8m4.5,0h13.9m4.5,0h13.8m4.5,0h13.9m4.5,0h13.8m4.5,0h13.9m4.5,0h13.8m4.5,0h13.9m4.5,0h13.8m4.5,0h13.9m4.5,0h13.8m4.5,0h13.9m4.5,0h13.8m4.5,0h13.9m4.5,0h13.8m4.5,0H580m4.5,0h13.8m4.5,0h13.9m4.5,0H635m4.5,0h13.9m4.5,0h13.8m4.5,0h13.9m4.5,0h13.8m4.5,0h13.9m4.5,0h13.8m4.5,0h13.9m4.5,0h13.8M162.4,610.7h13.9m4.5,0h13.8m4.5,0H213m4.5,0h13.8m4.5,0h13.9m4.5,0H268m4.5,0h13.9m4.5,0h13.8m4.5,0h13.9m4.5,0h13.8m4.5,0h13.9m4.5,0h13.8m4.5,0h13.9m4.5,0h13.8m4.5,0h13.9m4.5,0h13.8m4.5,0h13.9m4.5,0h13.8m4.5,0h13.9m4.5,0h13.8m4.5,0h13.9m4.5,0h13.8m4.5,0H580m4.5,0h13.8m4.5,0h13.9m4.5,0H635m4.5,0h13.9m4.5,0h13.8m4.5,0h13.9m4.5,0h13.8m4.5,0h13.9m4.5,0h13.8m4.5,0h13.9m4.5,0h13.8M89,618.7h13.9m4.5,0h13.8m4.5,0h13.9m4.5,0h13.8m4.5,0h13.9m4.5,0h13.8m4.5,0H213m4.5,0h13.8m4.5,0h13.9m4.5,0H268m4.5,0h13.9m4.5,0h13.8m4.5,0h13.9m4.5,0h13.8m4.5,0h13.9m4.5,0h13.8m4.5,0h13.9m4.5,0h13.8m4.5,0h13.9m4.5,0h13.8m4.5,0h13.9m4.5,0h13.8m4.5,0h13.9m59.5,0H580m4.5,0h13.8m4.5,0h13.9m4.5,0H635m4.5,0h13.9m4.5,0h13.8m4.5,0h13.9m4.5,0h13.8m4.5,0h13.9m4.5,0h13.8m4.5,0h13.9m4.5,0h13.8M89,637.7h13.9m4.5,0h13.8m4.5,0h13.9m4.5,0h13.8m4.5,0h13.9m4.5,0h13.8m4.5,0H213m4.5,0h13.8m4.5,0h13.9m4.5,0H268m4.5,0h13.9m4.5,0h13.8m4.5,0h13.9m4.5,0h13.8m4.5,0h13.9m4.5,0h13.8m4.5,0h13.9m4.5,0h13.8m4.5,0h13.9m4.5,0h13.8m4.5,0h13.9m4.5,0h13.8m4.5,0h13.9m59.5,0H580m4.5,0h13.8m4.5,0h13.9m4.5,0H635m4.5,0h13.9m4.5,0h13.8m4.5,0h13.9m4.5,0h13.8m4.5,0h13.9m4.5,0h13.8m4.5,0h13.9m4.5,0h13.8m-619.4,7.9h13.9m4.5,0h13.8m4.5,0H213m4.5,0h13.8m4.5,0h13.9m4.5,0H268m4.5,0h13.9m4.5,0h13.8m4.5,0h13.9m4.5,0h13.8m4.5,0h13.9m4.5,0h13.8m4.5,0h13.9m4.5,0h13.8m4.5,0h13.9m4.5,0h13.8m4.5,0h13.9m4.5,0h13.8m4.5,0h13.9m4.5,0h13.8m4.5,0h13.9m4.5,0h13.8m4.5,0H580m4.5,0h13.8m4.5,0h13.9m4.5,0H635m4.5,0h13.9m4.5,0h13.8m4.5,0h13.9m4.5,0h13.8m4.5,0h13.9m4.5,0h13.8m4.5,0h13.9m4.5,0h13.8M162.4,664.7h13.9m4.5,0h13.8m4.5,0H213m4.5,0h13.8m4.5,0h13.9m4.5,0H268m4.5,0h13.9m4.5,0h13.8m4.5,0h13.9m4.5,0h13.8m4.5,0h13.9m4.5,0h13.8m4.5,0h13.9m4.5,0h13.8m4.5,0h13.9m4.5,0h13.8m4.5,0h13.9m4.5,0h13.8m4.5,0h13.9m4.5,0h13.8m4.5,0h13.9m4.5,0h13.8m4.5,0H580m4.5,0h13.8m4.5,0h13.9m4.5,0H635m4.5,0h13.9m4.5,0h13.8m4.5,0h13.9m4.5,0h13.8m4.5,0h13.9m4.5,0h13.8m4.5,0h13.9m4.5,0h13.8M89,672.6h13.9m4.5,0h13.8m4.5,0h13.9m4.5,0h13.8m4.5,0h13.9m4.5,0h13.8m4.5,0H213m4.5,0h13.8m4.5,0h13.9m4.5,0H268m4.5,0h13.9m4.5,0h13.8m4.5,0h13.9m4.5,0h13.8m4.5,0h13.9m4.5,0h13.8m4.5,0h13.9m4.5,0h13.8m4.5,0h13.9m4.5,0h13.8m4.5,0h13.9m4.5,0h13.8m4.5,0h13.9m4.5,0h13.8m4.5,0h13.9m4.5,0h13.8m4.5,0H580m4.5,0h13.8m4.5,0h13.9M89,691.6h13.9m4.5,0h13.8m4.5,0h13.9m4.5,0h13.8m4.5,0h13.9m4.5,0h13.8m4.5,0H213m4.5,0h13.8m4.5,0h13.9m4.5,0H268m4.5,0h13.9m4.5,0h13.8m4.5,0h13.9m4.5,0h13.8m4.5,0h13.9m4.5,0h13.8m4.5,0h13.9m4.5,0h13.8m4.5,0h13.9m4.5,0h13.8m4.5,0h13.9m4.5,0h13.8m4.5,0h13.9m4.5,0h13.8m4.5,0h13.9m4.5,0h13.8m4.5,0H580m4.5,0h13.8m4.5,0h13.9M89,699.6h13.9m4.5,0h13.8m4.5,0h13.9m4.5,0h13.8m4.5,0h13.9m4.5,0h13.8m4.5,0H213m4.5,0h13.8m4.5,0h13.9m4.5,0H268m4.5,0h13.9m4.5,0h13.8m4.5,0h13.9m4.5,0h13.8m4.5,0h13.9m4.5,0h13.8m4.5,0h13.9m4.5,0h13.8m4.5,0h13.9m4.5,0h13.8m4.5,0h13.9m4.5,0h13.8m4.5,0h13.9m4.5,0h13.8m4.5,0h13.9m4.5,0h13.8m4.5,0H580m4.5,0h13.8m4.5,0h13.9M89,718.6h13.9m4.5,0h13.8m4.5,0h13.9m4.5,0h13.8m4.5,0h13.9m4.5,0h13.8m4.5,0H213m4.5,0h13.8m4.5,0h13.9m4.5,0H268m4.5,0h13.9m4.5,0h13.8m4.5,0h13.9m4.5,0h13.8m4.5,0h13.9m4.5,0h13.8m4.5,0h13.9m4.5,0h13.8m4.5,0h13.9m4.5,0h13.8m4.5,0h13.9m4.5,0h13.8m4.5,0h13.9m4.5,0h13.8m4.5,0h13.9m4.5,0h13.8m4.5,0H580m4.5,0h13.8m4.5,0h13.9M474.4,856.4H598.3m22.9,0H781.8" class="g1_2" />
<path d="M43.2,875.9H55.3m3.7,0H71.2m3.7,0H87m3.8,0h12.1m3.8,0h12.1m3.8,0h12.1m3.7,0h12.2m3.7,0h12.1m3.8,0h12.1m3.8,0h12.1m3.8,0h12.1m3.8,0H230m3.7,0h12.1m3.8,0h12.1m3.8,0h12.1m3.8,0h12.1m3.8,0h12.1m3.8,0h12m3.9,0h12m3.8,0H357m3.8,0h12.1m3.8,0h10.5m91.8,0h12.1m3.8,0H507m3.8,0h12m3.8,0h12.1m3.8,0h12.1m3.8,0h12.1m3.8,0h12.1m3.8,0h12.1m3.7,0h12.2m3.7,0H634m3.8,0h12.1m3.8,0h12.1m3.8,0h12.1m3.7,0h12.2m3.7,0h12.1m3.8,0h12.1m3.8,0h12.1m3.8,0h12.1m3.8,0H777m3.7,0h12.1m3.8,0h12.1m3.8,0h12.1" class="g2_2" />
<path d="M144.1,928h13.8m4.5,0h13.9m4.5,0h13.8m4.5,0H213m4.5,0h13.8m4.5,0h13.9m4.5,0H268m4.5,0h13.9m4.5,0h13.8m4.5,0h13.9m4.5,0h13.8m4.5,0h13.9m4.5,0h13.8m4.5,0h13.9m4.5,0h13.8m4.5,0h13.9m4.5,0h13.8m4.5,0h13.9m4.5,0h13.8m4.5,0h13.9m4.5,0h13.8m4.5,0h13.9m4.5,0h13.8m4.5,0H580m4.5,0h13.8m4.5,0h13.9m4.5,0H635m4.5,0h13.9m4.5,0h13.8m4.5,0h13.9m4.5,0h13.8m4.5,0h13.9m4.5,0h13.8m4.5,0h13.9m4.5,0h13.8M144.1,949.5h13.8m4.5,0h13.9m4.5,0h13.8m4.5,0H213m4.5,0h13.8m4.5,0h13.9m4.5,0H268m4.5,0h13.9m4.5,0h13.8m4.5,0h13.9m4.5,0h13.8m4.5,0h13.9m4.5,0h13.8m4.5,0h13.9m4.5,0h13.8m4.5,0h13.9m4.5,0h13.8m4.5,0h13.9m4.5,0h13.8m4.5,0h13.9m4.5,0h13.8m4.5,0h13.9m4.5,0h13.8m4.5,0H580m4.5,0h13.8m4.5,0h13.9m4.5,0H635m4.5,0h13.9m4.5,0h13.8m4.5,0h13.9m4.5,0h13.8m4.5,0h13.9m4.5,0h13.8m4.5,0h13.9m4.5,0h13.8m-637.7,7.9h13.8m4.5,0h13.9m4.5,0h13.8m4.5,0H213m4.5,0h13.8m4.5,0h13.9m4.5,0H268m4.5,0h13.9m4.5,0h13.8m4.5,0h13.9m4.5,0h13.8m4.5,0h13.9m4.5,0h13.8m4.5,0h13.9m4.5,0h13.8m4.5,0h13.9m4.5,0h13.8m4.5,0h13.9m4.5,0h13.8m4.5,0h13.9m4.5,0h13.8m4.5,0h13.9m4.5,0h13.8m4.5,0H580m4.5,0h13.8m4.5,0h13.9m4.5,0H635m4.5,0h13.9m4.5,0h13.8m4.5,0h13.9m4.5,0h13.8m4.5,0h13.9m4.5,0h13.8m4.5,0h13.9m4.5,0h13.8M144.1,978.9h13.8m4.5,0h13.9m4.5,0h13.8m4.5,0H213m4.5,0h13.8m4.5,0h13.9m4.5,0H268m4.5,0h13.9m4.5,0h13.8m4.5,0h13.9m4.5,0h13.8m4.5,0h13.9m4.5,0h13.8m4.5,0h13.9m4.5,0h13.8m4.5,0h13.9m4.5,0h13.8m4.5,0h13.9m4.5,0h13.8m4.5,0h13.9m4.5,0h13.8m4.5,0h13.9m4.5,0h13.8m4.5,0H580m4.5,0h13.8m4.5,0h13.9m4.5,0H635m4.5,0h13.9m4.5,0h13.8m4.5,0h13.9m4.5,0h13.8m4.5,0h13.9m4.5,0h13.8m4.5,0h13.9m4.5,0h13.8m-509.3,7.9H433.2m91.6,0h257M107.4,1107.1H231.3m-123.9,57.8H231.3m41.2,0H433.2m91.6,0h257M89,73.4V88.9m0,7.9v16.4m0,134.9v19m0,351.5v19.2m0,34.8v19.1m0,7.8v19.2M102.8,73.4V88.9m0,7.9v16.4m0,505.4v19.2m0,34.8v19.1m0,7.8v19.2M107.4,73.4V88.9m0,7.9v16.4m0,505.4v19.2m0,34.8v19.1m0,7.8v19.2m0,388.3v57.9M121.2,73.4V88.9m0,7.9v16.4m0,505.4v19.2m0,34.8v19.1m0,7.8v19.2M125.7,73.4V88.9m0,7.9v16.4m0,450.2v19.1m0,36.1v19.2m0,34.8v19.1m0,7.8v19.2M139.5,73.4V88.9m0,7.9v16.4m0,450.2v19.1m0,36.1v19.2m0,34.8v19.1m0,7.8v19.2M144.1,73.4V88.9m0,7.9v16.4m0,52.6V185m0,36.1v19.1m0,103.1v20.4m0,7.8V392m0,89.1v19.2m0,36.1v19.1m0,7.9v19.1m0,36.1v19.2m0,34.8v19.1m0,7.8v19.2m0,209.2v21.6m0,7.9v21.5M157.9,73.4V88.9m0,7.9v16.4m0,52.6V185m0,36.1v19.1m0,103.1v20.4m0,7.8V392m0,89.1v19.2m0,36.1v19.1m0,7.9v19.1m0,36.1v19.2m0,34.8v19.1m0,7.8v19.2m0,209.2v21.6m0,7.9v21.5M162.5,73.4V88.9m0,7.9v16.4m0,52.6V185m0,36.1v19.1m0,103.1v20.4m0,7.8V392m0,34.8v20.5m0,33.8v19.2m0,36.1v19.1m0,7.9v19.1m0,7.8v20.5m0,7.8v19.2m0,7.8v19.1m0,7.9v19.1m0,7.8v19.2m0,209.2v21.6m0,7.9v21.5M176.2,73.4V88.9m0,7.9v16.4m0,52.6V185m0,36.1v19.1m0,103.1v20.4m0,7.8V392m0,34.8v20.5m0,33.8v19.2m0,36.1v19.1m0,7.9v19.1m0,7.8v20.5m0,7.8v19.2m0,7.8v19.1m0,7.9v19.1m0,7.8v19.2m0,209.2v21.6m0,7.9v21.5M180.8,73.4V88.9m0,7.9v16.4m0,24.3V158m0,7.8V185m0,7.8v20.5m0,7.8v19.1m0,103.1v20.4m0,7.8V392m0,34.8v20.5m0,5.5v20.5m0,7.8v19.2m0,7.8v20.5m0,7.8v19.1m0,7.9v19.1m0,7.8v20.5m0,7.8v19.2m0,7.8v19.1m0,7.9v19.1m0,7.8v19.2m0,209.2v21.6m0,7.9v21.5M194.6,73.4V88.9m0,7.9v16.4m0,24.3V158m0,7.8V185m0,7.8v20.5m0,7.8v19.1m0,103.1v20.4m0,7.8V392m0,34.8v20.5m0,5.5v20.5m0,7.8v19.2m0,7.8v20.5m0,7.8v19.1m0,7.9v19.1m0,7.8v20.5m0,7.8v19.2m0,7.8v19.1m0,7.9v19.1m0,7.8v19.2m0,209.2v21.6m0,7.9v21.5M199.2,73.4V88.9m0,7.9v16.4m0,24.3V158m0,7.8V185m0,7.8v20.5m0,7.8v19.1m0,103.1v20.4m0,7.8V392m0,60.8v20.5m0,7.8v19.2m0,7.8v20.5m0,7.8v19.1m0,34.8v20.5m0,7.8v19.2m0,7.8v19.1m0,7.9v19.1m0,7.8v19.2m0,209.2v21.6m0,7.9v21.5M212.9,73.4V88.9m0,7.9v16.4m0,24.3V158m0,7.8V185m0,7.8v20.5m0,7.8v19.1m0,103.1v20.4m0,7.8V392m0,60.8v20.5m0,7.8v19.2m0,7.8v20.5m0,7.8v19.1m0,34.8v20.5m0,7.8v19.2m0,7.8v19.1m0,7.9v19.1m0,7.8v19.2m0,209.2v21.6m0,7.9v21.5M217.5,73.4V88.9m0,7.9v16.4m0,24.3V158m0,7.8V185m0,7.8v20.5m0,7.8v19.1m0,103.1v20.4m0,7.8V392m0,60.8v20.5m0,7.8v19.2m0,7.8v20.5m0,7.8v19.1m0,34.8v20.5m0,7.8v19.2m0,7.8v19.1m0,7.9v19.1m0,7.8v19.2m0,209.2v21.6m0,7.9v21.5M231.3,73.4V88.9m0,7.9v16.4m0,24.3V158m0,7.8V185m0,7.8v20.5m0,7.8v19.1m0,103.1v20.4m0,7.8V392m0,60.8v20.5m0,7.8v19.2m0,7.8v20.5m0,7.8v19.1m0,34.8v20.5m0,7.8v19.2m0,7.8v19.1m0,7.9v19.1m0,7.8v19.2m0,209.2v21.6m0,7.9v21.5m0,128.1v57.9M235.9,73.4V88.9m0,7.9v16.4m0,24.3V158m0,7.8V185m0,7.8v20.5m0,7.8v19.1m0,7.9v19.1m0,76.1v20.4m0,7.8V392m0,34.8v20.5m0,5.5v20.5m0,7.8v19.2m0,7.8v20.5m0,7.8v19.1m0,7.9v19.1m0,7.8v20.5m0,7.8v19.2m0,7.8v19.1m0,7.9v19.1m0,7.8v19.2m0,209.2v21.6m0,7.9v21.5M249.6,73.4V88.9m0,7.9v16.4m0,24.3V158m0,7.8V185m0,7.8v20.5m0,7.8v19.1m0,7.9v19.1m0,76.1v20.4m0,7.8V392m0,34.8v20.5m0,5.5v20.5m0,7.8v19.2m0,7.8v20.5m0,7.8v19.1m0,7.9v19.1m0,7.8v20.5m0,7.8v19.2m0,7.8v19.1m0,7.9v19.1m0,7.8v19.2m0,209.2v21.6m0,7.9v21.5M254.2,73.4V88.9m0,7.9v16.4m0,24.3V158m0,7.8V185m0,7.8v20.5m0,7.8v19.1m0,7.9v19.1m0,76.1v20.4m0,7.8V392m0,34.8v20.5m0,5.5v20.5m0,7.8v19.2m0,7.8v20.5m0,7.8v19.1m0,7.9v19.1m0,7.8v20.5m0,7.8v19.2m0,7.8v19.1m0,7.9v19.1m0,7.8v19.2m0,209.2v21.6m0,7.9v21.5M268,73.4V88.9m0,7.9v16.4m0,24.3V158m0,7.8V185m0,7.8v20.5m0,7.8v19.1m0,7.9v19.1m0,76.1v20.4m0,7.8V392m0,34.8v20.5m0,5.5v20.5m0,7.8v19.2m0,7.8v20.5m0,7.8v19.1m0,7.9v19.1m0,7.8v20.5m0,7.8v19.2m0,7.8v19.1m0,7.9v19.1m0,7.8v19.2m0,209.2v21.6m0,7.9v21.5M272.5,73.4V88.9m0,7.9v16.4m0,24.3V158m0,7.8V185m0,7.8v20.5m0,7.8v19.1m0,7.9v19.1m0,76.1v20.4m0,7.8V392m0,60.8v20.5m0,7.8v19.2m0,7.8v20.5m0,7.8v19.1m0,7.9v19.1m0,7.8v20.5m0,7.8v19.2m0,7.8v19.1m0,7.9v19.1m0,7.8v19.2m0,209.2v21.6m0,7.9v21.5m0,7.9v178.1M286.3,73.4V88.9m0,7.9v16.4m0,24.3V158m0,7.8V185m0,7.8v20.5m0,7.8v19.1m0,7.9v19.1m0,76.1v20.4m0,7.8V392m0,60.8v20.5m0,7.8v19.2m0,7.8v20.5m0,7.8v19.1m0,7.9v19.1m0,7.8v20.5m0,7.8v19.2m0,7.8v19.1m0,7.9v19.1m0,7.8v19.2m0,209.2v21.6m0,7.9v21.5M290.9,73.4V88.9m0,7.9v16.4m0,24.3V158m0,7.8V185m0,7.8v20.5m0,7.8v19.1m0,7.9v19.1m0,76.1v20.4m0,7.8V392m0,7.8V419m0,7.8v20.5m0,5.5v20.5m0,7.8v19.2m0,7.8v20.5m0,7.8v19.1m0,7.9v19.1m0,7.8v20.5m0,7.8v19.2m0,7.8v19.1m0,7.9v19.1m0,7.8v19.2m0,209.2v21.6m0,7.9v21.5M304.7,73.4V88.9m0,7.9v16.4m0,24.3V158m0,7.8V185m0,7.8v20.5m0,7.8v19.1m0,7.9v19.1m0,76.1v20.4m0,7.8V392m0,7.8V419m0,7.8v20.5m0,5.5v20.5m0,7.8v19.2m0,7.8v20.5m0,7.8v19.1m0,7.9v19.1m0,7.8v20.5m0,7.8v19.2m0,7.8v19.1m0,7.9v19.1m0,7.8v19.2m0,209.2v21.6m0,7.9v21.5M309.2,73.4V88.9m0,7.9v16.4m0,24.3V158m0,7.8V185m0,7.8v20.5m0,7.8v19.1m0,7.9v19.1m0,76.1v20.4m0,7.8V392m0,7.8V419m0,7.8v20.5m0,5.5v20.5m0,7.8v19.2m0,7.8v20.5m0,7.8v19.1m0,34.8v20.5m0,7.8v19.2m0,7.8v19.1m0,7.9v19.1m0,7.8v19.2m0,209.2v21.6m0,7.9v21.5M323,73.4V88.9m0,7.9v16.4m0,24.3V158m0,7.8V185m0,7.8v20.5m0,7.8v19.1m0,7.9v19.1m0,76.1v20.4m0,7.8V392m0,7.8V419m0,7.8v20.5m0,5.5v20.5m0,7.8v19.2m0,7.8v20.5m0,7.8v19.1m0,34.8v20.5m0,7.8v19.2m0,7.8v19.1m0,7.9v19.1m0,7.8v19.2m0,209.2v21.6m0,7.9v21.5M327.6,73.4V88.9m0,7.9v16.4m0,24.3V158m0,7.8V185m0,7.8v20.5m0,7.8v19.1m0,7.9v19.1m0,76.1v20.4m0,7.8V392m0,7.8V419m0,7.8v20.5m0,5.5v20.5m0,7.8v19.2m0,7.8v20.5m0,7.8v19.1m0,34.8v20.5m0,7.8v19.2m0,7.8v19.1m0,7.9v19.1m0,7.8v19.2m0,209.2v21.6m0,7.9v21.5M341.4,73.4V88.9m0,7.9v16.4m0,24.3V158m0,7.8V185m0,7.8v20.5m0,7.8v19.1m0,7.9v19.1m0,76.1v20.4m0,7.8V392m0,7.8V419m0,7.8v20.5m0,5.5v20.5m0,7.8v19.2m0,7.8v20.5m0,7.8v19.1m0,34.8v20.5m0,7.8v19.2m0,7.8v19.1m0,7.9v19.1m0,7.8v19.2m0,209.2v21.6m0,7.9v21.5M346,73.4V88.9m0,7.9v16.4m0,24.3V158m0,7.8V185m0,7.8v20.5m0,7.8v19.1m0,7.9v19.1m0,76.1v20.4m0,7.8V392m0,7.8V419m0,7.8v20.5m0,5.5v20.5m0,7.8v19.2m0,7.8v20.5m0,7.8v19.1m0,34.8v20.5m0,7.8v19.2m0,7.8v19.1m0,7.9v19.1m0,7.8v19.2m0,209.2v21.6m0,7.9v21.5M359.7,73.4V88.9m0,7.9v16.4m0,24.3V158m0,7.8V185m0,7.8v20.5m0,7.8v19.1m0,7.9v19.1m0,76.1v20.4m0,7.8V392m0,7.8V419m0,7.8v20.5m0,5.5v20.5m0,7.8v19.2m0,7.8v20.5m0,7.8v19.1m0,34.8v20.5m0,7.8v19.2m0,7.8v19.1m0,7.9v19.1m0,7.8v19.2m0,209.2v21.6m0,7.9v21.5M364.3,73.4V88.9m0,7.9v16.4m0,24.3V158m0,7.8V185m0,7.8v20.5m0,7.8v19.1m0,7.9v19.1m0,76.1v20.4m0,7.8V392m0,7.8V419m0,33.8v20.5m0,7.8v19.2m0,7.8v20.5m0,7.8v19.1m0,7.9v19.1m0,7.8v20.5m0,7.8v19.2m0,7.8v19.1m0,7.9v19.1m0,7.8v19.2m0,209.2v21.6m0,7.9v21.5M378.1,73.4V88.9m0,7.9v16.4m0,24.3V158m0,7.8V185m0,7.8v20.5m0,7.8v19.1m0,7.9v19.1m0,76.1v20.4m0,7.8V392m0,7.8V419m0,33.8v20.5m0,7.8v19.2m0,7.8v20.5m0,7.8v19.1m0,7.9v19.1m0,7.8v20.5m0,7.8v19.2m0,7.8v19.1m0,7.9v19.1m0,7.8v19.2m0,209.2v21.6m0,7.9v21.5M382.7,73.4V88.9m0,7.9v16.4m0,24.3V158m0,7.8V185m0,7.8v20.5m0,7.8v19.1m0,103.1v20.4m0,7.8V392m0,7.8V419m0,33.8v20.5m0,7.8v19.2m0,7.8v20.5m0,7.8v19.1m0,7.9v19.1m0,7.8v20.5m0,7.8v19.2m0,7.8v19.1m0,7.9v19.1m0,7.8v19.2m0,209.2v21.6m0,7.9v21.5m9.1,-730.8v19M396.4,73.4V88.9m0,7.9v16.4m0,24.3V158m0,7.8V185m0,7.8v20.5m0,7.8v19.1m0,103.1v20.4m0,7.8V392m0,7.8V419m0,33.8v20.5m0,7.8v19.2m0,7.8v20.5m0,7.8v19.1m0,7.9v19.1m0,7.8v20.5m0,7.8v19.2m0,7.8v19.1m0,7.9v19.1m0,7.8v19.2m0,209.2v21.6m0,7.9v21.5M401,73.4V88.9m0,7.9v16.4m0,24.3V158m0,7.8V185m0,7.8v20.5m0,7.8v19.1m0,103.1v20.4m0,7.8V392m0,7.8V419m0,33.8v20.5m0,7.8v19.2m0,7.8v20.5m0,7.8v19.1m0,7.9v19.1m0,7.8v20.5m0,7.8v19.2m0,7.8v19.1m0,7.9v19.1m0,7.8v19.2m0,209.2v21.6m0,7.9v21.5M414.8,73.4V88.9m0,7.9v16.4m0,24.3V158m0,7.8V185m0,7.8v20.5m0,7.8v19.1m0,103.1v20.4m0,7.8V392m0,7.8V419m0,33.8v20.5m0,7.8v19.2m0,7.8v20.5m0,7.8v19.1m0,7.9v19.1m0,7.8v20.5m0,7.8v19.2m0,7.8v19.1m0,7.9v19.1m0,7.8v19.2m0,209.2v21.6m0,7.9v21.5M419.4,73.4V88.9m0,7.9v16.4m0,24.3V158m0,7.8V185m0,7.8v20.5m0,7.8v19.1m0,103.1v20.4m0,7.8V392m0,7.8V419m0,33.8v20.5m0,7.8v19.2m0,7.8v20.5m0,7.8v19.1m0,7.9v19.1m0,7.8v20.5m0,7.8v19.2m0,7.8v19.1m0,7.9v19.1m0,7.8v19.2m0,209.2v21.6m0,7.9v21.5M433.1,73.4V88.9m0,7.9v16.4m0,24.3V158m0,7.8V185m0,7.8v20.5m0,7.8v19.1m0,103.1v20.4m0,7.8V392m0,7.8V419m0,33.8v20.5m0,7.8v19.2m0,7.8v20.5m0,7.8v19.1m0,7.9v19.1m0,7.8v20.5m0,7.8v19.2m0,7.8v19.1m0,7.9v19.1m0,7.8v19.2m0,209.2v21.6m0,7.9v21.5m0,7.9v178.1M437.7,73.4V88.9m0,7.9v16.4m0,24.3V158m0,7.8V185m0,7.8v20.5m0,7.8v19.1m0,7.9v19.1m0,76.1v20.4m0,7.8V392m0,7.8V419m0,33.8v20.5m0,7.8v19.2m0,7.8v20.5m0,7.8v19.1m0,34.8v20.5m0,7.8v19.2m0,7.8v19.1m0,7.9v19.1m0,7.8v19.2m0,209.2v21.6m0,7.9v21.5M451.5,73.4V88.9m0,7.9v16.4m0,24.3V158m0,7.8V185m0,7.8v20.5m0,7.8v19.1m0,7.9v19.1m0,76.1v20.4m0,7.8V392m0,7.8V419m0,33.8v20.5m0,7.8v19.2m0,7.8v20.5m0,7.8v19.1m0,34.8v20.5m0,7.8v19.2m0,7.8v19.1m0,7.9v19.1m0,7.8v19.2m0,209.2v21.6m0,7.9v21.5M456.1,73.4V88.9m0,7.9v16.4m0,24.3V158m0,7.8V185m0,7.8v20.5m0,7.8v19.1m0,7.9v19.1m0,76.1v20.4m0,7.8V392m0,7.8V419m0,7.8v20.5m0,5.5v20.5m0,7.8v19.2m0,7.8v20.5m0,7.8v19.1m0,34.8v20.5m0,7.8v19.2m0,7.8v19.1m0,7.9v19.1m0,7.8v19.2m0,209.2v21.6m0,7.9v21.5M469.8,73.4V88.9m0,7.9v16.4m0,24.3V158m0,7.8V185m0,7.8v20.5m0,7.8v19.1m0,7.9v19.1m0,76.1v20.4m0,7.8V392m0,7.8V419m0,7.8v20.5m0,5.5v20.5m0,7.8v19.2m0,7.8v20.5m0,7.8v19.1m0,34.8v20.5m0,7.8v19.2m0,7.8v19.1m0,7.9v19.1m0,7.8v19.2m0,209.2v21.6m0,7.9v21.5M474.4,73.4V88.9m0,7.9v16.4m0,24.3V158m0,7.8V185m0,7.8v20.5m0,7.8v19.1m0,103.1v20.4m0,7.8V392m0,7.8V419m0,7.8v20.5m0,5.5v20.5m0,7.8v19.2m0,7.8v20.5m0,7.8v19.1m0,34.8v20.5m0,7.8v19.2m0,7.8v19.1m0,7.9v19.1m0,7.8v19.2m0,86v51.8m0,71.4v21.6m0,7.9v21.5M488.2,73.4V88.9m0,7.9v16.4m0,24.3V158m0,7.8V185m0,7.8v20.5m0,7.8v19.1m0,103.1v20.4m0,7.8V392m0,7.8V419m0,7.8v20.5m0,5.5v20.5m0,7.8v19.2m0,7.8v20.5m0,7.8v19.1m0,34.8v20.5m0,7.8v19.2m0,7.8v19.1m0,7.9v19.1m0,7.8v19.2m0,209.2v21.6m0,7.9v21.5M492.8,73.4V88.9m0,7.9v16.4m0,24.3V158m0,7.8V185m0,7.8v20.5m0,7.8v19.1m0,131.3V392m0,60.8v20.5m0,7.8v19.2m0,7.8v20.5m0,7.8v19.1m0,7.9v19.1m0,7.8v20.5m0,7.8v19.2m0,7.8v19.1m0,7.9v19.1m0,7.8v19.2m0,209.2v21.6m0,7.9v21.5m9.1,-730.8v19M506.5,73.4V88.9m0,7.9v16.4m0,24.3V158m0,7.8V185m0,7.8v20.5m0,7.8v19.1m0,131.3V392m0,60.8v20.5m0,7.8v19.2m0,7.8v20.5m0,7.8v19.1m0,7.9v19.1m0,7.8v20.5m0,7.8v19.2m0,7.8v19.1m0,7.9v19.1m0,7.8v19.2m0,209.2v21.6m0,7.9v21.5M511.1,73.4V88.9m0,7.9v16.4m0,24.3V158m0,7.8V185m0,7.8v20.5m0,7.8v19.1m0,131.3V392m0,60.8v20.5m0,7.8v19.2m0,7.8v20.5m0,7.8v19.1m0,7.9v19.1m0,7.8v20.5m0,34.8v19.1m0,7.9v19.1m0,7.8v19.2m0,209.2v21.6m0,7.9v21.5M524.9,73.4V88.9m0,7.9v16.4m0,24.3V158m0,7.8V185m0,7.8v20.5m0,7.8v19.1m0,131.3V392m0,60.8v20.5m0,7.8v19.2m0,7.8v20.5m0,7.8v19.1m0,7.9v19.1m0,7.8v20.5m0,34.8v19.1m0,7.9v19.1m0,7.8v19.2m0,209.2v21.6m0,7.9v21.5m0,7.9v178.1M529.5,73.4V88.9m0,7.9v16.4m0,24.3V158m0,7.8V185m0,7.8v20.5m0,7.8v19.1m0,7.9v19.1m0,104.3V392m0,7.8V419m0,7.8v20.5m0,5.5v20.5m0,7.8v19.2m0,7.8v20.5m0,7.8v19.1m0,7.9v19.1m0,7.8v20.5m0,34.8v19.1m0,7.9v19.1m0,7.8v19.2m0,209.2v21.6m0,7.9v21.5M543.2,73.4V88.9m0,7.9v16.4m0,24.3V158m0,7.8V185m0,7.8v20.5m0,7.8v19.1m0,7.9v19.1m0,104.3V392m0,7.8V419m0,7.8v20.5m0,5.5v20.5m0,7.8v19.2m0,7.8v20.5m0,7.8v19.1m0,7.9v19.1m0,7.8v20.5m0,34.8v19.1m0,7.9v19.1m0,7.8v19.2m0,209.2v21.6m0,7.9v21.5M547.8,73.4V88.9m0,7.9v16.4m0,24.3V158m0,7.8V185m0,7.8v20.5m0,7.8v19.1m0,7.9v19.1m0,104.3V392m0,7.8V419m0,7.8v20.5m0,5.5v20.5m0,7.8v19.2m0,7.8v20.5m0,7.8v19.1m0,7.9v19.1m0,7.8v20.5m0,34.8v19.1m0,7.9v19.1m0,7.8v19.2m0,209.2v21.6m0,7.9v21.5M561.6,73.4V88.9m0,7.9v16.4m0,24.3V158m0,7.8V185m0,7.8v20.5m0,7.8v19.1m0,7.9v19.1m0,104.3V392m0,7.8V419m0,7.8v20.5m0,5.5v20.5m0,7.8v19.2m0,7.8v20.5m0,7.8v19.1m0,7.9v19.1m0,7.8v20.5m0,34.8v19.1m0,7.9v19.1m0,7.8v19.2m0,209.2v21.6m0,7.9v21.5M566.2,73.4V88.9m0,48.6V158m0,7.8V185m0,7.8v20.5m0,7.8v19.1m0,7.9v19.1m0,104.3V392m0,7.8V419m0,33.8v20.5m0,7.8v19.2m0,7.8v20.5m0,7.8v19.1m0,34.8v20.5m0,7.8v19.2m0,7.8v19.1m0,7.9v19.1m0,7.8v19.2m0,209.2v21.6m0,7.9v21.5M579.9,73.4V88.9m0,48.6V158m0,7.8V185m0,7.8v20.5m0,7.8v19.1m0,7.9v19.1m0,104.3V392m0,7.8V419m0,33.8v20.5m0,7.8v19.2m0,7.8v20.5m0,7.8v19.1m0,34.8v20.5m0,7.8v19.2m0,7.8v19.1m0,7.9v19.1m0,7.8v19.2m0,209.2v21.6m0,7.9v21.5M584.5,73.4V88.9m0,7.9v16.4m0,24.3V158m0,7.8V185m0,7.8v20.5m0,7.8v19.1m0,7.9v19.1m0,76.1v20.4m0,7.8V392m0,7.8V419m0,7.8v20.5m0,5.5v20.5m0,7.8v19.2m0,7.8v20.5m0,7.8v19.1m0,34.8v20.5m0,7.8v19.2m0,7.8v19.1m0,7.9v19.1m0,7.8v19.2m0,209.2v21.6m0,7.9v21.5M598.3,73.4V88.9m0,7.9v16.4m0,24.3V158m0,7.8V185m0,7.8v20.5m0,7.8v19.1m0,7.9v19.1m0,76.1v20.4m0,7.8V392m0,7.8V419m0,7.8v20.5m0,5.5v20.5m0,7.8v19.2m0,7.8v20.5m0,7.8v19.1m0,34.8v20.5m0,7.8v19.2m0,7.8v19.1m0,7.9v19.1m0,7.8v19.2m0,86v51.8m0,71.4v21.6m0,7.9v21.5M602.9,73.4V88.9m0,7.9v16.4m0,24.3V158m0,7.8V185m0,7.8v20.5m0,7.8v19.1m0,103.1v20.4m0,7.8V392m0,34.8v20.5m0,5.5v20.5m0,7.8v19.2m0,7.8v20.5m0,7.8v19.1m0,7.9v19.1m0,7.8v20.5m0,7.8v19.2m0,7.8v19.1m0,7.9v19.1m0,7.8v19.2m0,209.2v21.6m0,7.9v21.5M616.6,73.4V88.9m0,7.9v16.4m0,24.3V158m0,7.8V185m0,7.8v20.5m0,7.8v19.1m0,103.1v20.4m0,7.8V392m0,34.8v20.5m0,5.5v20.5m0,7.8v19.2m0,7.8v20.5m0,7.8v19.1m0,7.9v19.1m0,7.8v20.5m0,7.8v19.2m0,7.8v19.1m0,7.9v19.1m0,7.8v19.2m0,209.2v21.6m0,7.9v21.5M621.2,73.4V88.9m0,7.9v16.4m0,24.3V158m0,7.8V185m0,7.8v20.5m0,7.8v19.1m0,131.3V392m0,7.8V419m0,7.8v20.5m0,5.5v20.5m0,7.8v19.2m0,7.8v20.5m0,7.8v19.1m0,7.9v19.1m0,7.8v20.5m0,7.8v19.2m0,7.8v19.1m0,7.9V856.5m0,71.4v21.6m0,7.9v21.5M635,73.4V88.9m0,7.9v16.4m0,24.3V158m0,7.8V185m0,7.8v20.5m0,7.8v19.1m0,131.3V392m0,7.8V419m0,7.8v20.5m0,5.5v20.5m0,7.8v19.2m0,7.8v20.5m0,7.8v19.1m0,7.9v19.1m0,7.8v20.5m0,7.8v19.2m0,7.8v19.1m0,263.2v21.6m0,7.9v21.5M639.6,73.4V88.9m0,7.9v16.4m0,24.3V158m0,7.8V185m0,7.8v20.5m0,7.8v19.1m0,131.3V392m0,7.8V419m0,7.8v20.5m0,5.5v20.5m0,7.8v19.2m0,7.8v20.5m0,7.8v19.1m0,7.9v19.1m0,7.8v20.5m0,7.8v19.2m0,7.8v19.1m0,263.2v21.6m0,7.9v21.5M653.3,73.4V88.9m0,7.9v16.4m0,24.3V158m0,7.8V185m0,7.8v20.5m0,7.8v19.1m0,131.3V392m0,7.8V419m0,7.8v20.5m0,5.5v20.5m0,7.8v19.2m0,7.8v20.5m0,7.8v19.1m0,7.9v19.1m0,7.8v20.5m0,7.8v19.2m0,7.8v19.1m0,263.2v21.6m0,7.9v21.5M657.9,73.4V88.9m0,7.9v16.4m0,24.3V158m0,7.8V185m0,7.8v20.5m0,7.8v19.1m0,73.6v21.6m0,7.9v20.4m0,7.8V392m0,7.8V419m0,33.8v20.5m0,7.8v19.2m0,7.8v20.5m0,7.8v19.1m0,7.9v19.1m0,7.8v20.5m0,7.8v19.2m0,7.8v19.1m0,263.2v21.6m0,7.9v21.5M671.7,73.4V88.9m0,7.9v16.4m0,24.3V158m0,7.8V185m0,7.8v20.5m0,7.8v19.1m0,73.6v21.6m0,7.9v20.4m0,7.8V392m0,7.8V419m0,33.8v20.5m0,7.8v19.2m0,7.8v20.5m0,7.8v19.1m0,7.9v19.1m0,7.8v20.5m0,7.8v19.2m0,7.8v19.1m0,263.2v21.6m0,7.9v21.5M676.3,73.4V88.9m0,7.9v16.4m0,24.3V158m0,7.8V185m0,7.8v20.5m0,7.8v19.1m0,103.1v20.4m0,7.8V392m0,7.8V419m0,33.8v20.5m0,7.8v19.2m0,7.8v20.5m0,7.8v19.1m0,7.9v19.1m0,7.8v20.5m0,7.8v19.2m0,7.8v19.1m0,263.2v21.6m0,7.9v21.5M690,73.4V88.9m0,7.9v16.4m0,24.3V158m0,7.8V185m0,7.8v20.5m0,7.8v19.1m0,103.1v20.4m0,7.8V392m0,7.8V419m0,33.8v20.5m0,7.8v19.2m0,7.8v20.5m0,7.8v19.1m0,7.9v19.1m0,7.8v20.5m0,7.8v19.2m0,7.8v19.1m0,263.2v21.6m0,7.9v21.5M694.6,96.8v16.4m0,24.3V158m0,7.8V185m0,7.8v20.5m0,7.8v19.1m0,131.3V392m0,7.8V419m0,33.8v20.5m0,7.8v19.2m0,7.8v20.5m0,7.8v19.1m0,7.9v19.1m0,7.8v20.5m0,7.8v19.2m0,7.8v19.1m0,263.2v21.6m0,7.9v21.5M708.4,96.8v16.4m0,24.3V158m0,7.8V185m0,7.8v20.5m0,7.8v19.1m0,7.9v19m0,104.4V392m0,7.8V419m0,33.8v20.5m0,7.8v19.2m0,7.8v20.5m0,7.8v19.1m0,7.9v19.1m0,7.8v20.5m0,7.8v19.2m0,7.8v19.1m0,263.2v21.6m0,7.9v21.5M713,73.4V88.9m0,7.9v16.4m0,24.3V158m0,7.8V185m0,7.8v20.5m0,7.8v19.1m0,7.9v19.1m0,76.1v20.4m0,7.8V392m0,7.8V419m0,33.8v20.5m0,7.8v19.2m0,7.8v20.5m0,7.8v19.1m0,7.9v19.1m0,7.8v20.5m0,7.8v19.2m0,7.8v19.1m0,263.2v21.6m0,7.9v21.5M726.7,73.4V88.9m0,7.9v16.4m0,24.3V158m0,7.8V185m0,7.8v20.5m0,7.8v19.1m0,7.9v19.1m0,76.1v20.4m0,7.8V392m0,7.8V419m0,33.8v20.5m0,7.8v19.2m0,7.8v20.5m0,7.8v19.1m0,7.9v19.1m0,7.8v20.5m0,7.8v19.2m0,7.8v19.1m0,263.2v21.6m0,7.9v21.5M731.3,73.4V88.9m0,7.9v16.4m0,24.3V158m0,7.8V185m0,7.8v20.5m0,7.8v19.1m0,7.9v19.1m0,76.1v20.4m0,7.8V392m0,7.8V419m0,33.8v20.5m0,7.8v19.2m0,7.8v20.5m0,7.8v19.1m0,7.9v19.1m0,7.8v20.5m0,7.8v19.2m0,7.8v19.1m0,263.2v21.6m0,7.9v21.5M745.1,73.4V88.9m0,7.9v16.4m0,24.3V158m0,7.8V185m0,7.8v20.5m0,7.8v19.1m0,7.9v19.1m0,76.1v20.4m0,7.8V392m0,7.8V419m0,33.8v20.5m0,7.8v19.2m0,7.8v20.5m0,7.8v19.1m0,7.9v19.1m0,7.8v20.5m0,7.8v19.2m0,7.8v19.1m0,263.2v21.6m0,7.9v21.5M749.7,73.4V88.9m0,7.9v16.4m0,24.3V158m0,7.8V185m0,7.8v20.5m0,7.8v19.1m0,7.9v19.1m0,76.1v20.4m0,7.8V392m0,7.8V419m0,33.8v20.5m0,7.8v19.2m0,7.8v20.5m0,7.8v19.1m0,7.9v19.1m0,7.8v20.5m0,7.8v19.2m0,7.8v19.1m0,263.2v21.6m0,7.9v21.5M763.4,73.4V88.9m0,7.9v16.4m0,24.3V158m0,7.8V185m0,7.8v20.5m0,7.8v19.1m0,7.9v19.1m0,76.1v20.4m0,7.8V392m0,7.8V419m0,33.8v20.5m0,7.8v19.2m0,7.8v20.5m0,7.8v19.1m0,7.9v19.1m0,7.8v20.5m0,7.8v19.2m0,7.8v19.1m0,263.2v21.6m0,7.9v21.5M768,137.5V158m0,7.8V185m0,7.8v20.5m0,7.8v19.1m0,7.9v19.1m0,46.6v21.6m0,7.9v20.4m0,7.8V392m0,7.8V419m0,33.8v20.5m0,7.8v19.2m0,7.8v20.5m0,7.8v19.1m0,7.9v19.1m0,7.8v20.5m0,7.8v19.2m0,7.8v19.1m0,263.2v21.6m0,7.9v21.5M781.8,137.5V158m0,7.8V185m0,7.8v20.5m0,7.8v19.1m0,7.9v19.1m0,46.6v21.6m0,7.9v20.4m0,7.8V392m0,7.8V419m0,33.8v20.5m0,7.8v19.2m0,7.8v20.5m0,7.8v19.1m0,7.9v19.1m0,7.8v20.5m0,7.8v19.2m0,7.8v19.1m0,7.9V856.5m0,71.4v21.6m0,7.9v21.5m0,7.9v178.1" class="g1_2" />
</svg>